<?xml version="1.0" encoding="UTF-8" standalone="no"?>
<!-- Created with Inkscape (http://www.inkscape.org/) -->

<svg
   xmlns:dc="http://purl.org/dc/elements/1.1/"
   xmlns:cc="http://creativecommons.org/ns#"
   xmlns:rdf="http://www.w3.org/1999/02/22-rdf-syntax-ns#"
   xmlns:svg="http://www.w3.org/2000/svg"
   xmlns="http://www.w3.org/2000/svg"
   xmlns:sodipodi="http://sodipodi.sourceforge.net/DTD/sodipodi-0.dtd"
   xmlns:inkscape="http://www.inkscape.org/namespaces/inkscape"
   version="1.0"
   width="512"
   height="512"
   id="svg2160"
   xml:space="preserve"
   inkscape:version="0.48.5 r10040"
   sodipodi:docname="The_Distributed_Bay_logo_black.svg"><metadata
     id="metadata3109"><rdf:RDF><cc:Work
         rdf:about=""><dc:format>image/svg+xml</dc:format><dc:type
           rdf:resource="http://purl.org/dc/dcmitype/StillImage" /><dc:title></dc:title></cc:Work></rdf:RDF></metadata><sodipodi:namedview
     pagecolor="#ffffff"
     bordercolor="#666666"
     borderopacity="1"
     objecttolerance="10"
     gridtolerance="10"
     guidetolerance="10"
     inkscape:pageopacity="0"
     inkscape:pageshadow="2"
     inkscape:window-width="1246"
     inkscape:window-height="1048"
     id="namedview3107"
     showgrid="false"
     inkscape:zoom="0.71138209"
     inkscape:cx="364.68757"
     inkscape:cy="280.35868"
     inkscape:window-x="0"
     inkscape:window-y="30"
     inkscape:window-maximized="0"
     inkscape:current-layer="svg2160" /><defs
     id="defs2235"><clipPath
       id="clp2"><path
         id="path2168"
         style="stroke:#000000"
         d="m 36,81.75 0,595.608 523.276,0 0,-595.608 -523.276,0 z"
         inkscape:connector-curvature="0" /></clipPath><clipPath
       id="clp3"><path
         d="m 36,81.75 523.276,0 0,595.608 -523.276,0 0,-595.608 z"
         style="stroke:#000000"
         id="path2173"
         inkscape:connector-curvature="0" /></clipPath><clipPath
       id="clp4"><path
         inkscape:connector-curvature="0"
         id="path2178"
         style="stroke:#000000"
         d="m 28.058,16.126 540.892,0 0,679.979 -540.892,0 0,-679.979 z" /></clipPath></defs><clipPath
     id="clp1"><path
       d="m 0,0 595.276,0 0,841.89 L 0,841.89 0,0 z"
       style="stroke:#000000"
       id="path2163"
       inkscape:connector-curvature="0" /></clipPath><path
     inkscape:connector-curvature="0"
     id="path2184"
     style="fill:#000000;fill-rule:evenodd"
     d="m 207.25918,120.30126 c -0.9539,-0.77704 -1.04749,-3.59496 -1.16512,-6.1991 -0.14253,-3.14161 0.77703,-6.90915 2.74494,-7.14355 0.42845,-0.0515 4.86655,-2.45044 9.15869,-5.02023 3.57607,-2.141345 21.90804,-15.360351 22.13471,-15.378381 2.8806,-0.226671 -10.57108,12.618846 -10.64149,12.630866 -0.43531,0.0704 -9.81122,8.491545 -9.81122,9.313225 -1.19088,0 -8.68131,9.42056 -9.29692,10.86043 -0.26359,0.61648 -1.95074,1.8915 -3.12359,0.93674 m -19.62244,17.17457 c 1.88376,-3.53657 2.92267,-6.0849 4.75063,-8.52761 1.71634,-2.29418 2.56979,-5.01594 4.19426,-6.56829 2.60929,-2.49166 3.0446,-5.53368 3.53915,-5.15933 0.32798,0.24814 3.02399,4.07921 2.40322,7.65013 -0.64051,3.68511 -4.02769,7.69649 -6.61895,9.51328 -0.89294,0.62506 -8.38852,9.49269 -10.47663,11.27514 -0.29794,0.255 -0.59501,0.091 -0.63279,0.0249 -0.44304,-0.7839 0.62592,-4.0483 2.84111,-8.20822 m 34.29076,56.92003 c -0.0962,-0.2095 -0.93501,-1.89321 -0.90324,-4.0234 0.0215,-1.45704 0.82511,-3.00939 1.06981,-4.89659 0.44218,-3.39062 1.8065,-7.09376 1.77988,-10.45518 -0.0386,-4.7824 -2.48221,-7.71967 -2.48221,-9.15611 0,-2.98621 2.41009,-5.78439 3.98304,-6.63182 9.13121,-4.9215 15.26505,-10.47063 22.86538,-14.78424 6.77693,-3.84653 13.75992,-8.20821 21.70197,-11.20043 5.08978,-1.91812 10.61401,-2.8746 16.59846,-4.08351 6.01621,-1.21491 11.19872,-2.66423 11.15149,-1.51714 -0.0781,1.87861 -9.42485,8.43832 -18.4204,16.24128 -10.52129,9.1252 -21.00908,19.60269 -22.40517,21.01251 -0.32026,0.32455 -5.95353,5.07261 -12.29515,10.55907 -7.46724,6.45839 -16.06441,13.63714 -18.37833,15.92788 -2.17913,2.15853 -3.72633,4.18225 -4.26553,3.00768 m -112.35983,2.11988 c -0.0824,-0.0112 -1.29906,0.6388 -2.40494,-0.44475 -1.4828,-1.45361 -1.22522,-3.14076 -1.32052,-4.43553 -0.0962,-1.29391 0.36318,-3.18369 1.85543,-4.89316 2.31393,-2.65136 5.67277,-4.30845 8.60832,-5.92863 2.98707,-1.64851 3.91093,-3.50481 4.67336,-1.40811 0.0738,0.20435 -0.53748,0.51173 -1.04749,1.13679 -0.74612,0.91269 -1.60043,2.34398 -2.44357,3.79072 -1.36689,2.34569 -3.33738,4.70341 -4.70427,7.06027 -1.70175,2.93555 -2.75954,5.18165 -3.21632,5.1224 m -12.637729,15.50203 c 0.3297,-0.58643 2.85399,-11.78772 4.426939,-12.9537 1.1634,-0.86289 1.60644,1.10931 1.77387,1.4476 0.33829,0.6843 1.07325,1.01143 0.92042,2.53459 -0.4894,4.86998 -4.080069,9.27974 -6.217979,10.89134 -0.32799,0.24727 -1.48882,-0.88179 -0.90325,-1.91983 m 258.401679,1.58583 c -0.39496,-2.23322 0.85001,-4.09294 1.26472,-5.22544 1.13077,-3.09353 8.78262,-7.76947 8.78262,-8.79893 0.80279,0 6.72455,-4.88887 6.72455,-5.66934 0.55981,0 9.81122,-8.46665 9.81122,-8.79807 1.02775,0 6.72456,-7.85276 6.72456,-4.67508 -0.0601,0 -8.26832,10.07653 -8.26832,10.34441 -0.23182,0 -8.78262,9.13465 -8.78262,9.86532 -1.01315,0 -10.83295,12.51324 -11.39104,13.43709 -0.33743,0.55895 -0.54264,2.15594 -2.36974,2.48994 -0.53405,0.0979 -1.2982,0.29364 -1.67341,-0.11763 -0.62764,-0.68602 -0.71693,-2.25297 -0.82254,-2.85227 m -177.36959,20.62443 c -0.64824,-0.21293 -0.19318,-3.80188 0.24384,-6.47384 0.67744,-4.14275 3.41809,-11.48635 5.2615,-14.99545 2.81879,-5.36453 6.78123,-10.63033 10.12462,-15.27364 5.05973,-7.02764 8.46322,-12.74248 9.03161,-13.05415 0.75728,-0.41556 2.87459,2.81106 5.93722,5.96641 1.57381,1.62104 3.86627,2.83681 4.97215,4.69225 1.84427,3.09096 1.54977,6.99759 -2.39292,10.47406 -2.37918,2.0967 -6.61293,3.6937 -9.87905,6.85506 -4.22259,4.08608 -8.56196,9.5442 -12.57591,13.60795 -5.16191,5.22373 -9.61117,8.56626 -10.72306,8.20135 m -94.684689,1.61159 c -2.69171,-1.65709 2.71489,-45.65519 3.89203,-48.25675 0.80451,-1.77473 0.78992,-29.69296 3.43956,-27.83495 1.85457,1.29992 2.53287,9.71248 5.13442,17.09472 1.36346,3.86628 3.32021,7.48699 4.19169,10.83038 0.580409,2.22893 0.145959,3.63274 0.148539,4.96958 0.005,2.73636 -4.760079,16.25072 -4.936949,16.25072 0,5.61009 -7.49301,29.64317 -11.86929,26.9463 m 238.189379,23.26635 c 0,-1.14108 6.12611,-10.34442 6.72455,-10.34442 0,-1.15653 10.75311,-16.05066 10.83983,-16.05066 0,-0.42845 5.42721,-8.11721 5.69595,-8.28292 0.16485,-0.10217 2.09069,0.44991 0.64052,5.12069 -0.19319,0.6242 0.26874,2.2461 -0.7281,3.66966 -0.95734,1.36603 -2.76469,2.39206 -4.44497,4.12643 -1.90523,1.96534 -3.73319,4.69053 -5.54827,7.09976 -5.34736,7.0929 -10.79089,14.66146 -13.17951,14.66146 m -103.54545,0.55465 c 2.14393,-1.68028 4.16078,-2.41867 5.44954,-2.22635 1.71977,0.25758 2.18084,3.34597 2.31049,5.08893 0.21637,2.90464 -1.09815,5.22458 -3.52541,7.58573 -2.35085,2.28645 -5.20741,1.91467 -6.77779,0.23182 -1.04577,-1.12047 -1.18572,-4.05174 -1.14795,-5.35852 0.0781,-2.67626 1.7318,-3.78557 3.69112,-5.32161 m -80.64228,10.45432 c -0.52718,-2.12676 0.1846,-2.26585 -0.29965,-3.49193 -0.70835,-1.7919 -2.95359,-4.23376 -6.96668,-4.78841 -0.77704,-0.10733 -2.02802,-0.69633 -2.30964,-1.14623 -3.54344,-5.67878 3.8534,-5.52595 6.72456,-6.73658 2.16968,-0.91355 5.01594,-0.49112 8.03563,-0.47738 3.20945,0.0146 14.26478,-0.91527 17.84858,-2.441 0.71092,-0.30309 -3.50051,5.05544 -3.92037,5.01079 -0.13566,-0.0146 -6.56571,6.64642 -7.48527,7.22168 -1.18058,0.74012 -5.0563,3.61385 -5.69595,4.63816 -0.54693,0.87663 -1.94387,1.91382 -2.8102,2.95101 -0.92901,1.11103 -1.33512,2.18514 -2.10271,1.85543 -0.49456,-0.21207 -0.7135,-1.36603 -1.0183,-2.59554 m 62.00637,5.7509 c -0.255,-0.59415 -0.12192,-1.66654 -0.22152,-2.74151 -0.0876,-0.94961 -0.43531,-1.89407 -0.27732,-2.61787 0.23182,-1.05522 1.7979,-1.24497 2.81363,-2.08726 0.84057,-0.69632 9.06252,-5.90373 9.1355,-4.05774 0.0601,1.50942 0.14167,3.81562 -0.46622,5.74231 -0.0361,0.11506 -2.05806,1.74468 -4.46901,3.1296 -2.90894,1.6717 -6.31243,3.10384 -6.51506,2.63247 m -2.866,6.02651 c -0.2593,1.35573 -0.86032,1.67427 -1.39952,2.23494 -0.92386,0.96335 -1.81766,1.40896 -2.9304,1.25871 -0.668,-0.091 -1.55922,-0.14854 -2.17913,-1.1325 -1.96534,-3.11672 -1.61331,-6.7838 -0.27561,-8.42029 1.09385,-1.3377 2.67797,-2.52256 3.82249,-2.31221 3.75122,0.69032 3.52111,5.44782 2.96217,8.37135 m 26.59685,8.68217 c -1.28275,-0.0223 -3.49193,-4.97903 1.94644,-4.3222 0.46708,0.0575 1.02861,1.67427 0.62506,2.99909 -0.37864,1.24669 -1.18916,1.34715 -2.5715,1.32311 m -5.36539,-3.18198 c 0.86632,0.18031 0.86632,1.98766 0.86976,2.61015 0.012,2.0469 -0.98911,2.4058 -1.7421,2.64105 -0.88093,0.27304 -2.07781,0.37435 -2.76813,-0.44819 -0.6096,-0.72637 -0.78476,-2.30877 -0.55723,-3.17424 0.27733,-1.05093 0.80537,-2.33368 4.1977,-1.62877 m -14.08791,9.35273 c -0.0756,1.90867 -0.97881,2.18085 -1.86574,2.26585 -2.07094,0.19662 -2.32767,-0.85345 -2.23064,-2.9905 0.03,-0.65426 -0.249,-1.60645 0.40697,-2.1611 1.16255,-0.98481 2.52944,-0.53577 3.22147,0.36748 0.55551,0.72638 0.49026,1.95761 0.46794,2.51827 m -8.64868,3.81648 c -0.43274,-2.68828 0.87835,-3.21803 1.45618,-2.99394 0.65426,0.25415 1.22952,1.20118 1.23896,1.28876 0.25587,2.4161 -2.45645,3.19142 -2.69514,1.70518 m -9.33556,5.66418 c 0,-1.67684 -0.5143,-2.08038 -0.5143,-4.15991 -1.09987,0 -4.13158,-34.16198 -1.0286,-34.16198 0,-2.43928 1.40467,-8.79807 3.60097,-8.79807 0,-1.6468 10.32552,-4.43467 10.32552,-5.66934 0.96335,0 8.26832,-4.71543 8.26832,-5.19024 1.09128,0 9.81122,-5.62984 9.81122,-6.22141 2.88661,0 6.04454,-4.63902 8.81868,-4.63902 0,-0.74698 7.58659,-3.6439 8.78262,-3.6439 0,-0.23611 2.57237,-2.1319 2.57237,-1.03117 1.49739,0 0.56324,0.51601 2.05806,0.51601 0,2.08726 2.95873,25.87907 3.63789,25.87907 0,7.62694 4.11527,13.33062 4.11527,21.2409 -0.72552,0 -1.18229,4.123 -2.57237,4.123 0,2.9802 -13.44911,5.77752 -13.44911,6.73658 -1.64679,0 -15.50717,6.06944 -15.50717,6.22141 -1.26816,0 -12.38359,4.87084 -12.38359,5.15418 -3.03,0 -6.0497,3.12873 -9.81122,3.12873 0,1.0681 -5.51136,0.51516 -6.72456,0.51516 m -83.70749,5.1911 c -1.37633,-0.35117 -2.432409,-2.34999 -2.858279,-4.22002 -1.0887,-4.78068 -0.68173,-11.60484 1.068099,-18.1508 1.82453,-6.82759 5.50964,-12.57248 6.45667,-13.89043 2.09499,-2.91323 6.25147,-7.88624 9.39738,-11.05104 1.53689,-1.54548 2.52428,-3.02056 3.5091,-2.91753 1.00027,0.10561 2.61873,1.66139 1.00198,4.1582 -0.55208,0.85431 -2.12246,0.89209 -2.73635,1.62104 -0.6285,0.74698 -1.72665,3.36485 -1.91983,5.59807 -0.19834,2.30363 0.52804,4.22517 1.13507,4.98847 1.04663,1.31881 2.49251,3.09268 3.89804,3.92294 1.23982,0.73153 2.52428,0.52031 2.41095,1.59871 -0.067,0.63623 -0.37263,2.25726 -1.30593,1.5824 -0.67572,-0.48768 -1.597,-2.27099 -2.45817,-3.09611 -0.66971,-0.64137 -1.30422,-0.49026 -1.75928,-0.0799 -0.81567,0.73582 1.78074,2.2607 1.41584,4.56432 -0.36577,2.30362 -3.69456,5.38772 -4.45614,5.99389 -0.60102,0.47824 -1.33856,0.53061 -1.76013,0.95905 -0.89981,0.9127 -0.75041,2.1757 -0.38551,2.59298 0.50142,0.57697 1.95417,0.95991 2.12933,1.82109 0.27904,1.37891 -0.63021,3.29101 -1.68114,4.9275 -1.39265,2.16797 -3.83365,3.56577 -5.74403,5.386 -2.25125,2.14478 -3.63446,4.13158 -5.35767,3.69112 m 91.18075,22.67992 c -0.39238,-0.29965 -1.69059,-5.02023 -3.29359,-8.95863 -0.96164,-2.36201 -2.92955,-4.08436 -2.36631,-5.40575 0.48082,-1.12734 1.9662,-0.97794 3.0051,-0.1949 0.62421,0.47051 0.5933,1.39351 1.46907,1.77816 1.84341,0.8088 5.16877,-0.32713 7.82614,-1.6219 1.20719,-0.58985 2.50024,-0.82339 3.06091,-1.60729 0.48253,-0.67315 0.62334,-1.23811 -0.0575,-1.50599 -2.30019,-0.9041 -10.32209,-0.37177 -15.06843,-0.35117 -1.89493,0.009 -2.87287,-3.69455 -2.88919,-4.5231 -0.0232,-1.13507 2.37489,-0.42072 5.78525,0.0404 7.51189,1.01401 17.81423,1.40725 24.96637,0.21036 1.39179,-0.23268 6.56829,-3.45415 12.77768,-6.74516 1.16341,-0.61562 13.84751,-6.97183 21.23919,-10.63891 2.67283,-1.3274 4.58664,-2.13534 4.78756,-2.85141 0.2902,-1.03548 0.061,-3.57178 0.66198,-5.96985 1.41583,-5.6556 3.44212,-8.38509 9.07712,-6.38884 1.49568,0.52975 1.72407,0.52975 2.79817,2.14135 0.60102,0.89981 0.92643,2.39034 0.47052,3.59152 -0.48425,1.27845 -1.76099,2.27443 -1.34972,3.47218 0.66026,1.91639 2.781,3.26525 3.86026,4.82791 1.01315,1.46734 2.57409,1.60214 2.81793,2.67024 0.69632,3.05061 -1.80564,5.75691 -4.53083,6.4747 -3.50309,0.923 -8.19019,-0.66112 -8.22625,-2.39549 -0.0687,-3.3846 -15.7347,3.62673 -16.41901,4.01997 -1.19173,0.6843 -10.32552,4.75063 -10.32552,5.66847 -0.47223,0 -1.16169,0.30395 -1.46907,0.64395 -0.15454,0.17086 -1.05092,1.18745 0.18546,1.48967 1.39694,0.34001 3.63016,0.2447 6.07545,0.21122 2.77157,-0.0369 5.81702,-0.0962 8.22797,-1.17027 1.64078,-0.72981 2.68484,-2.1362 3.57778,-3.42839 0.65855,-0.95391 1.51543,-1.5369 1.48109,-2.90035 -0.0489,-1.95246 2.60156,-2.79131 4.98675,-2.79646 2.53974,-0.004 3.18369,1.49396 4.82447,3.82764 0.68774,0.97622 0.5392,3.40864 -0.2052,4.89659 -0.51001,1.01744 -1.52316,1.14709 -1.85286,1.83998 -1.06381,2.24009 0.64137,3.86284 1.94129,5.56802 0.78047,1.02431 1.46048,2.39206 1.18487,3.06091 -0.35031,0.84916 -0.73067,1.85973 -1.57295,2.3208 -1.30937,0.7195 -3.79673,1.18143 -5.57404,0.5246 -3.1356,-1.15739 -5.05457,-4.78841 -5.81272,-6.50475 -0.19404,-0.44046 -1.91468,-0.12879 -4.40204,-0.15713 -6.9289,-0.0773 -21.39717,0.0962 -27.97147,-0.39409 -1.53604,-0.1142 -3.14076,0.64309 -4.80215,1.41153 -2.00397,0.92643 -4.09209,1.99711 -6.24031,3.24465 -3.25581,1.89064 -6.78465,3.3889 -9.19818,4.1977 -0.7238,0.24212 -0.38723,1.89235 -0.63021,3.51683 -0.3546,2.37317 -1.78331,5.66246 -2.8308,4.86053 M 72.951821,346.61019 c 0,-6.16561 6.09778,-75.57655 6.68763,-75.57655 0,-7.81498 3.94956,12.40591 4.15219,12.40591 0,5.31989 9.27116,28.49264 13.44911,28.49264 0,9.55193 -14.99287,10.87331 -14.99287,16.56583 -6.66273,0 4.63043,13.98058 4.63043,8.24599 2.58868,0 14.992869,-7.68017 14.992869,-5.66933 -0.84658,0 -1.21492,1.54634 -2.058059,1.54634 0,1.19259 -11.39191,3.65592 -11.39191,5.70625 -3.61299,0 -9.29606,8.28292 -15.46939,8.28292 m 257.810959,18.62646 c 0,-0.42758 -3.4198,-2.07695 -4.70255,-3.35455 -0.63021,-0.62763 -2.10701,-1.72922 -2.49681,-2.19028 -1.9018,-2.24009 -4.62871,-6.47986 -6.35021,-8.83672 -3.94441,-5.39973 -10.25941,-7.21052 -12.91935,-14.63569 -0.47309,-1.32225 -1.19002,-1.94387 -1.94559,-3.06778 -1.27931,-1.9018 -3.7538,-5.90717 -5.46499,-9.94173 -1.6073,-3.79072 -2.47534,-7.63982 -2.96388,-8.84186 -0.69118,-1.70518 -3.46102,-13.64917 -3.15536,-13.8724 0.0773,-0.055 1.25527,-0.57698 1.24068,-0.17687 -0.10819,2.86429 2.49852,10.29719 2.08554,10.54532 -0.0489,0.0301 8.13952,19.78215 11.3816,24.40313 0.62763,0.89466 1.0432,1.38406 1.66826,2.37317 0.82683,1.30937 1.937,3.6293 3.65935,5.44095 3.29016,3.45672 7.62008,6.48844 8.09488,7.13582 0.81567,1.11275 4.71028,7.12381 7.05168,9.15697 0.35976,0.31253 1.33341,1.14022 1.70948,1.41068 0.27475,0.19576 3.1648,1.33942 3.36142,2.52944 0.0661,0.39667 0.79592,1.9224 -0.25415,1.9224 m -35.64306,-2.06064 c -0.33486,-0.49798 -0.85774,-1.62447 0.085,-1.62962 3.70228,-0.0249 15.90471,3.99335 16.48169,5.05115 0.0137,0.0275 -2.56121,1.03117 -4.91206,2.32938 -2.28215,1.26042 -3.2352,2.60842 -4.38658,2.79045 -1.93872,0.30652 -4.56174,-1.66139 -5.92005,-4.05002 -0.89981,-1.58326 -0.69632,-3.52283 -1.348,-4.49134 m -79.59222,8.79808 c -0.42415,-0.0919 -4.21229,-2.60242 -6.24718,-6.64986 -1.61159,-3.20687 -3.61556,-5.94752 -4.98331,-8.53878 -2.37317,-4.4982 -3.71259,-8.37049 -5.14473,-11.28028 -1.263,-2.56636 -2.71146,-4.33593 -3.40092,-5.81187 -2.6608,-5.69938 -0.30394,-3.90491 2.42297,0.37951 1.93099,3.03257 3.00854,7.99013 5.15933,11.85125 1.57381,2.82565 3.2043,6.3442 4.63902,7.8373 0.14853,0.15369 2.68827,3.47476 4.26552,4.28957 0.33571,0.17258 0.51516,-1.46907 2.34484,-1.20891 2.14049,0.30566 2.35428,0.80279 2.57151,1.41669 0.4147,1.17027 -0.88866,2.76383 -0.89552,4.24492 -0.009,1.71033 0.53662,3.74521 -0.73153,3.47046 m 3.63703,1.03032 c -0.18288,-2.26413 -0.54521,-4.20457 -0.39839,-6.04111 0.10131,-1.25613 0.59243,-2.46762 0.91355,-3.78729 0.34516,-1.42098 0.94274,2.77586 0.96077,3.00768 0.20692,2.60156 0.0644,4.41406 0.0258,7.19593 -0.0112,0.8191 -0.69461,1.59957 -0.38122,2.64792 0.0704,0.23697 0.3795,5.1619 -0.98739,1.73866 -0.56066,-1.40381 -0.0807,-4.1084 -0.13308,-4.76179 m -83.51345,7.99013 c 5.24776,-1.36947 10.89564,-7.50073 16.29881,-6.55198 1.12562,0.19834 3.29273,0.43789 3.63359,1.48882 0.16056,0.49541 0.92385,1.76785 0.0232,2.37145 -0.34258,0.23096 -2.80075,0.11333 -4.21057,0.28591 -3.46789,0.42587 -6.99416,0.9582 -8.15842,1.23467 -2.25211,0.53233 -4.05946,1.49053 -5.38771,1.92756 -0.85002,0.2799 -1.56266,0.21551 -1.8769,0.11848 -0.67744,-0.20949 -0.76759,-0.75814 -0.32198,-0.87491 m -23.15472,-17.99626 c -0.18804,-3.31419 -0.31511,-10.49982 1.21663,-15.61965 3.76153,-12.57248 2.82566,-4.25093 2.60242,0.96249 -0.0996,2.31307 -0.50314,4.49134 -0.68173,7.32558 -0.4044,6.41803 0.3795,13.5135 1.80478,19.22491 0.92385,3.70143 2.55691,7.86907 2.09498,8.17731 -0.93244,0.62248 -1.4828,-0.58728 -2.85742,-3.37258 -1.41755,-2.8746 -3.6542,-7.47583 -4.17966,-16.69806 m 196.03555,13.09881 c 1.69316,-0.56926 4.8219,-3.12445 5.52767,-1.23725 2.02372,5.41176 -5.38085,11.07251 -6.26263,10.08684 -1.7919,-2.00483 -3.86971,-3.60355 -2.57838,-5.78525 0.9436,-1.59185 2.74495,-2.87288 3.31334,-3.06434 m -84.73695,4.67507 c -0.66885,-1.87175 -0.39582,-3.6894 -0.34344,-5.55428 0.0661,-2.39807 0.0455,-4.83649 0.1305,-7.13583 0.085,-2.29332 0.22496,-4.65103 0.7281,-7.00445 0.18116,-0.85174 1.07582,-0.79593 1.35401,0.53233 0.24213,1.15138 -0.0678,3.43096 0.24384,5.54999 0.42759,2.91495 0.31768,6.40859 0.57355,9.28146 0.15798,1.7713 -0.11677,3.54516 -0.24556,5.03999 -0.26188,3.01368 -0.78476,4.82619 -1.93529,2.72605 -0.31854,-0.58213 -0.0884,-2.2667 -0.50571,-3.43526 m 71.83906,-4.15906 c -0.18202,0.62335 -6.20596,-9.16813 -6.21025,-9.31409 -0.0361,-1.28962 -0.91956,-1.79877 -1.43558,-2.75525 -1.06209,-1.97478 -1.85801,-3.18197 -1.71549,-4.03456 0.0644,-0.38723 -0.11333,-0.9934 0.73239,-1.05178 2.46075,-0.17172 4.49391,3.49278 6.72026,7.38138 0.0884,0.15369 1.31967,1.85028 2.22378,4.07749 0.79849,1.96448 1.20719,4.3428 2.27958,6.44122 1.09815,2.14908 5.10781,6.58031 4.63472,8.6959 -0.53405,2.39206 -2.3809,1.38836 -3.82249,-1.13936 -1.85285,-3.24808 -3.31505,-8.61519 -3.40692,-8.30095 m -83.19319,13.47316 c -0.57784,-0.14768 -8.252,-2.58782 -16.92215,-5.28812 -3.59066,-1.11876 -7.78578,-2.19029 -11.3816,-3.27127 -3.96673,-1.19345 -8.69933,-1.18143 -12.06505,-2.42211 -8.92772,-3.29273 -6.90314,-5.48216 -2.08639,-5.76636 4.96957,-0.29278 12.91506,1.38063 15.10535,1.90867 4.96614,1.19603 9.27202,3.34854 11.84267,3.94183 1.25184,0.28935 2.82908,1.52058 5.4959,2.5758 3.65334,1.44503 8.61776,2.95273 10.88103,4.8468 2.42812,2.03231 1.74554,4.14446 -0.86976,3.47476 m 83.70749,1.54633 c -0.0515,-8.5e-4 -2.39635,0.003 -3.88259,-2.38089 -1.11961,-1.79705 -1.4081,-4.37457 -2.43928,-6.43779 -2.9802,-5.95782 -10.92654,-14.33346 -12.5098,-21.81531 -0.64138,-3.03171 -1.43386,-3.37258 -0.56754,-3.34768 0.72724,0.0197 2.49853,-0.0841 3.8139,0.84057 0.75815,0.53491 2.57237,2.8849 4.54286,6.17763 2.23407,3.73233 4.7223,8.65726 7.05941,13.20441 3.76238,7.32042 6.82501,13.7874 3.98304,13.75906 m -132.17889,-1.50083 c 0.0652,1.50427 -0.38036,1.79018 -1.30336,1.9018 -0.90754,0.1099 -1.8623,0.34945 -2.01857,-0.003 -0.54349,-1.22523 -1.34371,-3.46961 -0.52203,-4.24922 0.45077,-0.42672 1.08356,-0.0326 1.7215,0.0146 2.48564,0.18117 2.05205,0.70577 2.12246,2.33625 m 7.09461,0.32455 c -0.10303,-0.51001 -0.0404,-1.48881 0.23096,-1.73866 0.42758,-0.39152 1.25613,0.29278 2.25125,0.70319 0.77446,0.32026 1.72235,0.2344 2.1963,0.89638 0.74097,1.03633 0.56152,2.6754 -0.57183,3.39233 -0.67228,0.425 -1.2029,-0.29622 -1.94644,-0.47395 -0.65512,-0.15626 -1.54291,0.29278 -1.87862,-0.26445 -0.42415,-0.70062 -0.14854,-1.85887 -0.28162,-2.51484 m 114.35264,2.67712 c -0.43188,-0.81653 -0.76587,-2.28817 -1.43129,-3.6937 -2.19372,-4.63386 -5.02538,-11.87186 -7.94205,-18.30278 -2.07867,-4.5832 -4.92063,-8.15498 -6.09005,-10.77285 -0.759,-1.69745 -0.82683,-2.57924 -0.47223,-2.89091 0.59158,-0.51773 2.35686,0.55208 4.05002,2.08039 1.73781,1.56866 2.53115,3.74436 3.5091,5.16877 0.29106,0.42243 4.32477,10.86387 8.16185,18.88062 2.6256,5.48559 5.37398,9.13207 5.25034,9.5751 -0.96936,3.49107 -3.84224,2.21519 -5.03569,-0.0446 m -146.35781,0.0446 c -0.73583,-0.9187 -0.5332,-2.22119 -0.21466,-3.39404 0.25844,-0.9479 1.52831,0.8088 3.16395,2.22377 2.16968,1.87776 3.29101,3.28157 4.80386,1.17027 0.70406,-0.98223 1.85801,-1.20289 2.0864,-1.80391 0.0137,-0.0352 0.0197,-3.64047 1.20633,-3.62244 0.33142,0.005 1.0183,-0.47223 1.50427,0.42587 0.39324,0.72723 0.25672,1.91639 0.31597,3.1253 0.0464,0.93072 0.67657,1.54291 0.003,2.24868 -0.66541,0.69804 -2.55519,0.48253 -5.61267,1.17198 -0.7444,0.16829 -0.39667,0.43188 -1.16168,0.52203 -1.97393,0.23011 -4.91377,-0.589 -6.0952,-2.06751 m 43.94829,-1.54548 c 1.53175,0.25415 1.31538,-0.1056 3.04117,0.91012 0.88607,0.52203 0.72637,1.70346 0.43531,2.69944 -0.23784,0.81395 0.87319,1.08699 -2.37489,1.08699 -1.68715,0 -2.23923,-4.88544 -1.10159,-4.69655 m 94.08453,1.66998 c -0.87491,-1.518 -1.21406,-3.38975 -2.03488,-5.21342 -2.1817,-4.84765 -4.68023,-10.24395 -6.4498,-14.42019 -2.2066,-5.20826 -4.37629,-9.04105 -5.01594,-9.97779 -4.93266,-7.21653 -3.67223,-8.94231 -1.60988,-7.21825 1.04406,0.8732 2.47878,3.26354 3.8886,5.40489 3.15707,4.79528 4.68538,8.63151 7.36937,13.85952 2.43155,4.73604 4.3737,9.27288 6.46955,13.83978 1.02259,2.23064 2.68312,4.43466 3.29616,6.71682 1.24411,4.62872 -2.57065,3.12273 -4.76351,0.0446 -0.73067,-1.02517 -0.84315,-2.50196 -1.14967,-3.03601 m -80.67233,5.06574 c -0.18203,1.71634 -2.00398,2.49853 -2.76384,1.01401 -0.61132,-1.19346 -0.32627,-2.32423 -0.23096,-2.88833 0.0979,-0.57956 0.74956,-0.46708 1.52659,-0.49284 0.60445,-0.0206 1.32739,-0.33743 1.64937,0.24127 0.24556,0.44132 -0.0919,1.28275 -0.18116,2.12589 m 31.83345,-38.69367 c 1.32138,-2.19715 7.5282,-1.66396 9.63607,-1.91467 3.2103,-0.38466 2.36029,4.8571 2.51655,6.42833 0.40698,4.06633 1.38149,10.04391 1.87862,12.80774 0.9539,5.31473 1.45018,9.43601 2.17655,12.30803 1.23381,4.88286 3.44728,7.60376 1.87003,12.67294 -0.22924,0.73238 -4.49133,-2.7853 -8.57569,-5.74404 -4.9962,-3.619 -7.46725,-5.20483 -8.29065,-7.94376 -0.57526,-1.91039 -0.009,-9.10975 -0.37091,-16.01805 -0.2945,-5.62984 -1.6923,-11.17897 -0.84057,-12.59652 m -25.05567,41.60862 c -0.28419,-2.0718 -0.0919,-2.68399 0.20177,-2.79474 1.17629,-0.44476 2.12847,-0.0756 2.4307,0.75213 0.14768,0.4044 -0.10389,1.05436 -0.0867,1.5077 0.0146,0.41041 0.33314,1.13936 0.25672,1.35401 -0.15712,0.43961 -0.82425,0.10132 -1.11789,0.11162 -1.57296,0.0541 -1.59185,-0.24985 -1.68458,-0.93072 m 71.74891,2.75525 c -0.68945,0.20263 -2.82222,-4.24836 -4.76952,-8.92258 -3.24808,-7.79007 -6.77178,-17.36862 -7.09976,-17.98767 -1.24841,-2.35685 -10.86559,-17.92671 -8.78262,-20.68968 0.49283,-0.65168 3.14076,3.99163 5.4315,8.64782 3.13904,6.38026 7.1384,14.13857 7.95064,15.75617 2.68226,5.33791 4.80644,10.61058 6.15444,13.86639 2.17913,5.26493 5.23231,8.1172 1.11532,9.32955 m -27.58939,-11.3859 c -0.72981,-4.548 -0.96678,-10.32724 -1.90008,-15.69435 -0.82426,-4.73432 -2.22893,-9.23081 -2.68141,-12.71071 -0.39839,-3.06864 -0.30051,-5.19883 -0.2799,-5.8505 0.0386,-1.24841 1.15996,-1.92069 1.80048,0.009 0.5641,1.69659 -0.88436,1.19346 -0.23955,3.93239 1.23123,5.22716 3.97789,14.2665 4.03971,14.55327 0.22839,1.04062 0.93759,4.00108 1.26816,7.49729 0.24985,2.63419 0.067,5.52681 0.51773,8.40141 0.63537,4.03885 2.35428,8.41857 2.6608,10.83982 0.30566,2.42125 -0.80107,2.88404 -2.01942,1.3274 -1.13765,-1.45361 -2.19802,-6.27723 -3.16652,-12.30546 m -33.88723,11.90106 c -0.53662,-0.46279 -0.59157,-1.29992 -0.18803,-1.96276 0.69375,-1.13937 2.59641,-1.19603 3.10384,-0.35804 0.28935,0.47824 0.097,1.63821 -0.3297,3.31677 -0.17344,0.68345 -2.14822,-0.61905 -2.58611,-0.99597 m 94.14378,-3.89977 c -0.52718,-5.9561 1.49997,-1.76871 3.17939,1.06639 0.50829,0.85945 2.11559,2.99994 1.82624,3.69541 -0.0816,0.1949 0.3838,0.83284 -0.21207,0.61991 -0.26187,-0.0927 -0.72981,0.22925 -0.95476,0.13222 -0.97451,-0.41899 -1.41412,-1.3231 -2.15595,-2.22635 -0.58385,-0.71349 -1.52831,-1.53088 -1.68285,-3.28758 m -169.58381,6.51334 c -0.30995,-0.2404 -0.7839,-0.77445 -1.45017,-1.38148 -1.99882,-1.82195 -5.59636,-4.34452 -5.05544,-4.64932 0.75042,-0.42243 1.98079,0.80365 3.55804,1.34113 0.57354,0.1949 1.91468,0.32799 3.12273,-0.15283 0.77102,-0.30824 1.11961,-1.85286 1.84685,-2.18857 1.34113,-0.61991 2.50797,0.36233 2.95787,0.87062 0.41041,0.46364 1.07068,1.37633 0.95391,2.14049 -0.079,0.5246 -0.72638,0.41041 -1.02689,0.90582 -0.53491,0.88522 -0.84829,2.31135 -1.14279,2.79646 -0.17602,0.29107 -0.51431,-0.2696 -1.00542,-0.22667 -0.94017,0.0816 -2.35944,0.85517 -2.75869,0.54435 m 87.31018,1.9413 c -3.83794,-0.3941 -2.31736,0.56839 -3.54945,-2.82651 -1.02775,-2.83338 2.19029,-1.56866 3.24207,-1.34114 0.95906,0.20607 0.99082,1.62619 0.96593,2.26585 -0.073,1.92498 0.43616,2.01342 -0.65855,1.9018 m -143.107659,-23.59169 -0.53405,-0.36491 c 0.33571,-0.12707 0.94102,-0.13995 1.6777,-0.28162 1.28962,-0.24899 2.87717,-0.71607 4.37972,-0.80708 2.64964,-0.1597 10.46376,3.10298 12.742479,4.50765 3.27041,2.01513 6.08147,4.89402 8.86591,7.30926 2.60413,2.25898 5.83676,5.53625 9.08484,8.12235 2.4204,1.9267 5.95268,3.50653 7.60634,4.52311 1.24669,0.76673 0.98052,1.19689 0.87491,1.31795 -0.36318,0.41385 -5.82989,-2.26327 -14.5069,-7.42689 -5.92778,-3.52713 -11.62201,-7.26376 -12.555309,-7.82614 -3.55718,-2.14478 -7.53336,-2.99995 -9.97006,-4.55745 -1.61846,-1.03375 -2.63333,-2.0074 -2.79646,-2.28731 -0.61133,-1.04663 -0.46451,-2.16109 -1.15568,-2.14907 -1.7773,0.0335 -3.07293,-0.14253 -3.71344,-0.0798 m 281.796809,22.79497 c -0.90153,-6.52193 0.22667,-5.63328 1.63048,-3.79845 0.67486,0.88092 2.01256,2.13105 2.38691,3.21374 0.70319,2.02801 -1.02861,2.70545 -2.29676,2.44701 -0.86632,-0.17601 -1.64679,-1.32138 -1.72063,-1.8623 m -62.962,-5.84449 c 0.71436,-0.74097 3.05061,-0.33486 3.23692,0.67915 0.44304,2.40751 1.80822,3.54516 2.2212,4.3033 0.62936,1.15654 0.27475,1.81251 -0.44304,2.23666 -0.49111,0.2902 -1.25355,0.35116 -1.58755,0.86804 -0.64223,0.99168 -4.84851,-6.61379 -3.42753,-8.08715 m -120.6685,9.33899 c -0.18374,-0.0326 -2.00741,-0.42758 -2.92096,-1.84685 -0.4791,-0.74269 -0.8088,-2.35943 -0.16571,-3.30733 0.43703,-0.64395 0.23526,-0.38121 1.0286,-0.51601 2.49767,-0.42244 3.1296,0.29106 3.84138,1.47679 0.6285,1.04663 1.512,2.43842 1.04921,4.04744 -0.28505,0.98996 -1.78331,0.3297 -2.83252,0.14596 m 151.39522,2.61358 c -1.27416,-0.72809 -0.41556,-2.8849 -0.38379,-4.54715 0.0987,-5.20483 0.8045,-11.22619 1.42355,-15.70551 0.23698,-1.7172 2.2006,-12.66864 3.61729,-13.9823 2.1173,-1.96362 5.39887,-2.49509 8.62463,-2.97848 4.1479,-0.62163 8.16701,-0.76673 9.08828,0.43874 0.82941,1.08355 0.35117,2.90722 0.71178,4.76266 1.178,6.05828 1.27245,14.81342 0.71264,19.13733 -0.0584,0.45592 -0.70147,1.48452 -1.80134,1.97564 -1.71634,0.76501 -4.37113,1.00971 -6.31672,1.79362 -3.97446,1.60472 -6.6739,3.17166 -8.64181,4.37714 -3.33566,2.04432 -6.46526,5.05372 -7.03451,4.72831 m -36.15908,-8.79808 c 0.10303,0.009 3.30046,3.43183 4.14274,5.80414 0.32799,0.92815 0.83285,1.59099 -0.0275,2.47792 -2.67969,2.76555 -6.08061,-2.01599 -6.68077,-4.48447 -0.0464,-0.18975 0.21723,-1.89665 0.90668,-2.93126 0.47223,-0.70663 1.34457,-0.89724 1.65882,-0.86633 m -59.93286,-3.64475 c -1.62275,-0.71608 -0.23869,-1.16942 1.34457,-0.7281 1.4871,0.41299 3.12874,1.70003 3.28501,1.75842 0.65682,0.24298 3.14505,1.49482 5.03053,3.54344 1.30937,1.42184 2.05721,3.14333 2.68313,4.75493 0.42758,1.1033 0.97794,2.17655 0.89723,2.98878 -0.0859,0.85517 -0.0592,2.46333 -1.23638,2.71404 -1.83225,0.39152 -4.93609,-1.88635 -7.18476,-5.37827 -2.68313,-4.16593 -4.13416,-9.35102 -4.81933,-9.65324 m 50.43417,11.01068 c 0.759,-0.37349 0.21465,-2.00139 0.71693,-2.72777 0.34687,-0.50314 -0.0524,-0.29965 0.51344,-0.51602 1.48366,-0.56667 1.98938,0.2095 2.87975,1.24927 0.42414,0.49627 0.54091,1.6382 1.03547,2.44786 0.33914,0.55552 1.13507,0.73411 1.21492,1.31796 0.56839,4.1539 -1.18573,4.91634 -2.64277,4.29385 -0.78047,-0.33313 -1.10846,-1.37118 -1.76185,-2.25983 -1.24841,-1.69488 -2.4908,-3.54344 -1.95589,-3.80532 m -108.82412,7.10063 c -0.77016,-1.59099 -0.4894,-2.71919 -0.21465,-3.50223 0.64996,-1.84943 3.42152,-1.84256 6.03338,-0.6783 5.64959,2.51999 5.55343,4.17366 3.30647,4.73604 -0.55294,0.13738 -3.9341,-0.0859 -6.42662,-0.26187 -1.3978,-0.0979 -2.51655,0.0841 -2.69858,-0.29364 m 97.63484,1.54633 c 0,-0.53061 -6.68763,-3.14419 -6.68763,-4.12299 -0.4336,0 -7.10406,-5.18681 -7.23972,-5.1911 -0.30995,-0.009 -1.80735,-3.05318 -2.96904,-8.35246 -1.16168,-5.29928 -1.98851,-12.8541 -3.58122,-19.8474 -2.55605,-11.22791 -5.80928,-22.2738 -5.35509,-26.13578 0.11935,-1.02002 4.3471,8.93631 8.80752,19.23951 3.19829,7.39083 7.37194,15.37409 10.10916,21.59722 2.49252,5.66504 3.69541,9.89708 3.82936,10.40709 0.25672,0.97537 0.0901,3.72289 1.4785,5.95697 2.27014,3.65764 3.71946,6.44894 1.60816,6.44894 m -23.14957,-7.21567 c 0.66799,-1.72493 2.79818,-2.13019 3.47046,1.70518 0.30652,1.74811 0.49284,4.82276 -0.18803,5.52938 -0.40784,0.42587 -1.49053,-0.65339 -2.03145,-1.55664 -0.3194,-0.53147 -1.49396,-5.05286 -1.25098,-5.67792 m 31.93133,2.0615 c 0.0601,0.21207 0.57612,2.29847 0.98052,3.8242 1.14023,4.30674 -5.04856,-0.35288 -5.46155,-1.37376 -0.50572,-1.25184 -0.23182,-3.14076 0.56324,-4.18481 1.92412,-2.52772 3.47647,0.18545 3.91779,1.73437 m 32.15371,4.58836 c 0.26961,-0.71007 1.85802,-1.51973 3.33996,-2.0263 0.37692,-0.12965 1.00198,-0.4791 1.7275,-0.2447 0.49627,0.16056 1.29391,0.70148 1.09214,1.34972 -0.17258,0.5538 -1.21664,0.51172 -1.86144,1.04234 -0.26188,0.21551 -1.33513,1.08613 -2.46848,1.4124 -0.71607,0.2052 -0.72122,-0.0996 -1.06552,-0.47824 -0.23526,-0.25844 -1.01572,-0.3941 -0.76416,-1.05522 m -76.06509,2.14907 c -0.0687,-0.007 -4.57118,-1.65881 -9.31495,-3.7392 -3.53657,-1.55149 -6.59405,-3.4988 -8.83928,-4.82705 -1.58756,-0.93931 -3.07894,-1.48624 -2.68399,-1.7318 0.26359,-0.16571 2.95616,0.28592 6.10636,1.44073 3.61299,1.32397 7.7274,3.67739 11.13862,5.42035 3.5194,1.79791 6.26349,2.97419 5.17822,3.46359 -0.25844,0.11677 -0.91784,0.0412 -1.58498,-0.0266 m 70.8096,-1.03032 c 0.54006,-0.33657 1.1325,-0.007 1.46134,-0.0627 1.29391,-0.2198 1.07497,0.8234 1.88034,1.04235 0.15626,0.0421 0.50056,0.44217 0.39409,0.58298 -0.17687,0.23526 -0.98567,0.28764 -1.44588,0.69032 -0.57354,0.50056 -0.97537,1.2776 -1.99195,0.72895 -0.97537,-0.5246 -1.49053,-2.23923 -0.29794,-2.98192 m -41.05052,1.97908 c -0.61046,0.91698 -2.55434,1.4476 -4.20027,1.65881 -1.20032,0.15455 -2.22721,0.3692 -2.54747,-0.69375 -2.09927,-6.94521 0.29794,-5.87368 2.51656,-4.53684 0.38809,0.2344 4.76265,2.77414 4.23118,3.57178 m -187.841929,-39.02423 0.52804,0.36919 c 0.0197,8.6e-4 -3.41895,0.44133 -5.77323,1.70948 -2.28301,1.22951 -3.80703,2.97161 -3.76582,3.24207 0.15026,0.99684 1.4519,1.57296 2.35171,2.3457 1.60472,1.37633 3.32278,2.72262 4.67593,3.56834 3.48935,2.17998 7.67245,4.73346 11.45716,7.31441 9.174139,6.25662 17.066389,12.90819 17.906959,13.49805 6.67905,4.69225 14.1772,8.37393 14.01407,10.56164 -0.067,0.89981 -19.77012,1.01229 -21.83935,0.98567 -5.930349,-0.0773 -10.704169,-1.57381 -20.475889,-6.34247 -4.62785,-2.25812 -10.69215,-6.42233 -13.90674,-12.17667 -3.29874,-5.90631 -2.24696,-12.40076 1.17714,-17.74984 0.98309,-1.53603 1.5678,-2.84712 2.84883,-3.92294 0.82168,-0.68946 1.92498,-1.55063 3.37773,-1.96276 1.24841,-0.3546 3.83709,-0.41127 4.82791,-0.69547 l 2.59555,-0.7444 z m 220.880889,44.26249 c -0.96764,-1.23295 0.28849,-3.2747 0.66627,-3.88173 0.1743,-0.27904 2.6256,-0.34601 3.0051,-0.2447 0.82597,0.2241 0.80966,0.85002 0.84143,1.27245 0.067,0.88779 -1.14366,2.40494 -2.41095,3.00252 -0.86547,0.40698 -1.85114,0.17172 -2.10185,-0.14854 m -123.62381,-6.27636 c 1.51715,0.13566 5.78869,0.17 8.26231,2.04604 4.15133,3.15021 8.08801,6.47986 1.5369,5.99475 -2.72005,-0.20263 -5.73631,-1.25442 -8.6504,-1.88635 -2.2667,-0.49112 -4.60725,-0.44218 -5.8359,-1.39007 -1.43558,-1.10759 -1.00285,-2.19029 0.20606,-3.24122 0.87663,-0.76415 1.79533,-1.7627 4.48103,-1.52315 m 116.62708,6.85849 c -0.0489,-0.86546 0.90324,-1.09643 2.56292,-1.1033 0.97794,-0.003 1.09815,1.69746 1.06981,2.70717 -0.0154,0.54178 -0.25844,0.37778 -0.77531,0.75471 -0.17344,0.12535 -0.33572,0.2344 -0.48769,0.32713 -1.80048,1.08355 -2.22635,-0.14768 -2.36973,-2.68571 m 57.16558,1.91382 c 0.72981,-1.72321 3.41723,-3.97102 5.30358,-5.34135 1.0389,-0.75471 2.18685,-2.14478 3.52455,-2.74494 1.61245,-0.7238 3.04631,-2.9802 4.4278,-3.78814 1.61503,-0.94532 3.0652,-0.3795 3.22147,-0.18117 0.1451,0.18374 -1.59957,2.62903 -3.69628,5.42635 -0.98567,1.31538 -2.58953,2.20575 -3.85769,3.35627 -1.28532,1.16684 -7.30239,4.65275 -7.68275,5.44954 -0.18202,0.38121 -1.25613,-0.13566 -1.48967,-0.63365 -0.2198,-0.4688 0.14425,-1.29391 0.24899,-1.54291 m -101.57581,4.23891 c -0.0524,-0.004 -5.41261,-1.46048 -10.37876,-3.47733 -4.81245,-1.95589 -9.17328,-4.51967 -9.79491,-4.80644 -2.74151,-1.26472 -8.96292,-3.56491 -11.27685,-7.36765 -0.67743,-1.11446 -1.44502,-2.94328 -0.59243,-3.49192 0.58127,-0.37349 8.34044,3.12273 9.27631,3.51253 4.54886,1.89407 10.53331,5.73545 11.37559,6.31672 2.43671,1.68028 7.67159,4.27583 12.08566,5.74575 2.39377,0.79764 7.28264,1.15911 5.84792,1.29906 -0.0215,0.003 0.2198,1.80049 -1.42184,2.16453 -1.73866,0.38809 -4.27325,0.15713 -5.12069,0.10475 m 17.05094,0.5143 c -0.24127,-0.0335 -2.51141,-0.8045 -3.94785,-1.56179 -1.43557,-0.75643 -1.79619,-1.70775 0.3091,-2.04604 0.33314,-0.0524 3.00853,-0.59931 6.19394,-1.39523 2.16882,-0.54177 3.30905,-1.52745 4.80043,-1.73265 1.23467,-0.16915 2.96046,0.38036 3.4842,0.5143 2.0469,0.5246 1.09128,1.08527 -0.0592,1.91639 -1.3875,1.00285 -3.55976,1.69145 -4.09295,2.24353 -0.4396,0.45591 -1.51629,0.50399 -2.04347,0.78304 -1.58411,0.83627 -2.91924,1.51972 -4.64416,1.27845 m 21.68051,0.51602 c -0.0318,-0.003 -0.68173,0.079 -1.12048,-0.45248 -0.5641,-0.68259 -0.84143,-2.16281 0.0429,-3.60097 0.60016,-0.97708 1.52831,-0.47566 1.94216,-0.37349 0.0283,0.007 0.64652,0.16056 0.84057,0.75128 0.19318,0.58985 -0.0361,1.61674 -0.009,2.27013 0.0283,0.68431 0.30996,1.40553 -0.71865,1.40553 -0.32283,0 -0.65253,0.03 -0.97708,0 m -78.0124,0.5143 c -0.42243,-0.0996 -2.05892,0.14339 -4.28785,-2.87287 -2.16109,-2.92439 -4.39947,-9.42314 -4.94897,-12.06762 -0.34,-1.63392 -2.64277,-8.42373 -4.62785,-12.35869 -1.44846,-2.87116 -2.74752,-3.10127 -2.89606,-4.23719 -0.23783,-1.82367 1.59184,-0.69719 2.48135,-0.40526 5.27181,1.72664 10.37533,16.85431 11.93454,21.7947 1.54548,4.8923 3.37688,10.39249 2.34484,10.14693 m 71.80128,-1.54462 c 0.62077,0.72552 1.02775,0.59072 1.12048,0.91956 0.23439,0.83886 -1.34457,2.03574 -2.09842,2.60242 -2.56121,1.9267 -2.01084,1.92756 -5.3963,1.41497 -2.31908,-0.35288 -3.92123,-1.22179 -3.79502,-1.90437 0.17516,-0.93845 2.80162,-0.84143 4.91463,-1.5824 2.80419,-0.9831 4.52997,-2.30019 5.25463,-1.45018 m -70.59455,-11.02013 c -1.49482,-3.62672 -4.20456,-10.9171 -3.11586,-14.09134 0.31339,-0.91183 5.77666,5.47443 8.11892,15.79738 0.1348,0.59673 0.8981,3.54945 2.05292,6.4249 1.58154,3.94098 3.53657,8.02963 2.30705,8.37393 -1.6528,0.46364 -1.84684,-1.40381 -2.81277,-3.01626 -2.48736,-4.15133 -4.73604,-9.09 -6.55026,-13.48861 m -86.22233,12.01783 c 0.45935,-0.32713 0.32369,-1.16169 0.7736,-1.33513 0.93673,-0.35975 2.37317,-0.10389 3.53743,-0.17859 1.78503,-0.11505 1.49225,1.92756 -0.10217,3.51168 -0.99684,0.9891 -3.52885,1.93442 -5.05458,2.48564 -2.69686,0.97623 -2.6007,-1.24325 -1.40038,-2.93126 0.54522,-0.76587 1.66912,-1.14279 2.2461,-1.55234 m 118.60014,5.22286 c -0.26445,-0.0841 -2.87202,-0.79592 -6.0497,-2.13534 -1.55149,-0.65339 -6.36995,-2.92525 -10.03016,-5.06831 -0.98653,-0.57698 -5.01509,-2.43585 -5.12155,-3.14076 -0.19662,-1.29649 -0.73153,-2.57409 -0.0773,-2.99137 0.59158,-0.37606 2.72177,0.72295 4.69397,1.43902 1.63392,0.59243 3.16137,0.77789 3.61385,0.92643 2.71231,0.88693 5.52251,2.55433 8.42372,3.78471 3.49966,1.48537 6.98214,2.59726 8.61262,4.38487 0.59501,0.65253 -0.75299,1.46391 -1.49311,2.80075 -0.40869,0.74011 -1.73093,0.26531 -2.57236,0 m -10.47492,13.03269 c -0.97881,-0.32198 17.07927,-11.3713 17.71463,-12.00151 1.49568,-1.48624 3.94441,-3.57521 5.65904,-4.67508 1.99195,-1.27931 5.08978,3.4739 4.63472,4.23891 -0.17086,0.28763 -2.59813,-1.64937 -4.59094,-1.79791 -0.93501,-0.0695 -2.48822,1.11532 -4.57633,2.5303 -2.69257,1.8228 -6.71597,4.04658 -9.88335,6.32874 -3.54859,2.55519 -6.4395,5.6015 -8.16614,5.99474 -0.3194,0.0721 -0.55037,-0.53834 -0.79163,-0.61819 m 51.81565,-8.90969 c -1.22007,-0.61734 -2.85399,-2.17655 -2.47706,-2.72692 0.9187,-1.33941 6.52192,-0.58127 11.58852,-3.55546 1.48881,-0.87405 3.14076,-3.4198 5.11211,-4.41406 2.57837,-1.29906 5.81444,-1.34028 8.5714,-3.0944 4.12643,-2.6256 8.30867,-5.32418 12.2402,-7.30239 1.29906,-0.65425 4.882,-2.96475 9.33814,-4.03456 1.05436,-0.25329 1.93013,0.2447 3.09181,0.37435 1.23725,0.13823 2.76298,-0.0944 3.9135,-0.61476 3.68941,-1.66998 6.67476,-4.03456 9.48066,-5.8505 2.93041,-1.89665 5.64272,-4.72659 6.53481,-3.80446 1.00456,1.04063 2.02887,2.66424 1.07668,3.87057 -1.014,1.28361 -4.08865,2.15766 -5.70797,3.46102 -3.98991,3.21546 -6.32702,4.81675 -10.71533,7.89569 -1.59012,1.11446 -3.18712,0.45419 -3.68425,0.23954 -0.1846,-0.079 -0.39496,-0.589 0.17344,-0.97451 1.08613,-0.7341 3.54,-1.62704 4.11269,-2.50453 0.59673,-0.91441 -1.41154,-1.23639 -2.24781,-0.89381 -3.05319,1.25184 -10.19073,6.10551 -15.78708,6.8482 -0.0206,0.003 -5.39974,1.40553 -10.63634,4.05259 -6.63011,3.35026 -13.44739,8.13781 -13.65603,8.26059 -3.34167,1.95246 -6.58117,3.20172 -8.29837,4.17709 -0.82426,0.4688 -1.04492,1.08699 -2.02372,0.59072 m -59.93372,-8.28292 c 2.96475,-0.0283 7.16846,2.09241 10.40538,3.88259 2.43842,1.34972 4.50679,2.31479 4.08522,3.13132 -1.22437,2.37145 -3.95042,3.42066 -6.51077,2.90636 -1.60472,-0.32198 -2.94414,-1.66225 -4.43123,-2.42812 -1.45189,-0.7487 -2.97934,-0.97967 -3.74092,-1.92584 -0.60703,-0.75557 0.0644,-1.42528 -0.006,-2.20661 -0.1099,-1.22178 -0.7633,-3.35025 0.19833,-3.3597 m 157.94291,11.96288 c -1.55664,-2.11474 -3.02914,-4.90175 -3.45758,-5.59979 -0.85517,-1.39008 -1.25442,-3.02657 -2.11989,-3.27299 -0.87233,-0.24899 -1.18229,1.17457 -1.76099,2.37317 -0.57783,1.19947 -1.42613,2.17398 -1.65366,2.0615 -4.6974,-2.31736 -3.07808,-12.40505 -1.70861,-13.1941 0.41899,-0.24127 0.21293,-1.89236 0.13394,-3.35713 -0.0695,-1.29305 0.0592,-2.44014 -0.64824,-2.34827 -0.19662,0.0249 -2.41525,1.22694 -4.61326,2.97419 -3.66451,2.91237 -7.99872,7.09461 -8.87106,7.42689 -1.94644,0.74011 -2.19286,-0.7839 -2.52342,-1.11017 -0.84487,-0.83456 1.70775,-2.61873 3.15621,-3.65678 1.07669,-0.77102 2.06837,-2.36544 3.55546,-3.57349 1.38407,-1.12391 2.80763,-2.54575 5.97586,-4.78584 4.10582,-2.90292 10.69901,-3.43783 15.70379,-1.39866 1.49311,0.60875 6.01192,2.66939 5.3113,5.31731 -0.13651,0.51516 -0.9891,1.99797 -2.18943,2.55606 -2.14049,0.99425 -4.94296,1.16683 -3.60698,2.75267 0.61219,0.72637 2.65394,0.5598 4.61756,0.93845 4.02082,0.77617 9.18444,1.88634 11.37387,3.9341 4.06805,3.80446 3.02656,9.54162 -0.14768,11.92596 -2.17226,1.63134 -5.85737,0.97794 -8.86676,1.17542 -1.69488,0.11076 -3.66708,1.60558 -5.05973,1.55407 -1.08355,-0.0404 -1.63392,-1.38063 -2.6007,-2.69257 m -260.24424,3.05661 c 0,-2.88661 0.0472,-4.2578 2.15337,-6.82243 1.80735,-2.20231 4.77382,-4.07664 6.62839,-3.52198 0.98052,0.29364 0.70835,0.97451 0.67916,1.66912 -0.0438,1.04663 -0.53234,2.57065 -2.02458,3.91178 -0.89552,0.80537 -2.63333,1.43129 -3.50824,2.16796 -1.14022,0.95906 -1.41927,1.93958 -2.35858,2.40151 -0.59501,0.29192 -1.22779,0.19404 -1.56952,0.19404 m 86.42239,-5.0769 c -3.35026,-1.57639 -7.18477,-2.9802 -11.10943,-4.33078 -1.65452,-0.56839 -9.79577,-3.87572 -18.29247,-5.75863 -7.67417,-1.70088 -15.82142,-1.92841 -18.45819,-2.25726 -0.60788,-0.0764 -0.69374,-0.66198 -0.67314,-0.69804 0.70148,-1.25785 2.79904,-1.63735 5.08206,-2.11387 2.84282,-0.59415 6.13383,-1.10073 9.23853,-0.85345 3.95557,0.31511 7.06542,1.41411 7.20881,1.43129 2.92611,0.34687 14.52665,6.21712 14.51978,2.78787 -0.004,-2.09155 -1.10416,-4.15992 -1.97907,-6.19909 -0.13738,-0.31854 -3.13818,-5.68565 -5.9106,-11.6907 -3.34511,-7.2483 -6.49016,-15.33803 -5.60151,-15.45308 2.10786,-0.27132 3.18712,2.96131 5.22372,7.34017 1.34886,2.89949 3.63446,6.22056 5.05802,9.65238 1.09299,2.6359 1.78159,5.2967 3.08151,7.60805 1.44073,2.56207 0.96421,5.51479 1.7026,7.41573 0.82168,2.11473 2.67454,4.10325 3.0798,4.11527 0.0635,0.002 4.38487,0.18718 10.09971,2.48994 7.65271,3.08495 16.76245,7.28179 18.18515,9.05394 0.62335,0.77617 -0.56238,2.00311 -2.11301,2.74924 -2.82651,1.3583 -3.02743,1.77301 -3.55117,2.04089 -0.60446,0.30995 -3.77441,-2.14736 -14.7911,-7.32987 m 4.4879,12.84466 c -0.70577,0.20005 -2.27014,-0.84572 -3.35026,-1.25614 -4.44926,-1.68972 -10.91538,-5.40145 -14.21498,-6.51162 -2.01771,-0.67829 -10.89821,-4.09123 -20.06205,-6.05055 -11.78257,-2.51828 -25.08228,-2.79303 -24.9449,-3.53658 0.84314,-4.57719 1.68028,-5.56887 6.55712,-5.40918 5.70368,0.18718 15.83001,2.05721 21.23748,3.22319 10.74194,2.31822 22.15359,5.95782 30.04069,10.11602 1.4227,0.75042 8.09746,2.52858 9.90138,4.98933 1.23466,1.68457 -3.28758,3.90319 -5.16448,4.43553 m -84.73695,-8.28206 c 0.2902,-0.34687 2.21948,-1.51028 3.42324,-1.49826 0.9187,0.009 2.44872,3.14162 2.26241,4.03113 -0.23183,1.11103 -1.69917,3.67309 -5.89601,6.12525 -1.2982,0.75901 -2.45044,1.57038 -3.22404,1.20376 -2.23408,-1.05951 -1.36346,-4.18138 0.0532,-6.25147 0.78991,-1.15567 2.39464,-2.4367 3.38117,-3.61041 m 73.89712,13.98831 c -0.87834,-0.16313 -4.9876,-2.08983 -10.37961,-4.17365 -9.94001,-3.84052 -18.67026,-6.23945 -29.36584,-7.59174 -2.91581,-0.36834 -6.4996,0.50657 -8.31812,0.32197 -3.24121,-0.32798 -3.89976,-1.40724 -4.11698,-2.03059 -2.09756,-6.02222 0.93072,-5.42206 10.57451,-4.42522 4.38402,0.45334 9.93572,0.64652 14.62196,2.21862 4.10754,1.37719 8.98697,1.95589 13.91276,3.48506 9.22651,2.866 18.25641,6.52364 20.14447,7.08946 3.14934,0.94446 -0.56238,1.87604 -1.98079,3.06778 -1.82453,1.53088 -2.92353,2.44014 -5.09236,2.03831 m 61.09454,-3.39834 c -1.37805,-0.74269 -2.66337,-1.98508 -4.33764,-2.27357 -2.28903,-0.3941 -4.65705,0.66456 -6.22743,1.512 -0.85602,0.46106 -1.4682,0.56152 -2.41524,1.37891 -0.76415,0.6594 -2.58782,2.06579 -2.45044,0.88865 0.0206,-0.16743 0.62248,-0.70663 0.69804,-0.98653 0.0584,-0.22152 1.24239,-0.76587 2.52342,-1.73438 2.47792,-1.87346 4.75235,-3.11328 6.72198,-2.66423 1.20033,0.27217 5.19711,1.1737 7.73427,2.48565 0.39667,0.2052 2.45474,1.73866 4.31189,2.95444 3.24637,2.12417 2.05291,2.68226 0.58127,2.15079 -0.61905,-0.22409 -1.5326,-1.02259 -2.63676,-1.60472 -1.61245,-0.85173 -3.51339,-1.57382 -4.50336,-2.10701 m 22.09865,4.42952 c -0.67572,-0.11677 -0.66971,-1.34714 -0.4147,-1.75755 0.44132,-0.71178 1.40467,-0.63708 2.3414,-0.87578 2.2066,-0.55894 4.712,-2.3268 6.55713,-3.78642 0.96506,-0.7633 1.53517,-1.93958 2.59898,-1.97993 2.81878,-0.10819 4.8674,1.05951 4.59523,2.07695 -0.10647,0.39839 -0.008,0.95476 -1.20033,1.13164 -2.33109,0.34601 -3.48677,1.69745 -5.23488,2.73378 -1.66826,0.98825 -3.84567,1.85629 -6.30556,2.19458 -0.96249,0.13136 -1.83483,0.45248 -2.93727,0.26273 m -96.95483,1.77387 c -4.79957,-1.79619 -10.65437,-3.84138 -16.52976,-5.09751 -1.008,-0.21551 -4.89059,-1.33512 -8.94576,-1.76185 -5.21428,-0.54864 -10.71533,-0.41041 -10.76083,-0.57097 -1.16255,-4.08865 -0.4293,-3.80274 5.57059,-3.65763 0.085,0.002 7.77377,0.47137 14.39529,1.4682 4.67937,0.7032 8.82641,1.99711 9.38021,2.13878 4.03198,1.03633 9.82582,3.10469 13.75391,5.13528 1.15052,0.59415 2.73464,0.81997 3.33051,1.47078 1.19345,1.3025 0.34773,3.33223 -1.5824,3.61299 -1.70346,0.24728 -4.1187,-1.05607 -8.61176,-2.73807 m -61.52642,-1.99539 c 0.2988,-3.44127 2.66596,-4.66134 3.88174,-5.41605 1.1531,-0.71521 2.60756,-1.10845 3.72718,-0.42758 0.47137,0.28591 0.38379,0.94274 0.59758,1.39952 0.4688,1.00542 0.86891,2.06407 1.08871,3.28328 0.24899,1.38235 -0.6139,1.76529 -1.31709,2.71404 -0.48168,0.64996 -0.32455,2.05978 -1.92069,2.27529 -0.74956,0.10131 -1.95503,1.57553 -3.04975,1.26643 -0.65597,-0.18374 -1.24411,-1.88892 -1.74897,-2.45817 -0.54778,-0.61733 -1.38835,-1.14451 -1.25871,-2.63676 m 75.80151,7.47326 c 0,-0.98052 -1.0183,-1.54634 0,-1.54634 0,-1.59271 3.63788,-1.86574 3.63788,-3.12874 0.87921,0 3.60183,-1.25785 3.60183,-2.06236 0.87835,0 3.60097,-1.25699 3.60097,-2.06064 l 1.06552,0 c 0,-0.92385 4.62957,-3.04459 4.62957,-5.19109 0.97967,0 2.05807,0.14081 2.05807,1.03032 -2.22893,0 -2.13878,3.12959 -3.60097,3.12959 0,2.19287 -3.08667,2.45474 -3.08667,3.60784 -2.10958,0 -3.18111,2.06064 -5.69595,2.06064 0,0.92128 -2.57237,0.77875 -2.57237,2.06236 -1.89321,0 -1.73523,2.09842 -3.63788,2.09842 m 74.42259,-4.91463 c 0.68945,-0.70148 2.22635,-0.6388 2.75782,0.0687 0.43531,0.57955 -2.63075,2.97247 -3.11672,3.25667 -0.57183,0.33399 -1.64508,0.46965 -2.60413,0.87234 -1.51887,0.63794 -2.99222,1.50856 -3.5589,1.56351 -3.09268,0.30051 0.19233,-1.01401 1.94129,-2.39722 1.61932,-1.27931 2.75697,-1.50856 4.58064,-3.36399 m -114.11993,-3.18456 c 3.22233,0.14339 6.22743,0.0292 9.34501,0.64395 2.71918,0.53577 5.43837,1.09558 7.10663,2.18686 1.43815,0.94274 1.348,3.36743 2.18256,4.23375 2.03918,2.11645 2.03145,2.69171 0.45162,2.26842 -0.66713,-0.17944 -1.24497,-0.70147 -2.66423,-1.09385 -2.09327,-0.57956 -5.00907,-2.34055 -8.32499,-3.00854 -3.71774,-0.74698 -8.52332,-0.96249 -11.63059,-1.65538 -3.32794,-0.74183 -3.69628,-1.22007 -3.89118,-2.55261 -0.56324,-3.84224 1.75326,-1.27503 7.42517,-1.0226 m -24.49585,10.31265 c -0.003,0.88092 -0.0429,2.37231 -1.17027,2.64878 -1.23811,0.30394 -2.81965,-0.59845 -3.46188,-0.98739 -3.47218,-2.10271 0.4396,-7.51704 3.00596,-7.47068 1.34371,0.0232 1.63563,1.98508 1.62619,5.80929 m -46.376419,2.93984 c 0,-1.09986 0.51773,-3.60698 1.54376,-3.60698 0,-1.82795 2.60928,-2.4264 2.60928,-3.64475 1.505989,0 1.834829,-1.54634 3.600969,-1.54634 0,-0.6388 2.05807,-0.9788 2.05807,-2.0615 1.39866,0 1.73265,-1.03118 3.12358,-1.03118 0,-1.08012 2.57151,-0.33485 2.57151,-1.54548 0.4396,0 1.02946,-0.60531 1.02946,-1.03118 l 6.21026,0 c 0,1.67943 1.5429,2.46333 1.5429,4.123 1.28017,0 1.13078,2.57752 2.05806,2.57752 0,1.50427 -2.05806,-0.30223 -2.05806,-1.5472 -0.9685,0 -0.94618,-1.54548 -2.57237,-1.54548 0,-1.05436 -2.05806,-0.49198 -2.05806,-1.54548 -1.4725,0 -6.21025,-0.0498 -6.21025,1.54548 -1.512,0 -1.71892,1.03118 -3.63703,1.03118 0,1.093 -2.57237,1.3025 -2.57237,2.57666 -1.07153,0 -1.79791,2.61443 -3.600969,2.61443 0,1.75327 -2.09498,2.02201 -2.09498,3.09096 -1.18315,0 -0.61476,1.54634 -1.54376,1.54634 m 320.354819,0.51602 c -0.42587,-0.0438 -3.06263,-0.92213 -4.94554,-1.70689 -3.03429,-1.26472 -6.26692,-3.71259 -9.78718,-5.76207 -4.98074,-2.90035 -10.2929,-5.58605 -14.33089,-8.03392 -4.06376,-2.46418 -8.79893,-4.76265 -13.03355,-7.42088 -8.18761,-5.13786 -15.46167,-9.66268 -18.92955,-11.18927 -2.95702,-1.3025 -5.89258,-2.86945 -7.67159,-4.12472 -2.77328,-1.95675 -3.8182,-3.43182 -6.52107,-3.16909 -2.75954,0.26702 -5.72944,3.22232 -10.61745,6.70652 -4.25694,3.03344 -9.2746,4.82276 -13.46371,6.63183 -1.73008,0.74612 -3.12959,3.20773 -5.09064,3.07207 -0.93845,-0.0644 -1.76957,-0.32627 -2.43499,-0.81996 -0.51,-0.37865 5.50792,-3.14677 12.20586,-6.63183 4.29472,-2.23493 8.75429,-4.96528 12.32864,-6.89284 3.31076,-1.78503 5.35938,-3.6791 5.81616,-3.97274 2.33024,-1.49998 10.56163,3.959 21.04428,11.07851 6.53567,4.43897 15.85148,8.90626 22.52022,13.22931 7.5926,4.9215 18.02803,10.49639 26.262,14.94479 4.31876,2.33282 8.97065,4.30073 6.649,4.06118 m -234.11103,-2.49337 c 2.51141,0.61476 4.64417,0.83456 4.40118,1.74725 -1.05779,3.97618 -5.97242,1.63649 -9.01959,0.87234 -3.89633,-0.97623 -8.30695,-1.38922 -10.68098,-2.19802 -6.06,-2.06236 -4.73346,-4.80988 -1.23038,-4.69311 5.11984,0.16915 15.22899,3.95386 16.52977,4.27154 m 196.81945,1.81851 c -3.00252,-1.53346 -6.20853,-3.48162 -7.09117,-4.08178 -1.07669,-0.72895 -3.49966,-2.26413 -5.45469,-3.51168 -0.95047,-0.60617 -1.61932,-1.24754 -2.29675,-1.50941 -0.76673,-0.29794 -1.52058,-0.20263 -2.29247,-0.6783 -0.77274,-0.47652 -0.88092,-1.3626 0.76244,-1.4828 0.79936,-0.0584 2.78272,1.04577 5.26579,2.23408 4.27841,2.04862 10.04047,5.0271 13.78311,7.64239 0.9831,0.68774 2.12246,1.47336 3.12788,1.91297 0.7341,0.32111 1.30593,0.54778 1.19861,0.9144 -0.0893,0.30567 -0.74956,1.0329 -1.77988,1.02861 -1.09729,-0.003 -2.40837,-1.02946 -5.22287,-2.46848 m -86.7787,-184.684 c 0.55466,-1.82968 1.61331,-0.63021 3.98648,-3.86971 4.68968,-6.40516 11.9002,-17.85544 12.06505,-17.90438 0.40955,-0.12193 9.29349,-11.8547 18.21348,-24.8539 2.65308,-3.86627 4.89831,-8.58514 7.43891,-12.21616 3.77784,-5.39802 7.70937,-9.60945 10.04476,-12.83092 1.597,-2.20402 2.42812,-4.05517 2.5552,-4.43467 2.73378,-8.10604 1.42184,-7.04395 -0.9333,-9.70218 -1.06982,-1.20805 -3.115,-4.76609 -3.69542,-7.54108 -1.44502,-6.90486 -2.03488,-13.00607 2.41696,-15.4445 0.7281,-0.39925 1.22093,-1.31795 2.21176,-1.47421 1.11446,-0.17688 4.30673,-0.65254 4.63043,-7.2526 0.0155,-0.32455 1.25098,-13.88013 2.93297,-27.94829 1.75155,-14.65201 4.93781,-29.49978 5.84879,-30.78081 1.03289,-1.45017 1.40209,-0.87405 1.66053,2.36029 0.15626,1.9516 0.0824,4.72316 -0.0498,7.71367 -0.0781,1.79361 -0.54006,2.31221 -0.80451,3.50223 -0.76587,3.43955 -0.0592,7.31269 -0.0129,10.56764 0.0541,3.68855 -0.50657,6.58547 -0.79334,7.15987 -0.95648,1.92069 -1.03032,7.55826 -1.76443,13.56159 -0.96249,7.86477 -2.41352,16.5684 -0.86203,19.89548 0.94704,2.03144 3.24894,1.66225 4.25265,2.81449 1.0535,1.21148 0.74869,6.19136 0.74011,9.96405 -0.003,1.16512 0.0361,3.48076 0.75728,3.61728 0.81653,0.15541 1.33856,-1.25355 2.68055,-2.52428 1.52058,-1.43987 3.68426,-3.20945 6.22829,-4.95069 2.77843,-1.90008 9.20848,-7.63209 16.42158,-16.57957 2.42984,-3.01368 5.63585,-5.69766 8.67615,-8.70878 3.46531,-3.42924 8.73111,-6.07287 12.22046,-9.59227 1.20032,-1.21063 3.0549,-2.69515 3.97532,-4.27583 0.9788,-1.68372 1.02259,-3.46531 2.20231,-4.73432 1.26471,-1.36088 2.97934,-1.17113 3.98562,-2.62388 8.2168,-11.85384 17.4021,-19.88003 17.98509,-21.74319 0.16914,-0.54178 2.20403,-1.83139 3.87143,-2.69171 1.29734,-0.66885 3.79759,-0.70749 2.33882,0.59415 -0.91269,0.81224 -3.31763,4.26209 -6.58889,9.36046 -1.76271,2.74666 -5.31216,4.61755 -7.48013,8.16786 -1.99109,3.25839 -3.44985,7.54022 -5.57231,11.27256 -3.29359,5.79211 -7.51962,11.86413 -10.77972,17.94646 -11.96288,22.31673 -26.78661,62.25536 -29.56675,89.74001 -0.39324,3.8843 -1.82195,12.62657 -1.38407,22.054 0.68603,14.77908 4.3076,30.1111 6.80956,37.95613 1.43558,4.4982 3.21202,10.99866 5.29241,14.87009 5.24433,9.76057 14.96626,20.96616 17.22609,22.61467 0.86118,0.62849 8.9054,10.30921 17.98682,18.37661 8.26917,7.34618 17.81595,12.35182 20.1479,13.76508 1.41068,0.85431 11.26999,8.35074 8.97924,8.99383 -3.87572,1.09043 -24.29151,-15.90728 -40.90284,-17.86918 -0.36062,-0.0429 -1.22608,-0.11334 -2.48565,-0.20521 -5.60666,-0.40611 -19.02057,-2.79817 -30.44682,-3.47046 -4.95412,-0.29192 -9.65495,-0.95905 -13.06359,-0.73152 -2.9493,0.19576 -6.70224,0.63107 -7.36078,2.61701 -1.03719,3.1253 1.05608,9.74082 1.17628,11.13948 0.34945,4.03026 -0.76845,8.36448 0.024,10.24309 0.36319,0.8629 3.71259,2.06837 5.34908,3.90577 1.85457,2.08211 2.01771,4.77124 2.38004,4.99362 1.81937,1.11704 2.97934,0.16056 4.46042,0.79163 4.81332,2.05463 3.4387,5.97586 5.23918,7.13239 4.30674,2.76384 7.65356,2.16968 10.18987,3.97103 1.87861,1.33512 2.69428,3.27641 3.71258,5.22372 0.66027,1.26386 0.88865,2.73464 1.62619,3.74521 0.56238,0.77017 0.88865,1.60473 1.8065,2.11216 2.34483,1.29648 5.92519,1.76356 7.75144,3.23606 2.47276,1.99367 4.38487,7.66129 4.35567,12.1303 -0.0343,5.47615 -3.58808,9.08571 -5.85736,11.9354 -1.03118,1.29563 -1.42099,2.52858 -1.75584,3.54344 -0.45163,1.37205 -0.59845,4.1333 1.31108,6.0248 3.72804,3.69284 12.11571,5.65388 20.62701,9.83183 9.34758,4.58664 19.32966,10.27572 27.14979,13.60194 6.42061,2.72949 13.89644,4.68538 20.88888,4.7472 2.64105,0.0223 6.34162,-0.57526 8.06397,-3.26955 8.45893,-13.23274 -15.1955,-19.13304 -15.02035,-10.72563 0.0979,4.712 4.32305,4.04057 6.78294,2.33024 0.38551,-0.26874 0.93759,-1.22866 0.97022,-1.81937 0.0833,-1.47594 0.64051,-3.32107 1.06724,-1.8065 0.44218,1.56952 1.68371,5.75262 -0.22066,7.92574 -1.23124,1.40467 -3.41036,2.9304 -5.78525,3.43268 -2.68999,0.56839 -5.59807,-0.0747 -7.04567,-1.84771 -1.68457,-2.0615 -2.34827,-4.93952 -2.49338,-5.63842 -0.2404,-1.14623 -1.09299,-3.80188 -0.82683,-5.54828 0.66885,-4.40547 5.77924,-7.84159 12.03328,-8.04336 6.85592,-0.22238 13.66891,3.1545 17.74726,7.92402 1.35917,1.59013 2.40323,2.88747 3.30046,4.70427 0.69289,1.40467 2.44358,6.23172 1.81852,10.07653 -1.14366,7.04653 -2.63676,11.57307 -7.47841,14.23215 -1.61588,0.88779 -3.63875,0.47223 -5.80585,1.34199 L 43.774871,509.17236 c -2.89348,-0.22152 -4.22431,-0.63193 -4.43037,-0.64567 -1.06982,-0.0687 -3.13303,-2.08296 -3.83966,-4.78584 -0.51087,-1.95245 -0.0446,-4.38658 0.41642,-6.81642 0.46107,-2.42984 0.91784,-4.85538 2.79732,-6.14844 1.41325,-0.97279 3.36228,-0.43015 5.76979,-0.39839 0.0807,8.6e-4 1.77644,0.83628 2.34827,2.08812 0.27905,0.61218 0.7487,1.13936 -0.25329,2.0718 -0.58642,0.54607 -2.02887,0.66971 -2.26327,1.09472 -1.64336,2.97075 8.35075,3.29273 11.76197,0.41642 4.2784,-3.60526 6.30985,-4.54715 7.64154,-7.20194 0.81309,-1.61932 0.94703,-3.35627 1.51628,-4.57548 0.88865,-1.90094 2.14479,-2.82823 3.37688,-2.29761 0.79077,0.34086 0.95562,1.74038 2.6857,3.49536 5.50448,5.58519 16.01975,13.95912 23.09033,7.00446 1.85371,-1.82367 3.76839,-3.87744 3.56319,-5.88485 -0.21981,-2.14993 -2.91667,-3.19399 -6.07632,-1.82109 -1.11188,0.48339 -1.61073,1.8872 -3.21116,3.10985 -1.92412,1.46992 -4.16764,2.38519 -4.15133,1.80735 0.0266,-0.9436 1.56007,-3.16136 3.09439,-6.2652 2.00054,-4.04572 4.47503,-9.33298 8.43231,-12.56046 4.292999,-3.50051 8.335289,-6.1347 12.797439,-7.38396 2.85913,-0.80193 5.99302,-0.37435 9.14065,-1.4124 0.13995,-0.0464 0.27475,-0.0927 0.40354,-0.14081 0.37006,-0.13651 -0.89122,-8.90969 -0.8938,-9.71162 -0.0154,-4.88629 0.0833,-9.99496 1.7919,-14.39357 1.66053,-4.2724 5.11039,-6.92203 1.04406,-7.00704 -2.95359,-0.0618 -11.02443,1.28619 -18.77758,1.01744 -10.291179,-0.35546 -17.937019,-4.37714 -20.351399,-5.09836 -9.83011,-2.93899 -21.52167,-11.25539 -27.74051,-19.39234 -2.54918,-3.33566 -3.9238,-6.82072 -5.5062,-9.92284 -1.61588,-3.16652 -4.4527,-9.00242 -3.10641,-21.93551 0.0927,-0.89037 -2.03403,0.0695 -2.41439,-0.5083 -1.2381,-1.88205 0.50744,-3.37859 2.84712,-5.51478 5.57403,-5.09064 16.94018,-10.99266 16.80023,-14.05529 -0.1992,-4.34623 -1.13164,-3.22232 -6.49789,-7.81583 -11.49751,-9.84557 -34.11733,-28.53901 -36.40979,-32.14083 -1.12219,-1.76185 -1.70346,-3.67825 -0.92557,-3.8431 4.74892,-1.01229 34.62562,26.94287 38.14932,27.66152 0.71779,0.14596 12.84208,13.53325 12.89789,6.18449 8.5e-4,-0.0567 1.8623,-20.59953 3.94183,-40.80238 1.73437,-16.84488 3.02656,-33.52061 3.81132,-37.35168 0.13395,-0.65082 4.26038,-44.69185 5.97586,-60.26513 1.51886,-13.78053 3.34768,-27.30606 4.38744,-41.33129 0.41299,-5.56631 1.03805,-10.45689 0.76845,-14.2064 -0.32541,-4.52568 -1.69316,-7.46638 -2.86343,-8.91913 -2.65221,-3.29188 -11.86843,15.38611 -11.86843,20.68882 -1.80992,0 -6.18621,22.78725 -6.21025,22.78725 0,3.85339 -1.55836,11.80317 -3.43182,18.7544 -1.98938,7.3788 -6.84562,16.1039 -7.95064,15.14913 -0.0764,-0.0661 -1.78245,-3.01797 0.20778,-4.40118 1.01143,-0.70319 1.73952,-6.01363 2.58868,-11.46746 1.05179,-6.75718 0.47996,-15.71925 1.75154,-23.25862 2.26671,-13.43966 3.91093,-25.96148 4.11613,-26.59084 0.98052,-3.01798 14.07246,-29.71357 14.07246,-29.77367 0.0189,-11.19958 -0.83456,-14.28882 -0.1245,-14.49231 1.58583,-0.45678 5.92777,13.57189 10.64664,28.5888 5.42721,17.26645 11.111999,36.00196 11.195279,38.17851 0.003,0.0824 1.48366,5.44353 1.80993,5.75176 0.34688,0.32713 1.30078,1.45962 1.79104,1.49998 0.65425,0.0532 1.42013,0.97022 2.1216,0.79163 2.14135,-0.5435 4.00537,-2.97935 6.29354,-4.57033 3.8139,-2.65222 7.77806,-4.86998 8.63494,-6.08748 1.94387,-2.75954 10.36244,-5.37397 10.36244,-9.82925 0.15198,0 5.51565,-9.31323 7.52134,-9.4051 0.46278,-0.0215 1.42098,0.66026 0.74612,1.63821 -0.46622,0.67571 -1.15739,1.54548 -1.83568,2.24094 -2.94672,3.01798 -5.80414,10.43028 -6.03596,17.86489 -0.24041,7.68962 4.22689,22.53911 7.75401,29.79085 7.47412,15.36207 33.17116,44.01441 33.66743,33.44762 0.0163,-0.35632 0.67657,-1.09386 0.52117,-1.80478 -0.84057,-3.83708 -5.66075,-10.55477 -6.40859,-11.13604 -2.52257,-1.9619 -7.31871,-12.01439 -8.75944,-23.1324 -1.46134,-11.27514 0.85774,-22.94523 -0.91784,-22.13557 -1.49225,0.68001 -2.51141,2.21433 -3.55976,3.03086 -1.34714,1.04921 -2.55348,1.29477 -2.86772,1.03719 -0.71779,-0.58814 0.33142,-3.56062 2.47448,-6.32359 1.30765,-1.68543 4.75407,-5.19625 8.73111,-8.96722 2.63418,-2.49853 5.6908,-4.54886 7.83644,-8.28463 5.66762,-9.86446 11.9208,-20.80645 17.58928,-30.20211 4.27067,-7.0783 8.40226,-12.99062 10.6183,-18.52344 0.73239,-1.82624 1.39094,-1.64508 1.59958,-3.46874 0.90238,-7.90342 -2.66939,-17.796202 -4.48962,-25.798354 -2.4307,-10.682701 -2.68828,-22.508199 -4.76609,-31.668602 -0.20607,-0.910975 -3.27127,3.23177 -7.24659,7.371939 -2.9905,3.115001 -9.32525,8.135235 -11.17124,12.913344 -2.25383,5.834187 -1.852,11.618575 -2.08211,16.026628 -0.21636,4.14017 -1.12734,7.06714 -1.21663,7.67932 -0.59244,4.015665 -4.882,9.658385 -9.94431,14.229575 -5.22114,4.71543 -14.00462,11.82378 -20.01912,21.18939 -6.01363,9.36646 -9.26,20.99019 -12.2608,20.82791 -1.28018,-0.0695 -2.1508,-3.43955 -1.94645,-7.98755 0.11505,-2.5509 1.00113,-5.47358 1.2879,-8.3911 0.0781,-0.7985 6.39399,-15.13282 4.52396,-15.72268 -2.78444,-0.87749 -5.96555,2.05377 -9.55621,3.70572 -4.06891,1.87346 -8.37822,2.4865 -8.94404,1.78932 -0.63536,-0.78047 5.2366,-8.14812 13.85351,-14.76792 4.42437,-3.3992 9.53561,-6.20682 13.66634,-9.6644 4.98503,-4.171935 8.64009,-8.954335 9.20161,-12.460002 0.31082,-1.938719 1.20719,-19.143346 2.57237,-19.143346 0,-3.55117 3.60183,-6.284952 3.60183,-7.767754 0.33914,0 1.91467,-1.524015 2.09412,-1.54548 1.48538,-0.180306 4.5128,-2.087257 7.55654,-5.841056 2.86171,-3.531422 2.42898,-6.520208 5.27696,-11.128315 1.92927,-3.120152 5.95696,-3.260104 7.17875,-6.882537 1.00027,-2.961312 1.58669,-6.01621 3.16308,-8.808378 1.39093,-2.464182 3.78557,-4.67937 4.5918,-7.110925 1.42613,-4.298151 0.75385,-9.016158 -0.39153,-10.441434 -2.4616,-3.0643441 -2.95959,-5.3422101 -3.24121,-6.6979391 -0.36233,-1.742958 0.18288,-1.269869 7.96437,-0.941026 0.14854,0.006 -2.04089,2.561204 -2.09241,5.773227 -0.0618,3.8765791 2.44959,8.7113551 2.51398,11.1789721 0.18375,7.030217 1.93357,14.486299 3.43011,22.082333 3.46359,17.574684 8.32928,35.897208 8.9904,51.432715 0.0326,0.77446 0.16056,5.1868 1.39952,8.393665 0.48511,1.25528 0.69375,2.41439 1.80478,2.96561 0.5641,0.27904 1.93786,0.52203 2.4908,0.0163 0.30394,-0.27733 9.95117,-6.435195 17.93357,-11.718165 5.2864,-3.497937 10.31694,-6.299549 10.47149,-6.909155 0.32627,-1.283607 9.35616,-6.223991 17.65797,-12.502933 4.65704,-3.521977 9.01272,-7.971242 11.65034,-11.200437 3.60183,-4.411487 16.6826,-20.321345 18.73208,-16.552091 1.178,2.168824 -3.13046,5.308724 -7.2981,9.484955 -3.85082,3.857689 -8.86161,9.449751 -11.88217,14.308569 -1.18143,1.901799 -1.16598,3.423238 -1.99882,5.087205 -1.13163,2.264128 -3.45243,11.518119 -2.44958,20.438977 2.00998,17.879475 15.03151,24.653835 30.65202,25.608595 5.88913,0.35975 14.16518,1.64851 14.68034,0.52031 1.12648,-2.46161 37.56375,-34.398086 37.28127,-30.257917 -0.009,0.131366 -0.79506,2.317362 -2.101,4.389162 -0.63107,1.00113 -1.72492,3.44385 -3.49536,5.024525 -3.15621,2.81792 -7.00274,5.15074 -7.39512,5.30958 -2.17741,0.87835 -5.99904,9.25914 -10.95058,19.70745 -8.82899,18.6299 -18.78875,38.63442 -25.35532,58.92486 -4.54629,14.05013 -6.92117,28.13117 -8.56368,42.46635 -0.52632,4.59866 0.36577,8.6504 0.0601,13.0533 -1.53175,22.0394 -0.40183,37.95785 4.60381,58.85016 0.85001,3.55031 1.348,2.37575 1.63649,2.76555 0.74011,0.99598 -1.14194,-4.95756 -0.74269,-6.27465" /></svg>