<svg xmlns="http://www.w3.org/2000/svg" version="1" width="512" height="512"><defs><clipPath><path d="M36 81.75v595.608h523.276V81.75H36z" stroke="#000"/></clipPath><clipPath><path d="M36 81.75h523.276v595.608H36V81.75z" stroke="#000"/></clipPath><clipPath><path d="M28.058 16.126H568.95v679.98H28.058V16.125z" stroke="#000"/></clipPath></defs><clipPath><path d="M0 0h595.276v841.89H0V0z" stroke="#000"/></clipPath><path d="M207.26 120.3c-.955-.776-1.048-3.594-1.166-6.198-.142-3.14.777-6.91 2.745-7.143.427-.053 4.866-2.452 9.158-5.022 3.576-2.14 21.908-15.36 22.134-15.378 2.88-.227-10.57 12.62-10.64 12.63-.436.07-9.812 8.492-9.812 9.314-1.19 0-8.682 9.42-9.297 10.86-.264.617-1.95 1.892-3.124.937m-19.623 17.176c1.884-3.537 2.922-6.085 4.75-8.528 1.717-2.294 2.57-5.016 4.195-6.568 2.61-2.492 3.044-5.534 3.54-5.16.327.25 3.023 4.08 2.402 7.65-.64 3.686-4.028 7.697-6.62 9.514-.892.625-8.387 9.493-10.476 11.275-.298.254-.595.09-.632.024-.443-.784.626-4.048 2.84-8.208m34.292 56.92c-.097-.21-.936-1.893-.904-4.024.022-1.457.825-3.01 1.07-4.896.442-3.39 1.807-7.094 1.78-10.455-.04-4.782-2.482-7.72-2.482-9.155 0-2.987 2.41-5.785 3.983-6.632 9.13-4.922 15.265-10.47 22.865-14.784 6.777-3.848 13.76-8.21 21.702-11.202 5.09-1.918 10.614-2.875 16.6-4.083 6.015-1.215 11.197-2.665 11.15-1.518-.078 1.88-9.425 8.44-18.42 16.242-10.522 9.124-21.01 19.6-22.405 21.01-.32.326-5.954 5.074-12.296 10.56-7.466 6.46-16.063 13.637-18.377 15.928-2.18 2.16-3.726 4.182-4.266 3.008m-112.36 2.12c-.082-.01-1.298.64-2.404-.445-1.483-1.453-1.225-3.14-1.32-4.435-.097-1.293.362-3.183 1.855-4.893 2.314-2.65 5.672-4.308 8.608-5.928 2.987-1.65 3.91-3.505 4.673-1.408.073.204-.538.51-1.048 1.136-.746.913-1.6 2.344-2.444 3.79-1.367 2.347-3.337 4.704-4.704 7.06-1.702 2.937-2.76 5.183-3.216 5.124M96.93 212.018c.33-.587 2.854-11.788 4.427-12.954 1.163-.863 1.606 1.11 1.774 1.448.34.684 1.074 1.01.92 2.534-.488 4.87-4.08 9.28-6.217 10.892-.328.247-1.49-.882-.903-1.92m258.402 1.586c-.395-2.234.85-4.093 1.264-5.226 1.13-3.093 8.783-7.77 8.783-8.8.802 0 6.724-4.888 6.724-5.668.56 0 9.81-8.467 9.81-8.798 1.028 0 6.725-7.853 6.725-4.675-.06 0-8.27 10.076-8.27 10.344-.23 0-8.782 9.136-8.782 9.866-1.013 0-10.833 12.514-11.39 13.438-.338.56-.543 2.155-2.37 2.49-.534.097-1.3.293-1.674-.118-.627-.686-.717-2.253-.822-2.852m-177.37 20.624c-.648-.213-.193-3.802.244-6.474.677-4.143 3.418-11.486 5.26-14.995 2.82-5.366 6.783-10.632 10.126-15.275 5.06-7.028 8.463-12.742 9.032-13.054.757-.415 2.874 2.812 5.937 5.967 1.575 1.62 3.867 2.837 4.973 4.693 1.844 3.09 1.55 6.997-2.393 10.474-2.38 2.096-6.613 3.693-9.88 6.855-4.222 4.085-8.56 9.543-12.575 13.607-5.162 5.223-9.61 8.566-10.723 8.2m-94.685 1.613c-2.69-1.657 2.715-45.656 3.892-48.257.804-1.775.79-29.693 3.44-27.835 1.854 1.3 2.532 9.712 5.133 17.095 1.364 3.866 3.32 7.487 4.192 10.83.58 2.23.146 3.633.15 4.97.004 2.736-4.76 16.25-4.938 16.25 0 5.61-7.493 29.643-11.87 26.947m238.19 23.266c0-1.14 6.126-10.344 6.724-10.344 0-1.157 10.754-16.05 10.84-16.05 0-.43 5.428-8.118 5.697-8.284.165-.102 2.09.45.64 5.12-.193.625.27 2.247-.728 3.67-.958 1.366-2.765 2.392-4.445 4.127-1.906 1.965-3.734 4.69-5.55 7.1-5.346 7.092-10.79 14.66-13.178 14.66m-103.546.556c2.145-1.68 4.162-2.418 5.45-2.226 1.72.258 2.182 3.346 2.31 5.09.218 2.904-1.097 5.224-3.524 7.585-2.35 2.285-5.208 1.914-6.778.23-1.046-1.12-1.186-4.05-1.148-5.358.078-2.676 1.732-3.785 3.69-5.32m-80.64 10.453c-.528-2.127.184-2.266-.3-3.492-.71-1.792-2.954-4.234-6.967-4.788-.777-.108-2.028-.697-2.31-1.147-3.543-5.678 3.853-5.526 6.725-6.736 2.17-.914 5.016-.49 8.035-.478 3.21.015 14.265-.915 17.85-2.44.71-.304-3.502 5.055-3.922 5.01-.134-.014-6.564 6.647-7.484 7.222-1.18.74-5.056 3.614-5.696 4.638-.547.877-1.944 1.914-2.81 2.95-.93 1.112-1.335 2.186-2.103 1.856-.494-.212-.713-1.366-1.018-2.595m62.005 5.75c-.255-.593-.122-1.666-.22-2.74-.09-.95-.436-1.895-.278-2.62.23-1.054 1.797-1.244 2.813-2.086.84-.697 9.063-5.905 9.136-4.06.06 1.51.14 3.817-.467 5.744-.037.115-2.06 1.744-4.47 3.13-2.91 1.67-6.312 3.103-6.515 2.632m-2.866 6.026c-.26 1.356-.86 1.675-1.4 2.235-.924.964-1.818 1.41-2.93 1.26-.67-.092-1.56-.15-2.18-1.134-1.965-3.116-1.613-6.783-.275-8.42 1.094-1.337 2.678-2.522 3.822-2.312 3.75.69 3.52 5.45 2.962 8.372m26.596 8.683c-1.283-.023-3.492-4.98 1.947-4.323.467.058 1.028 1.675.625 3-.38 1.246-1.19 1.347-2.572 1.323m-5.365-3.182c.867.18.867 1.987.87 2.61.013 2.047-.99 2.405-1.742 2.64-.88.274-2.077.375-2.768-.447-.61-.727-.784-2.31-.557-3.175.277-1.05.805-2.332 4.198-1.627m-14.087 9.352c-.076 1.91-.98 2.18-1.866 2.266-2.07.198-2.328-.852-2.23-2.99.03-.654-.25-1.606.406-2.16 1.163-.985 2.53-.536 3.222.367.555.726.49 1.958.468 2.518m-8.65 3.817c-.432-2.69.88-3.218 1.457-2.994.655.254 1.23 1.2 1.24 1.29.255 2.415-2.457 3.19-2.696 1.704m-9.335 5.664c0-1.677-.516-2.08-.516-4.16-1.1 0-4.13-34.162-1.028-34.162 0-2.44 1.404-8.798 3.6-8.798 0-1.647 10.326-4.435 10.326-5.67.964 0 8.27-4.715 8.27-5.19 1.09 0 9.81-5.63 9.81-6.22 2.886 0 6.044-4.64 8.818-4.64 0-.747 7.587-3.644 8.783-3.644 0-.236 2.572-2.132 2.572-1.03 1.498 0 .564.515 2.06.515 0 2.087 2.957 25.88 3.636 25.88 0 7.626 4.117 13.33 4.117 21.24-.726 0-1.183 4.123-2.573 4.123 0 2.98-13.45 5.777-13.45 6.736-1.646 0-15.506 6.07-15.506 6.222-1.268 0-12.384 4.87-12.384 5.154-3.03 0-6.05 3.13-9.81 3.13 0 1.067-5.512.514-6.725.514m-83.71 5.19c-1.375-.35-2.43-2.35-2.857-4.22-1.09-4.78-.682-11.604 1.068-18.15 1.826-6.827 5.51-12.572 6.458-13.89 2.095-2.913 6.25-7.886 9.397-11.05 1.537-1.547 2.524-3.022 3.51-2.92 1 .107 2.618 1.663 1 4.16-.55.854-2.12.89-2.735 1.62-.63.747-1.727 3.365-1.92 5.6-.198 2.302.528 4.224 1.135 4.987 1.047 1.32 2.493 3.093 3.898 3.923 1.24.73 2.524.52 2.41 1.6-.066.635-.372 2.256-1.305 1.58-.676-.487-1.597-2.27-2.458-3.095-.67-.64-1.304-.49-1.76-.08-.815.737 1.78 2.262 1.416 4.565-.365 2.304-3.694 5.388-4.456 5.994-.6.477-1.338.53-1.76.958-.9.913-.75 2.176-.385 2.593.5.578 1.954.96 2.13 1.822.278 1.38-.63 3.29-1.682 4.928-1.393 2.168-3.834 3.566-5.744 5.386-2.252 2.145-3.636 4.13-5.36 3.69m91.182 22.68c-.392-.3-1.69-5.02-3.294-8.958-.96-2.362-2.93-4.084-2.366-5.405.48-1.128 1.966-.978 3.005-.195.624.47.593 1.393 1.47 1.778 1.843.81 5.168-.327 7.825-1.622 1.208-.59 2.5-.824 3.06-1.607.484-.674.625-1.24-.056-1.506-2.3-.904-10.322-.37-15.07-.35-1.894.008-2.872-3.695-2.888-4.524-.023-1.135 2.375-.42 5.785.04 7.512 1.015 17.815 1.408 24.967.21 1.392-.232 6.568-3.453 12.777-6.744 1.164-.616 13.848-6.972 21.24-10.64 2.672-1.326 4.586-2.134 4.787-2.85.29-1.036.06-3.572.662-5.97 1.416-5.656 3.442-8.385 9.077-6.39 1.496.53 1.724.53 2.798 2.142.602.9.928 2.39.472 3.592-.484 1.278-1.76 2.274-1.35 3.472.66 1.916 2.78 3.265 3.86 4.828 1.014 1.467 2.575 1.602 2.818 2.67.697 3.05-1.805 5.757-4.53 6.475-3.503.924-8.19-.66-8.227-2.395-.068-3.384-15.734 3.627-16.42 4.02-1.19.685-10.324 4.75-10.324 5.67-.473 0-1.163.303-1.47.643-.155.17-1.05 1.187.185 1.49 1.397.34 3.63.244 6.076.21 2.772-.036 5.818-.096 8.23-1.17 1.64-.73 2.683-2.136 3.576-3.428.66-.954 1.516-1.537 1.482-2.9-.05-1.953 2.6-2.792 4.986-2.797 2.54-.004 3.184 1.494 4.825 3.828.686.977.538 3.41-.206 4.897-.51 1.018-1.524 1.147-1.853 1.84-1.063 2.24.642 3.863 1.942 5.568.78 1.025 1.46 2.392 1.185 3.06-.35.85-.73 1.86-1.573 2.322-1.31.72-3.797 1.182-5.574.525-3.136-1.158-5.055-4.79-5.813-6.505-.194-.44-1.915-.13-4.402-.157-6.93-.078-21.397.096-27.97-.394-1.537-.114-3.142.643-4.804 1.41-2.003.928-4.09 1.998-6.24 3.246-3.255 1.89-6.784 3.39-9.197 4.198-.724.242-.387 1.892-.63 3.516-.355 2.374-1.784 5.663-2.83 4.86m-120.1 12.514c0-6.165 6.097-75.576 6.686-75.576 0-7.815 3.95 12.406 4.152 12.406 0 5.32 9.27 28.492 13.45 28.492 0 9.552-14.994 10.873-14.994 16.566-6.663 0 4.63 13.98 4.63 8.246 2.59 0 14.993-7.68 14.993-5.67-.845 0-1.214 1.547-2.057 1.547 0 1.194-11.392 3.657-11.392 5.707-3.612 0-9.295 8.283-15.468 8.283m257.81 18.627c0-.428-3.42-2.077-4.702-3.355-.63-.628-2.107-1.73-2.497-2.19-1.9-2.24-4.628-6.48-6.35-8.837-3.944-5.4-10.26-7.21-12.92-14.636-.472-1.323-1.19-1.944-1.945-3.068-1.28-1.902-3.754-5.908-5.465-9.942-1.607-3.79-2.475-7.64-2.964-8.842-.692-1.705-3.462-13.65-3.156-13.872.077-.055 1.255-.577 1.24-.177-.107 2.863 2.5 10.296 2.086 10.544-.05.03 8.14 19.782 11.382 24.403.627.895 1.043 1.384 1.668 2.373.827 1.31 1.937 3.63 3.66 5.44 3.29 3.458 7.62 6.49 8.094 7.137.816 1.113 4.71 7.124 7.052 9.157.36.313 1.333 1.14 1.71 1.41.274.197 3.164 1.34 3.36 2.53.067.397.797 1.923-.253 1.923m-35.643-2.06c-.335-.5-.858-1.625.085-1.63 3.702-.026 15.904 3.993 16.48 5.05.015.028-2.56 1.032-4.91 2.33-2.283 1.26-3.236 2.608-4.387 2.79-1.94.307-4.562-1.66-5.92-4.05-.9-1.583-.697-3.522-1.348-4.49m-79.592 8.797c-.425-.092-4.213-2.602-6.248-6.65-1.61-3.207-3.615-5.947-4.983-8.54-2.373-4.497-3.713-8.37-5.145-11.28-1.263-2.565-2.71-4.335-3.4-5.81-2.66-5.7-.305-3.906 2.422.38 1.93 3.03 3.01 7.99 5.16 11.85 1.573 2.826 3.204 6.344 4.64 7.837.147.155 2.687 3.476 4.264 4.29.336.174.515-1.468 2.345-1.208 2.14.306 2.354.803 2.572 1.417.414 1.17-.89 2.763-.896 4.244-.01 1.71.536 3.745-.732 3.47m3.637 1.03c-.183-2.264-.546-4.204-.4-6.04.102-1.257.594-2.468.915-3.788.345-1.42.942 2.776.96 3.008.207 2.6.065 4.414.026 7.196-.01.82-.694 1.6-.38 2.648.07.237.38 5.16-.988 1.738-.56-1.404-.08-4.108-.133-4.762m-83.514 7.99c5.25-1.37 10.897-7.5 16.3-6.55 1.126.197 3.293.436 3.634 1.487.16.497.923 1.77.023 2.373-.343.23-2.8.113-4.21.286-3.47.425-6.995.957-8.16 1.233-2.25.533-4.06 1.49-5.387 1.928-.85.28-1.563.216-1.877.12-.677-.21-.767-.76-.322-.875m-23.154-17.997c-.188-3.314-.315-10.5 1.217-15.62 3.762-12.572 2.826-4.25 2.602.963-.1 2.314-.503 4.492-.68 7.327-.406 6.418.378 13.513 1.804 19.225.922 3.7 2.555 7.87 2.093 8.177-.932.62-1.482-.588-2.857-3.374-1.417-2.874-3.654-7.475-4.18-16.698m196.036 13.1c1.693-.57 4.822-3.125 5.528-1.238 2.023 5.412-5.38 11.072-6.263 10.087-1.792-2.005-3.87-3.604-2.578-5.786.942-1.59 2.744-2.87 3.312-3.063m-84.737 4.675c-.67-1.872-.396-3.69-.343-5.554.066-2.398.045-4.837.13-7.136.085-2.293.225-4.65.728-7.004.18-.852 1.076-.796 1.354.532.242 1.15-.068 3.43.244 5.55.428 2.915.318 6.41.574 9.28.158 1.773-.117 3.547-.246 5.04-.262 3.015-.785 4.828-1.935 2.727-.318-.582-.088-2.266-.505-3.435m71.84-4.16c-.183.624-6.207-9.167-6.21-9.313-.037-1.29-.92-1.8-1.437-2.756-1.062-1.975-1.858-3.182-1.715-4.035.064-.388-.114-.994.732-1.053 2.46-.17 4.494 3.493 6.72 7.382.09.152 1.32 1.85 2.224 4.076.798 1.965 1.206 4.343 2.28 6.442 1.097 2.15 5.107 6.58 4.633 8.695-.534 2.392-2.38 1.39-3.822-1.14-1.852-3.247-3.314-8.614-3.406-8.3m-83.193 13.473c-.577-.147-8.25-2.588-16.92-5.288-3.592-1.12-7.787-2.19-11.383-3.27-3.967-1.195-8.7-1.183-12.065-2.423-8.928-3.293-6.903-5.482-2.086-5.767 4.97-.292 12.915 1.38 15.105 1.91 4.967 1.195 9.273 3.348 11.844 3.94 1.252.29 2.83 1.52 5.496 2.577 3.653 1.445 8.617 2.952 10.88 4.846 2.43 2.034 1.746 4.146-.87 3.476m83.708 1.547c-.05 0-2.396.003-3.882-2.38-1.12-1.798-1.408-4.376-2.44-6.44-2.98-5.957-10.926-14.333-12.51-21.814-.64-3.033-1.433-3.374-.567-3.35.726.02 2.498-.083 3.813.84.758.536 2.572 2.886 4.543 6.18 2.234 3.73 4.722 8.656 7.06 13.204 3.762 7.32 6.824 13.787 3.982 13.76m-132.18-1.502c.067 1.504-.38 1.79-1.302 1.902-.907.11-1.862.35-2.018-.003-.544-1.225-1.344-3.47-.522-4.25.45-.425 1.083-.03 1.72.016 2.487.18 2.053.706 2.123 2.336m7.094.325c-.103-.51-.04-1.49.23-1.74.43-.39 1.257.294 2.252.704.775.322 1.723.236 2.197.898.74 1.036.56 2.675-.572 3.392-.67.425-1.202-.296-1.946-.474-.655-.156-1.543.293-1.878-.264-.424-.7-.15-1.86-.282-2.515m114.353 2.677c-.432-.817-.766-2.288-1.432-3.694-2.193-4.634-5.025-11.872-7.942-18.303-2.078-4.583-4.92-8.155-6.09-10.772-.76-1.698-.826-2.58-.472-2.89.593-.52 2.358.55 4.05 2.08 1.74 1.568 2.532 3.743 3.51 5.168.29.422 4.325 10.864 8.162 18.88 2.626 5.486 5.374 9.132 5.25 9.575-.97 3.492-3.842 2.216-5.035-.044m-146.358.044c-.737-.918-.534-2.22-.216-3.394.26-.947 1.53.81 3.164 2.224 2.17 1.878 3.29 3.282 4.804 1.17.704-.982 1.858-1.202 2.086-1.803.014-.036.02-3.64 1.207-3.623.33.005 1.018-.472 1.504.426.392.727.256 1.916.315 3.125.046.93.677 1.543.003 2.25-.665.697-2.555.482-5.613 1.17-.744.17-.396.433-1.16.523-1.975.23-4.915-.59-6.097-2.068m43.95-1.545c1.53.254 1.314-.106 3.04.91.886.522.726 1.704.435 2.7-.238.814.873 1.087-2.375 1.087-1.687 0-2.24-4.886-1.1-4.697m94.083 1.67c-.874-1.518-1.213-3.39-2.034-5.213-2.18-4.848-4.68-10.244-6.45-14.42-2.206-5.21-4.376-9.042-5.015-9.978-4.932-7.217-3.672-8.943-1.61-7.22 1.045.875 2.48 3.265 3.89 5.406 3.156 4.796 4.685 8.632 7.37 13.86 2.43 4.736 4.372 9.273 6.468 13.84 1.023 2.23 2.683 4.434 3.297 6.716 1.244 4.63-2.57 3.123-4.764.045-.73-1.026-.842-2.503-1.15-3.037m-80.67 5.066c-.183 1.715-2.005 2.497-2.765 1.013-.61-1.194-.326-2.325-.23-2.89.097-.578.75-.466 1.526-.49.605-.022 1.328-.34 1.65.24.246.44-.092 1.283-.18 2.126m31.832-38.695c1.322-2.197 7.53-1.664 9.637-1.915 3.21-.384 2.36 4.857 2.515 6.43.407 4.065 1.382 10.043 1.88 12.806.953 5.315 1.45 9.436 2.175 12.308 1.234 4.883 3.448 7.604 1.87 12.673-.23.733-4.49-2.785-8.575-5.744-4.997-3.62-7.468-5.204-8.29-7.943-.576-1.91-.01-9.11-.372-16.018-.294-5.63-1.692-11.18-.84-12.597m-25.056 41.61c-.284-2.073-.092-2.685.202-2.796 1.175-.446 2.127-.077 2.43.75.147.405-.105 1.055-.087 1.51.014.41.333 1.138.256 1.353-.158.44-.825.1-1.12.11-1.572.055-1.59-.248-1.683-.93m71.75 2.756c-.69.202-2.824-4.25-4.77-8.924-3.25-7.79-6.773-17.368-7.1-17.987-1.25-2.358-10.866-17.928-8.783-20.69.493-.653 3.14 3.99 5.43 8.647 3.14 6.38 7.14 14.138 7.952 15.756 2.682 5.338 4.806 10.61 6.154 13.866 2.18 5.264 5.233 8.117 1.116 9.33m-27.59-11.387c-.73-4.548-.966-10.327-1.9-15.694-.824-4.736-2.23-9.232-2.68-12.712-.4-3.07-.302-5.2-.28-5.85.038-1.25 1.16-1.92 1.8.008.564 1.697-.885 1.194-.24 3.933 1.23 5.226 3.978 14.265 4.04 14.552.228 1.04.937 4 1.268 7.497.25 2.634.067 5.526.517 8.4.637 4.04 2.356 8.42 2.662 10.84.306 2.422-.8 2.885-2.02 1.328-1.137-1.454-2.197-6.277-3.166-12.305m-33.887 11.9c-.538-.462-.592-1.3-.19-1.962.695-1.14 2.597-1.195 3.105-.357.29.478.097 1.638-.33 3.317-.173.683-2.148-.62-2.586-.996m94.143-3.9c-.527-5.956 1.5-1.77 3.18 1.066.508.86 2.115 3 1.825 3.696-.08.195.384.832-.212.62-.26-.093-.73.23-.954.132-.975-.42-1.414-1.323-2.156-2.227-.584-.712-1.53-1.53-1.683-3.286m-169.584 6.513c-.31-.24-.785-.774-1.45-1.38-2-1.823-5.597-4.346-5.057-4.65.75-.423 1.98.803 3.558 1.34.575.195 1.916.328 3.124-.152.77-.31 1.12-1.853 1.847-2.19 1.342-.62 2.51.363 2.96.872.41.463 1.07 1.376.953 2.14-.08.525-.727.41-1.027.906-.535.885-.848 2.31-1.143 2.796-.176.29-.514-.27-1.005-.227-.94.08-2.36.855-2.76.544m87.31 1.94c-3.837-.393-2.316.57-3.548-2.825-1.028-2.833 2.19-1.57 3.242-1.34.96.205.99 1.625.966 2.265-.073 1.925.436 2.013-.66 1.9m-143.106-23.59l-.534-.365c.335-.127.94-.14 1.677-.282 1.29-.25 2.877-.716 4.38-.807 2.65-.16 10.464 3.103 12.742 4.508 3.27 2.016 6.082 4.895 8.866 7.31 2.604 2.26 5.837 5.536 9.085 8.122 2.42 1.927 5.953 3.507 7.607 4.524 1.246.766.98 1.196.874 1.317-.364.414-5.83-2.263-14.507-7.426-5.928-3.528-11.622-7.264-12.556-7.827-3.557-2.144-7.533-3-9.97-4.557-1.618-1.034-2.633-2.007-2.796-2.287-.61-1.047-.464-2.16-1.155-2.15-1.777.034-3.073-.142-3.713-.08m281.796 22.796c-.9-6.522.227-5.633 1.63-3.8.676.882 2.013 2.132 2.388 3.215.703 2.028-1.03 2.706-2.297 2.447-.867-.176-1.648-1.32-1.722-1.862m-62.962-5.845c.715-.74 3.05-.335 3.237.68.443 2.407 1.81 3.545 2.222 4.303.63 1.156.274 1.812-.444 2.236-.49.29-1.252.352-1.586.868-.642.992-4.85-6.613-3.428-8.087m-120.668 9.34c-.184-.033-2.008-.428-2.92-1.848-.48-.743-.81-2.36-.167-3.308.438-.644.236-.38 1.03-.516 2.497-.422 3.13.29 3.84 1.477.63 1.047 1.513 2.438 1.05 4.047-.285.99-1.783.33-2.832.146m151.395 2.614c-1.274-.728-.415-2.885-.384-4.547.098-5.205.804-11.226 1.423-15.706.237-1.717 2.2-12.668 3.617-13.982 2.117-1.964 5.4-2.495 8.625-2.98 4.148-.62 8.167-.765 9.088.44.83 1.084.35 2.907.712 4.763 1.178 6.058 1.272 14.813.712 19.137-.058.456-.7 1.485-1.8 1.976-1.717.766-4.372 1.01-6.318 1.794-3.975 1.605-6.674 3.172-8.642 4.378-3.336 2.044-6.466 5.053-7.035 4.728m-36.16-8.798c.104.01 3.3 3.432 4.144 5.804.328.928.833 1.59-.028 2.478-2.68 2.765-6.08-2.016-6.682-4.485-.046-.19.218-1.897.907-2.932.472-.706 1.345-.897 1.66-.866m-59.934-3.645c-1.622-.716-.238-1.17 1.346-.728 1.487.412 3.128 1.7 3.285 1.757.658.243 3.146 1.495 5.03 3.544 1.31 1.423 2.058 3.144 2.684 4.756.428 1.103.978 2.176.898 2.99-.086.854-.06 2.462-1.237 2.713-1.832.39-4.936-1.888-7.185-5.38-2.683-4.166-4.134-9.35-4.82-9.653m50.435 11.01c.76-.373.215-2 .717-2.727.347-.503-.052-.3.514-.516 1.483-.567 1.99.21 2.88 1.25.424.495.54 1.637 1.035 2.447.34.557 1.136.735 1.216 1.32.568 4.153-1.186 4.915-2.643 4.293-.78-.333-1.108-1.37-1.762-2.26-1.247-1.695-2.49-3.543-1.955-3.805m-108.824 7.1c-.77-1.59-.488-2.72-.213-3.502.65-1.85 3.42-1.842 6.033-.678 5.65 2.52 5.553 4.173 3.306 4.736-.553.137-3.934-.086-6.426-.262-1.398-.098-2.517.084-2.7-.294m97.636 1.547c0-.53-6.688-3.144-6.688-4.123-.433 0-7.104-5.187-7.24-5.19-.31-.01-1.807-3.055-2.968-8.354-1.162-5.3-1.99-12.854-3.582-19.847-2.556-11.227-5.81-22.273-5.355-26.135.12-1.02 4.347 8.936 8.808 19.24 3.2 7.39 7.373 15.374 10.11 21.597 2.493 5.665 3.695 9.897 3.83 10.407.256.974.09 3.722 1.478 5.956 2.27 3.657 3.72 6.45 1.608 6.45m-23.15-7.217c.668-1.726 2.8-2.13 3.47 1.704.307 1.748.494 4.823-.187 5.53-.41.425-1.492-.654-2.033-1.557-.32-.532-1.494-5.053-1.25-5.678m31.93 2.06c.06.213.577 2.3.98 3.825 1.142 4.306-5.047-.353-5.46-1.374-.506-1.25-.232-3.14.563-4.184 1.924-2.528 3.476.186 3.918 1.735m32.153 4.59c.27-.71 1.86-1.52 3.34-2.027.378-.13 1.003-.48 1.73-.245.495.16 1.293.7 1.09 1.35-.17.553-1.216.51-1.86 1.042-.262.215-1.335 1.086-2.47 1.412-.715.206-.72-.1-1.064-.478-.236-.258-1.016-.394-.765-1.055m-76.064 2.148c-.068-.007-4.57-1.66-9.315-3.74-3.535-1.55-6.593-3.498-8.838-4.826-1.587-.94-3.08-1.487-2.684-1.732.264-.166 2.956.286 6.107 1.44 3.613 1.325 7.727 3.678 11.138 5.42 3.52 1.8 6.264 2.975 5.178 3.465-.257.116-.916.04-1.584-.027m70.81-1.03c.54-.337 1.133-.007 1.46-.063 1.295-.22 1.076.823 1.882 1.042.156.042.5.442.394.583-.177.236-.986.288-1.446.69-.574.5-.975 1.278-1.992.73-.975-.525-1.49-2.24-.298-2.982m-41.05 1.98c-.61.916-2.555 1.446-4.2 1.658-1.2.154-2.228.37-2.548-.694-2.1-6.945.298-5.874 2.516-4.537.388.234 4.763 2.774 4.23 3.572m-187.84-39.025l.528.37c.02 0-3.42.44-5.774 1.71-2.283 1.23-3.807 2.97-3.765 3.24.15.998 1.45 1.574 2.35 2.347 1.606 1.375 3.324 2.722 4.677 3.567 3.49 2.18 7.673 4.734 11.457 7.315 9.174 6.256 17.067 12.908 17.907 13.498 6.68 4.692 14.178 8.374 14.014 10.56-.067.9-19.77 1.014-21.84.987-5.93-.077-10.703-1.574-20.475-6.342-4.628-2.26-10.692-6.423-13.907-12.177-3.298-5.906-2.247-12.4 1.178-17.75.983-1.536 1.567-2.847 2.848-3.923.822-.69 1.925-1.55 3.378-1.963 1.25-.354 3.837-.41 4.828-.695l2.596-.745zm220.88 44.263c-.967-1.233.29-3.275.667-3.882.175-.28 2.626-.346 3.006-.244.826.223.81.85.84 1.27.068.89-1.142 2.406-2.41 3.004-.865.406-1.85.17-2.102-.15M178.99 423.13c1.518.134 5.79.17 8.263 2.045 4.15 3.15 8.088 6.48 1.537 5.994-2.72-.203-5.736-1.255-8.65-1.887-2.267-.49-4.608-.442-5.836-1.39-1.436-1.108-1.003-2.19.206-3.24.876-.765 1.795-1.764 4.48-1.524m116.628 6.857c-.05-.865.903-1.096 2.563-1.103.98-.003 1.1 1.697 1.07 2.707-.015.543-.258.38-.775.756-.173.125-.336.234-.488.327-1.8 1.083-2.226-.148-2.37-2.686m57.166 1.914c.73-1.722 3.418-3.97 5.304-5.34 1.04-.755 2.187-2.145 3.524-2.745 1.614-.724 3.048-2.98 4.43-3.79 1.614-.944 3.064-.378 3.22-.18.146.184-1.6 2.63-3.696 5.427-.985 1.315-2.59 2.205-3.857 3.356-1.286 1.167-7.303 4.653-7.683 5.45-.182.38-1.256-.136-1.49-.634-.22-.47.145-1.294.25-1.543m-101.577 4.24c-.052-.004-5.412-1.46-10.378-3.477-4.814-1.956-9.175-4.52-9.796-4.807-2.742-1.265-8.963-3.565-11.277-7.368-.677-1.114-1.445-2.943-.592-3.492.58-.373 8.34 3.123 9.276 3.513 4.55 1.893 10.534 5.734 11.376 6.316 2.437 1.68 7.672 4.276 12.086 5.745 2.394.8 7.283 1.16 5.848 1.3-.02.004.22 1.8-1.422 2.165-1.738.388-4.273.157-5.12.105m17.05.514c-.24-.033-2.51-.804-3.947-1.562-1.435-.756-1.796-1.707.31-2.046.333-.052 3.008-.6 6.194-1.395 2.168-.54 3.31-1.526 4.8-1.732 1.235-.17 2.96.38 3.484.515 2.047.524 1.092 1.085-.06 1.916-1.386 1.002-3.56 1.69-4.092 2.243-.44.456-1.516.504-2.043.783-1.584.836-2.92 1.52-4.645 1.278m21.68.516c-.03-.003-.68.08-1.12-.452-.564-.683-.84-2.163.043-3.6.602-.978 1.53-.477 1.944-.375.028.007.646.16.84.75.193.59-.036 1.618-.01 2.272.03.684.31 1.405-.718 1.405-.322 0-.652.03-.977 0m-78.013.514c-.422-.1-2.06.144-4.288-2.872-2.162-2.925-4.4-9.424-4.95-12.068-.34-1.634-2.643-8.424-4.628-12.36-1.448-2.87-2.747-3.1-2.896-4.236-.238-1.824 1.592-.697 2.482-.405 5.27 1.726 10.375 16.854 11.934 21.795 1.546 4.892 3.377 10.392 2.345 10.146m71.8-1.544c.622.725 1.03.59 1.122.92.233.838-1.346 2.035-2.1 2.602-2.56 1.927-2.01 1.927-5.396 1.415-2.32-.353-3.92-1.222-3.795-1.905.174-.938 2.8-.84 4.914-1.582 2.804-.983 4.53-2.3 5.254-1.45m-70.594-11.02c-1.495-3.627-4.205-10.917-3.116-14.092.313-.91 5.777 5.475 8.12 15.798.134.596.897 3.55 2.052 6.425 1.58 3.942 3.536 8.03 2.307 8.375-1.653.463-1.847-1.404-2.813-3.017-2.487-4.15-4.736-9.09-6.55-13.488m-86.223 12.018c.46-.328.325-1.162.775-1.336.937-.36 2.373-.103 3.537-.178 1.785-.115 1.493 1.927-.102 3.51-.997.99-3.53 1.936-5.054 2.487-2.697.977-2.6-1.242-1.4-2.93.545-.766 1.668-1.143 2.245-1.552m118.602 5.222c-.265-.084-2.872-.796-6.05-2.135-1.552-.653-6.37-2.925-10.03-5.068-.987-.577-5.015-2.436-5.122-3.14-.196-1.298-.73-2.575-.077-2.992.59-.376 2.722.723 4.694 1.44 1.634.59 3.16.777 3.614.925 2.713.887 5.523 2.554 8.424 3.785 3.5 1.485 6.983 2.597 8.613 4.385.595.652-.753 1.464-1.493 2.8-.41.74-1.73.266-2.572 0m-10.475 13.033c-.98-.322 17.08-11.37 17.714-12 1.497-1.488 3.946-3.577 5.66-4.677 1.992-1.28 5.09 3.474 4.635 4.24-.17.287-2.598-1.65-4.59-1.8-.936-.068-2.49 1.117-4.577 2.532-2.693 1.823-6.716 4.046-9.884 6.33-3.548 2.554-6.44 5.6-8.166 5.993-.32.073-.55-.537-.79-.617m51.814-8.91c-1.22-.617-2.854-2.176-2.477-2.727.92-1.34 6.522-.58 11.59-3.555 1.488-.873 3.14-3.42 5.11-4.413 2.58-1.3 5.815-1.34 8.572-3.094 4.127-2.626 8.31-5.325 12.24-7.303 1.3-.654 4.882-2.965 9.34-4.034 1.053-.254 1.93.244 3.09.374 1.238.138 2.763-.094 3.914-.615 3.69-1.67 6.676-4.034 9.482-5.85 2.93-1.897 5.642-4.727 6.534-3.805 1.005 1.04 2.03 2.664 1.077 3.87-1.014 1.284-4.09 2.158-5.708 3.462-3.99 3.215-6.327 4.817-10.715 7.896-1.59 1.114-3.187.454-3.685.24-.184-.08-.394-.59.174-.975 1.085-.735 3.54-1.627 4.112-2.505.596-.914-1.412-1.236-2.248-.894-3.053 1.252-10.19 6.106-15.787 6.848-.02.003-5.4 1.406-10.637 4.053-6.63 3.35-13.447 8.138-13.656 8.26-3.34 1.953-6.58 3.202-8.298 4.178-.824.468-1.045 1.087-2.024.59M226.92 438.2c2.963-.028 7.167 2.093 10.404 3.883 2.438 1.35 4.507 2.315 4.085 3.13-1.225 2.373-3.95 3.422-6.512 2.908-1.604-.32-2.944-1.662-4.43-2.427-1.453-.75-2.98-.98-3.742-1.926-.607-.756.065-1.425-.006-2.207-.11-1.222-.763-3.35.2-3.36m157.94 11.963c-1.555-2.114-3.028-4.9-3.456-5.6-.855-1.39-1.255-3.026-2.12-3.272-.872-.248-1.182 1.175-1.76 2.374-.58 1.2-1.427 2.174-1.655 2.06-4.698-2.316-3.08-12.404-1.71-13.193.42-.24.214-1.89.135-3.356-.07-1.293.06-2.44-.65-2.348-.195.025-2.414 1.227-4.612 2.974-3.664 2.912-8 7.095-8.87 7.427-1.947.74-2.194-.784-2.524-1.11-.846-.835 1.706-2.62 3.155-3.657 1.077-.77 2.068-2.366 3.555-3.574 1.384-1.124 2.808-2.545 5.976-4.785 4.106-2.902 10.7-3.437 15.704-1.398 1.493.61 6.012 2.67 5.31 5.317-.135.514-.988 1.997-2.188 2.555-2.14.995-4.943 1.167-3.607 2.753.612.726 2.654.56 4.617.938 4.02.777 9.185 1.887 11.374 3.934 4.068 3.805 3.027 9.542-.147 11.926-2.174 1.632-5.86.978-8.868 1.176-1.695.11-3.667 1.605-5.06 1.554-1.083-.04-1.634-1.38-2.6-2.693m-260.245 3.057c0-2.887.047-4.258 2.154-6.822 1.808-2.203 4.774-4.077 6.63-3.522.98.293.707.974.678 1.67-.044 1.045-.532 2.57-2.024 3.91-.896.806-2.634 1.432-3.51 2.168-1.14.96-1.418 1.94-2.357 2.402-.595.292-1.228.194-1.57.194m86.423-5.077c-3.35-1.576-7.185-2.98-11.11-4.33-1.654-.57-9.796-3.876-18.292-5.76-7.674-1.7-15.822-1.928-18.458-2.257-.608-.076-.694-.662-.674-.698.702-1.257 2.8-1.637 5.082-2.114 2.843-.594 6.134-1.1 9.24-.853 3.955.316 7.064 1.415 7.208 1.432 2.926.347 14.526 6.217 14.52 2.788-.004-2.09-1.105-4.16-1.98-6.2-.137-.317-3.138-5.685-5.91-11.69-3.345-7.248-6.49-15.338-5.602-15.453 2.108-.27 3.187 2.962 5.224 7.34 1.35 2.9 3.635 6.22 5.058 9.653 1.093 2.636 1.782 5.297 3.082 7.608 1.44 2.562.964 5.515 1.702 7.416.822 2.114 2.675 4.103 3.08 4.115.064 0 4.385.186 10.1 2.49 7.652 3.084 16.762 7.28 18.185 9.053.623.776-.563 2.003-2.113 2.75-2.827 1.357-3.028 1.772-3.55 2.04-.606.31-3.776-2.147-14.792-7.33m4.487 12.845c-.705.2-2.27-.846-3.35-1.256-4.45-1.69-10.915-5.402-14.215-6.512-2.017-.678-10.898-4.09-20.062-6.05-11.782-2.52-25.082-2.794-24.945-3.537.843-4.577 1.68-5.57 6.557-5.41 5.704.188 15.83 2.058 21.238 3.224 10.742 2.318 22.153 5.958 30.04 10.116 1.423.75 8.098 2.528 9.902 4.99 1.235 1.684-3.288 3.902-5.165 4.435m-84.736-8.282c.29-.347 2.22-1.51 3.424-1.5.918.01 2.45 3.143 2.262 4.033-.232 1.11-1.7 3.672-5.896 6.124-1.298.76-2.45 1.57-3.224 1.204-2.234-1.06-1.363-4.182.053-6.252.79-1.156 2.394-2.437 3.38-3.61m73.898 13.988c-.88-.163-4.988-2.09-10.38-4.174-9.94-3.84-18.67-6.24-29.366-7.59-2.916-.37-6.5.505-8.318.32-3.24-.327-3.9-1.407-4.117-2.03-2.097-6.022.93-5.422 10.575-4.425 4.384.453 9.935.646 14.622 2.218 4.107 1.378 8.987 1.956 13.912 3.485 9.227 2.866 18.257 6.524 20.145 7.09 3.15.944-.562 1.876-1.98 3.068-1.825 1.53-2.924 2.44-5.092 2.038m61.094-3.398c-1.378-.743-2.663-1.985-4.337-2.274-2.29-.394-4.658.665-6.228 1.512-.856.46-1.468.562-2.415 1.38-.764.658-2.588 2.065-2.45.888.02-.168.622-.707.697-.987.058-.22 1.242-.766 2.523-1.734 2.478-1.873 4.752-3.113 6.722-2.664 1.2.273 5.197 1.174 7.734 2.486.396.205 2.454 1.74 4.31 2.955 3.247 2.124 2.054 2.682.582 2.15-.62-.224-1.532-1.022-2.636-1.604-1.613-.852-3.514-1.574-4.504-2.107m22.1 4.43c-.677-.118-.67-1.348-.416-1.758.44-.712 1.405-.637 2.342-.876 2.206-.56 4.712-2.327 6.557-3.787.965-.763 1.535-1.94 2.6-1.98 2.817-.108 4.866 1.06 4.594 2.077-.108.4-.01.955-1.2 1.132-2.333.346-3.488 1.698-5.236 2.734-1.67.988-3.846 1.856-6.306 2.194-.962.132-1.835.453-2.937.263m-96.954 1.774c-4.8-1.797-10.654-3.842-16.53-5.098-1.008-.216-4.89-1.336-8.946-1.762-5.214-.55-10.715-.41-10.76-.57-1.163-4.09-.43-3.804 5.57-3.66.085.003 7.774.472 14.396 1.47 4.68.702 8.826 1.996 9.38 2.138 4.032 1.036 9.826 3.105 13.754 5.135 1.15.594 2.734.82 3.33 1.47 1.194 1.304.348 3.333-1.582 3.614-1.704.247-4.12-1.056-8.612-2.738m-61.526-1.996c.298-3.442 2.666-4.662 3.88-5.416 1.154-.716 2.61-1.11 3.728-.428.472.286.384.943.598 1.4.47 1.005.87 2.064 1.09 3.283.248 1.382-.615 1.765-1.318 2.714-.482.65-.325 2.06-1.92 2.275-.75.1-1.956 1.576-3.05 1.267-.657-.185-1.245-1.89-1.75-2.46-.547-.617-1.388-1.144-1.258-2.636m75.8 7.473c0-.98-1.017-1.546 0-1.546 0-1.592 3.64-1.865 3.64-3.128.878 0 3.6-1.258 3.6-2.063.88 0 3.602-1.258 3.602-2.06h1.065c0-.925 4.63-3.046 4.63-5.192.98 0 2.058.14 2.058 1.03-2.23 0-2.14 3.13-3.6 3.13 0 2.193-3.088 2.454-3.088 3.607-2.11 0-3.18 2.06-5.696 2.06 0 .922-2.57.78-2.57 2.063-1.894 0-1.736 2.1-3.64 2.1m74.424-4.916c.69-.7 2.226-.64 2.757.07.437.58-2.63 2.97-3.115 3.256-.572.334-1.645.47-2.604.872-1.518.638-2.992 1.51-3.558 1.563-3.093.3.192-1.014 1.94-2.397 1.62-1.28 2.758-1.508 4.582-3.364m-114.12-3.184c3.222.143 6.227.03 9.345.644 2.718.535 5.437 1.095 7.105 2.187 1.44.94 1.348 3.366 2.183 4.232 2.04 2.117 2.03 2.692.452 2.27-.668-.18-1.245-.703-2.665-1.095-2.093-.58-5.01-2.34-8.325-3.01-3.717-.746-8.523-.96-11.63-1.654-3.328-.742-3.697-1.22-3.89-2.553-.565-3.842 1.752-1.275 7.424-1.022m-24.496 10.312c-.003.88-.043 2.373-1.17 2.65-1.238.303-2.82-.6-3.462-.988-3.472-2.103.44-7.517 3.006-7.47 1.343.022 1.635 1.984 1.626 5.808m-46.377 2.94c0-1.1.52-3.607 1.545-3.607 0-1.828 2.61-2.426 2.61-3.645 1.506 0 1.834-1.546 3.6-1.546 0-.64 2.06-.98 2.06-2.06 1.397 0 1.73-1.033 3.122-1.033 0-1.08 2.572-.335 2.572-1.546.438 0 1.028-.605 1.028-1.03h6.21c0 1.678 1.543 2.462 1.543 4.122 1.28 0 1.132 2.577 2.06 2.577 0 1.505-2.06-.302-2.06-1.547-.967 0-.945-1.545-2.57-1.545 0-1.054-2.06-.49-2.06-1.545-1.472 0-6.21-.05-6.21 1.546-1.51 0-1.718 1.032-3.636 1.032 0 1.093-2.573 1.302-2.573 2.576-1.07 0-1.797 2.615-3.6 2.615 0 1.753-2.095 2.022-2.095 3.09-1.183 0-.615 1.547-1.544 1.547m320.356.516c-.426-.044-3.062-.922-4.945-1.707-3.034-1.265-6.266-3.713-9.786-5.763-4.98-2.9-10.293-5.586-14.33-8.034-4.065-2.464-8.8-4.762-13.035-7.42-8.188-5.138-15.463-9.663-18.93-11.19-2.957-1.302-5.893-2.87-7.672-4.125-2.773-1.956-3.818-3.43-6.52-3.17-2.76.268-5.73 3.224-10.62 6.708-4.255 3.033-9.273 4.823-13.462 6.632-1.73.746-3.13 3.207-5.09 3.072-.94-.065-1.77-.326-2.436-.82-.51-.38 5.508-3.147 12.206-6.632 4.295-2.235 8.754-4.965 12.33-6.893 3.31-1.785 5.358-3.68 5.815-3.973 2.33-1.5 10.562 3.96 21.045 11.08 6.536 4.438 15.852 8.905 22.52 13.228 7.593 4.922 18.028 10.497 26.262 14.945 4.32 2.333 8.97 4.3 6.65 4.06m-234.112-2.492c2.512.615 4.644.834 4.4 1.747-1.056 3.976-5.97 1.637-9.018.872-3.896-.976-8.307-1.39-10.68-2.198-6.06-2.062-4.735-4.81-1.232-4.693 5.12.17 15.23 3.955 16.53 4.273m196.82 1.818c-3.003-1.532-6.21-3.48-7.09-4.08-1.078-.73-3.5-2.265-5.456-3.512-.952-.606-1.62-1.248-2.298-1.51-.767-.297-1.52-.202-2.292-.678-.773-.476-.88-1.362.762-1.483.8-.058 2.783 1.046 5.266 2.234 4.278 2.05 10.04 5.03 13.783 7.644.984.688 2.123 1.473 3.13 1.913.733.32 1.305.548 1.197.914-.09.307-.75 1.034-1.78 1.03-1.097-.003-2.408-1.03-5.222-2.47m-86.78-184.683c.556-1.83 1.614-.63 3.987-3.87 4.69-6.404 11.9-17.855 12.066-17.904.41-.122 9.293-11.854 18.213-24.854 2.654-3.867 4.9-8.586 7.44-12.217 3.778-5.398 7.71-9.61 10.045-12.83 1.597-2.205 2.428-4.056 2.555-4.435 2.734-8.106 1.422-7.044-.933-9.703-1.07-1.208-3.115-4.766-3.696-7.54-1.444-6.905-2.034-13.007 2.418-15.445.728-.4 1.22-1.318 2.212-1.474 1.114-.177 4.307-.653 4.63-7.253.016-.324 1.25-13.88 2.933-27.948 1.752-14.652 4.938-29.5 5.85-30.78 1.032-1.45 1.4-.875 1.66 2.36.156 1.95.082 4.722-.05 7.713-.078 1.794-.54 2.312-.805 3.502-.766 3.44-.06 7.313-.013 10.568.055 3.688-.506 6.585-.793 7.16-.956 1.92-1.03 7.558-1.764 13.56-.963 7.866-2.414 16.57-.862 19.897.947 2.03 3.25 1.662 4.252 2.814 1.054 1.21.75 6.19.74 9.963-.003 1.165.036 3.48.758 3.618.816.156 1.338-1.253 2.68-2.524 1.52-1.44 3.684-3.21 6.228-4.95 2.78-1.9 9.21-7.633 16.422-16.58 2.43-3.014 5.636-5.698 8.676-8.71 3.466-3.428 8.73-6.072 12.22-9.59 1.2-1.212 3.056-2.696 3.976-4.277.98-1.685 1.023-3.466 2.202-4.735 1.265-1.36 2.98-1.17 3.986-2.624 8.217-11.853 17.402-19.88 17.985-21.742.17-.542 2.205-1.832 3.872-2.692 1.298-.67 3.798-.707 2.34.594-.913.812-3.318 4.262-6.59 9.36-1.762 2.747-5.312 4.618-7.48 8.17-1.99 3.257-3.45 7.54-5.572 11.27-3.294 5.793-7.52 11.865-10.78 17.948-11.963 22.316-26.786 62.255-29.567 89.74-.393 3.884-1.82 12.626-1.384 22.054.685 14.78 4.307 30.11 6.81 37.956 1.435 4.498 3.21 10.998 5.29 14.87 5.246 9.76 14.968 20.966 17.227 22.614.862.63 8.906 10.31 17.987 18.377 8.27 7.345 17.816 12.35 20.148 13.764 1.41.854 11.27 8.35 8.98 8.994-3.876 1.09-24.292-15.907-40.903-17.87-.362-.042-1.228-.113-2.487-.204-5.607-.407-19.02-2.8-30.447-3.47-4.954-.293-9.655-.96-13.063-.732-2.95.195-6.703.63-7.36 2.617-1.038 3.124 1.055 9.74 1.175 11.138.35 4.03-.768 8.365.024 10.243.363.864 3.713 2.07 5.35 3.907 1.854 2.082 2.017 4.77 2.38 4.994 1.82 1.118 2.978.16 4.46.792 4.813 2.055 3.438 5.976 5.24 7.133 4.305 2.763 7.652 2.17 10.19 3.97 1.877 1.336 2.693 3.277 3.71 5.224.66 1.263.89 2.734 1.627 3.745.562.77.888 1.604 1.806 2.112 2.345 1.296 5.925 1.763 7.75 3.236 2.474 1.993 4.386 7.66 4.357 12.13-.034 5.476-3.588 9.086-5.857 11.935-1.032 1.296-1.42 2.53-1.756 3.544-.452 1.372-.6 4.133 1.31 6.025 3.73 3.693 12.117 5.654 20.628 9.832 9.347 4.585 19.33 10.274 27.15 13.6 6.42 2.73 13.896 4.686 20.89 4.748 2.64.022 6.34-.576 8.063-3.27 8.46-13.233-15.195-19.133-15.02-10.726.098 4.712 4.323 4.04 6.783 2.33.386-.268.938-1.228.97-1.82.084-1.475.64-3.32 1.068-1.805.443 1.57 1.684 5.752-.22 7.926-1.23 1.404-3.41 2.93-5.785 3.432-2.69.57-5.598-.074-7.046-1.847-1.686-2.062-2.35-4.94-2.494-5.64-.24-1.145-1.093-3.8-.827-5.547.668-4.405 5.778-7.84 12.032-8.043 6.856-.222 13.67 3.155 17.747 7.925 1.358 1.59 2.403 2.887 3.3 4.704.693 1.404 2.443 6.232 1.818 10.076-1.143 7.047-2.636 11.573-7.478 14.232-1.616.888-3.64.473-5.806 1.342l-436.92-.224c-2.893-.22-4.223-.632-4.43-.645-1.07-.07-3.133-2.083-3.84-4.786-.51-1.952-.044-4.386.417-6.816.462-2.43.92-4.855 2.8-6.148 1.412-.973 3.36-.43 5.768-.398.08 0 1.777.836 2.35 2.088.278.612.747 1.14-.255 2.072-.586.546-2.03.67-2.263 1.094-1.643 2.97 8.35 3.293 11.762.417 4.278-3.607 6.31-4.548 7.642-7.203.813-1.62.947-3.357 1.516-4.576.89-1.9 2.145-2.827 3.377-2.296.79.34.955 1.74 2.685 3.495 5.505 5.584 16.02 13.958 23.09 7.003 1.854-1.823 3.77-3.877 3.564-5.884-.22-2.15-2.917-3.195-6.076-1.822-1.112.483-1.61 1.887-3.212 3.11-1.924 1.47-4.167 2.385-4.15 1.807.026-.944 1.56-3.162 3.094-6.265 2-4.046 4.475-9.333 8.432-12.56 4.293-3.5 8.335-6.136 12.797-7.385 2.86-.802 5.994-.374 9.142-1.412.14-.047.275-.093.403-.14.37-.138-.89-8.91-.893-9.713-.016-4.886.083-9.995 1.792-14.393 1.66-4.273 5.11-6.922 1.044-7.007-2.954-.062-11.025 1.286-18.778 1.017-10.29-.355-17.937-4.377-20.35-5.098-9.83-2.94-21.523-11.257-27.742-19.394-2.55-3.335-3.924-6.82-5.506-9.922-1.616-3.167-4.453-9.003-3.106-21.936.092-.89-2.034.07-2.415-.508-1.237-1.882.51-3.38 2.848-5.515 5.574-5.09 16.94-10.993 16.8-14.055-.2-4.347-1.13-3.223-6.497-7.816-11.497-9.846-34.117-28.54-36.41-32.14-1.12-1.763-1.703-3.68-.925-3.844 4.75-1.012 34.626 26.943 38.15 27.66.717.147 12.842 13.535 12.897 6.186 0-.057 1.863-20.6 3.942-40.802 1.735-16.845 3.027-33.52 3.812-37.352.134-.65 4.26-44.692 5.975-60.265 1.52-13.78 3.35-27.306 4.39-41.332.412-5.566 1.037-10.456.767-14.206-.325-4.527-1.693-7.467-2.863-8.92-2.652-3.292-11.868 15.386-11.868 20.69-1.81 0-6.187 22.786-6.21 22.786 0 3.853-1.56 11.803-3.433 18.754-1.99 7.38-6.845 16.104-7.95 15.15-.077-.067-1.783-3.018.208-4.402 1.012-.703 1.74-6.013 2.59-11.467 1.05-6.756.48-15.718 1.75-23.258 2.268-13.44 3.912-25.96 4.117-26.59.98-3.02 14.072-29.714 14.072-29.774.018-11.2-.835-14.29-.125-14.493 1.586-.456 5.928 13.572 10.647 28.59 5.427 17.266 11.112 36 11.195 38.178.003.082 1.483 5.443 1.81 5.752.347.327 1.3 1.46 1.79 1.5.655.053 1.42.97 2.122.79 2.14-.542 4.005-2.978 6.293-4.57 3.814-2.65 7.778-4.87 8.635-6.087 1.944-2.76 10.362-5.374 10.362-9.83.152 0 5.516-9.312 7.522-9.404.462-.022 1.42.66.746 1.638-.466.676-1.158 1.546-1.836 2.24-2.947 3.02-5.804 10.43-6.036 17.866-.24 7.69 4.227 22.54 7.754 29.79 7.474 15.363 33.17 44.015 33.668 33.448.016-.356.676-1.093.52-1.804-.84-3.837-5.66-10.555-6.408-11.136-2.522-1.962-7.32-12.015-8.76-23.133-1.46-11.275.858-22.945-.917-22.135-1.492.68-2.512 2.214-3.56 3.03-1.347 1.05-2.553 1.295-2.868 1.038-.717-.588.332-3.56 2.475-6.324 1.308-1.685 4.754-5.196 8.73-8.967 2.635-2.5 5.692-4.55 7.837-8.285 5.668-9.864 11.92-20.806 17.59-30.202 4.27-7.078 8.402-12.99 10.618-18.523.732-1.827 1.39-1.645 1.6-3.47.902-7.902-2.67-17.795-4.49-25.797-2.43-10.683-2.688-22.51-4.766-31.67-.207-.91-3.272 3.233-7.248 7.373-2.99 3.116-9.325 8.136-11.17 12.914-2.255 5.835-1.853 11.62-2.083 16.027-.217 4.14-1.128 7.068-1.218 7.68-.592 4.016-4.882 9.66-9.944 14.23-5.22 4.715-14.005 11.824-20.02 21.19-6.013 9.366-9.26 20.99-12.26 20.827-1.28-.07-2.15-3.44-1.946-7.987.115-2.55 1-5.474 1.288-8.392.078-.798 6.393-15.132 4.523-15.722-2.784-.878-5.965 2.054-9.556 3.706-4.07 1.873-8.378 2.486-8.944 1.79-.635-.782 5.237-8.15 13.854-14.77 4.424-3.398 9.535-6.206 13.666-9.663 4.985-4.173 8.64-8.956 9.202-12.46.31-1.94 1.207-19.145 2.572-19.145 0-3.55 3.602-6.285 3.602-7.768.338 0 1.914-1.524 2.093-1.545 1.485-.18 4.513-2.087 7.557-5.84 2.86-3.533 2.43-6.52 5.276-11.13 1.93-3.12 5.957-3.26 7.18-6.882 1-2.96 1.586-6.016 3.162-8.808 1.39-2.465 3.786-4.68 4.592-7.11 1.426-4.3.754-9.017-.39-10.443-2.463-3.065-2.96-5.343-3.243-6.7-.362-1.742.183-1.27 7.965-.94.148.006-2.04 2.562-2.093 5.774-.062 3.876 2.45 8.71 2.513 11.18.184 7.03 1.934 14.485 3.43 22.08 3.464 17.576 8.33 35.898 8.99 51.434.033.774.16 5.186 1.4 8.393.485 1.257.694 2.416 1.805 2.967.564.28 1.938.522 2.49.016.305-.277 9.952-6.435 17.935-11.718 5.286-3.498 10.316-6.3 10.47-6.91.327-1.283 9.357-6.223 17.66-12.502 4.656-3.522 9.012-7.97 11.65-11.2 3.6-4.412 16.682-20.322 18.73-16.553 1.18 2.17-3.13 5.31-7.297 9.485-3.85 3.858-8.86 9.45-11.882 14.31-1.18 1.9-1.166 3.422-2 5.086-1.13 2.265-3.45 11.52-2.448 20.44 2.01 17.88 15.03 24.654 30.652 25.61 5.89.358 14.165 1.647 14.68.52 1.127-2.463 37.564-34.4 37.28-30.26-.008.132-.794 2.318-2.1 4.39-.63 1-1.725 3.444-3.495 5.025-3.156 2.818-7.003 5.15-7.395 5.31-2.178.878-6 9.258-10.95 19.707-8.83 18.63-18.79 38.634-25.356 58.925-4.546 14.05-6.92 28.13-8.564 42.466-.526 4.6.366 8.65.06 13.053-1.53 22.04-.4 37.958 4.604 58.85.85 3.55 1.348 2.376 1.637 2.766.74.996-1.143-4.958-.744-6.275" fill="#fff" fill-rule="evenodd"/></svg>