<svg xmlns="http://www.w3.org/2000/svg" version="1" width="750" height="615"><defs><clipPath><path d="M36 81.75v595.608h523.276V81.75H36z" stroke="#000"/></clipPath><clipPath><path d="M36 81.75h523.276v595.608H36V81.75z" stroke="#000"/></clipPath><clipPath><path d="M28.058 16.126H568.95v679.98H28.058V16.125z" stroke="#000"/></clipPath></defs><clipPath><path d="M0 0h595.276v841.89H0V0z" stroke="#000"/></clipPath><g fill="#fff"><path d="M326.26 127.622c-.955-.777-1.048-3.595-1.166-6.2-.142-3.14.777-6.908 2.745-7.143.427-.052 4.866-2.45 9.158-5.02 3.576-2.142 21.908-15.36 22.134-15.38 2.88-.226-10.57 12.62-10.64 12.632-.436.07-9.812 8.49-9.812 9.313-1.19 0-8.682 9.42-9.297 10.86-.264.617-1.95 1.892-3.124.937m-19.623 17.175c1.884-3.537 2.922-6.085 4.75-8.528 1.717-2.295 2.57-5.017 4.195-6.57 2.61-2.49 3.044-5.533 3.54-5.16.327.25 3.023 4.08 2.402 7.65-.64 3.687-4.028 7.698-6.62 9.515-.892.625-8.387 9.492-10.476 11.275-.298.255-.595.09-.632.025-.443-.784.626-4.05 2.84-8.208m34.292 56.92c-.097-.21-.936-1.894-.904-4.024.022-1.457.825-3.01 1.07-4.896.442-3.39 1.807-7.094 1.78-10.456-.04-4.78-2.482-7.718-2.482-9.155 0-2.986 2.41-5.784 3.983-6.632 9.13-4.92 15.265-10.47 22.865-14.784 6.777-3.847 13.76-8.21 21.702-11.2 5.09-1.92 10.614-2.876 16.6-4.085 6.015-1.215 11.197-2.664 11.15-1.517-.078 1.88-9.425 8.438-18.42 16.24-10.522 9.127-21.01 19.604-22.405 21.014-.32.324-5.954 5.073-12.296 10.56-7.466 6.457-16.063 13.636-18.377 15.927-2.18 2.157-3.726 4.18-4.265 3.007m-112.36 2.12c-.083-.012-1.3.638-2.405-.445-1.483-1.454-1.225-3.14-1.32-4.436-.097-1.294.362-3.184 1.855-4.893 2.314-2.65 5.672-4.308 8.608-5.93 2.987-1.647 3.91-3.503 4.673-1.407.073.205-.538.512-1.048 1.137-.746.913-1.6 2.344-2.444 3.79-1.367 2.346-3.337 4.704-4.704 7.06-1.702 2.937-2.76 5.183-3.216 5.123m-12.638 15.502c.33-.586 2.854-11.787 4.427-12.953 1.163-.863 1.606 1.11 1.774 1.447.34.685 1.074 1.012.92 2.535-.488 4.87-4.08 9.28-6.217 10.89-.328.25-1.49-.88-.903-1.92m258.402 1.587c-.395-2.233.85-4.093 1.264-5.225 1.13-3.095 8.783-7.77 8.783-8.8.802 0 6.724-4.89 6.724-5.67.56 0 9.81-8.466 9.81-8.797 1.028 0 6.725-7.853 6.725-4.676-.06 0-8.27 10.077-8.27 10.345-.23 0-8.782 9.134-8.782 9.865-1.013 0-10.833 12.513-11.39 13.437-.338.56-.543 2.156-2.37 2.49-.534.098-1.3.294-1.674-.117-.627-.686-.717-2.253-.822-2.853m-177.37 20.625c-.648-.214-.193-3.803.244-6.475.677-4.143 3.418-11.486 5.26-14.996 2.82-5.365 6.783-10.63 10.126-15.274 5.06-7.028 8.463-12.743 9.032-13.054.757-.416 2.874 2.81 5.937 5.966 1.575 1.62 3.867 2.837 4.973 4.692 1.844 3.09 1.55 6.998-2.393 10.474-2.38 2.097-6.613 3.694-9.88 6.855-4.222 4.085-8.56 9.544-12.575 13.607-5.162 5.224-9.61 8.567-10.723 8.202m-94.685 1.61c-2.69-1.657 2.715-45.655 3.892-48.256.804-1.775.79-29.693 3.44-27.835 1.854 1.3 2.532 9.71 5.133 17.093 1.364 3.867 3.32 7.487 4.192 10.83.58 2.23.146 3.633.15 4.97.004 2.737-4.76 16.25-4.938 16.25 0 5.61-7.493 29.644-11.87 26.947m238.19 23.267c0-1.14 6.126-10.345 6.724-10.345 0-1.156 10.754-16.05 10.84-16.05 0-.43 5.428-8.118 5.697-8.283.165-.104 2.09.45.64 5.12-.193.624.27 2.245-.728 3.67-.958 1.365-2.765 2.39-4.445 4.125-1.906 1.966-3.734 4.69-5.55 7.1-5.346 7.093-10.79 14.662-13.178 14.662m-103.546.554c2.145-1.68 4.162-2.417 5.45-2.225 1.72.258 2.182 3.346 2.31 5.09.218 2.904-1.097 5.223-3.524 7.585-2.35 2.286-5.208 1.914-6.778.23-1.046-1.12-1.186-4.05-1.148-5.357.078-2.676 1.732-3.786 3.69-5.322m-80.64 10.456c-.528-2.127.184-2.266-.3-3.492-.71-1.792-2.954-4.234-6.967-4.79-.777-.106-2.028-.695-2.31-1.145-3.543-5.68 3.853-5.527 6.725-6.738 2.17-.913 5.016-.49 8.035-.477 3.21.015 14.265-.915 17.85-2.44.71-.304-3.502 5.055-3.922 5.01-.134-.015-6.564 6.646-7.484 7.222-1.18.74-5.056 3.613-5.696 4.638-.547.876-1.944 1.914-2.81 2.95-.93 1.112-1.335 2.186-2.103 1.856-.494-.21-.713-1.365-1.018-2.594m62.005 5.75c-.255-.594-.122-1.666-.22-2.74-.09-.95-.436-1.895-.278-2.62.23-1.054 1.797-1.244 2.813-2.086.84-.696 9.063-5.904 9.136-4.058.06 1.51.14 3.816-.467 5.742-.037.116-2.06 1.745-4.47 3.13-2.91 1.672-6.312 3.104-6.515 2.633m-2.866 6.026c-.26 1.356-.86 1.674-1.4 2.235-.924.963-1.818 1.41-2.93 1.26-.67-.092-1.56-.15-2.18-1.134-1.965-3.117-1.613-6.784-.275-8.42 1.094-1.338 2.678-2.523 3.822-2.312 3.75.69 3.52 5.448 2.962 8.37m26.596 8.683c-1.283-.022-3.492-4.98 1.947-4.322.467.058 1.028 1.674.625 3-.38 1.246-1.19 1.346-2.572 1.322m-5.365-3.182c.867.18.867 1.988.87 2.61.013 2.047-.99 2.406-1.742 2.64-.88.274-2.077.376-2.768-.447-.61-.726-.784-2.31-.557-3.174.277-1.05.805-2.334 4.198-1.63m-14.087 9.354c-.076 1.91-.98 2.18-1.866 2.266-2.07.196-2.327-.854-2.23-2.99.03-.655-.25-1.607.407-2.162 1.162-.985 2.53-.536 3.22.368.556.726.49 1.957.47 2.518m-8.65 3.816c-.433-2.688.88-3.218 1.456-2.994.655.255 1.23 1.202 1.24 1.29.255 2.415-2.457 3.19-2.696 1.704m-9.335 5.665c0-1.677-.516-2.08-.516-4.16-1.1 0-4.13-34.162-1.028-34.162 0-2.44 1.404-8.798 3.6-8.798 0-1.647 10.326-4.435 10.326-5.67.964 0 8.27-4.715 8.27-5.19 1.09 0 9.81-5.63 9.81-6.22 2.886 0 6.044-4.64 8.818-4.64 0-.747 7.587-3.644 8.783-3.644 0-.236 2.572-2.132 2.572-1.03 1.498 0 .564.515 2.06.515 0 2.087 2.957 25.88 3.636 25.88 0 7.626 4.117 13.33 4.117 21.24-.726 0-1.183 4.123-2.573 4.123 0 2.98-13.45 5.778-13.45 6.737-1.646 0-15.506 6.07-15.506 6.222-1.268 0-12.384 4.87-12.384 5.153-3.03 0-6.05 3.128-9.81 3.128 0 1.07-5.512.517-6.725.517m-83.71 5.19c-1.375-.35-2.43-2.35-2.857-4.22-1.09-4.78-.682-11.604 1.068-18.15 1.826-6.828 5.51-12.573 6.458-13.89 2.095-2.914 6.25-7.887 9.397-11.052 1.537-1.545 2.524-3.02 3.51-2.917 1 .106 2.618 1.66 1 4.158-.55.854-2.12.892-2.735 1.62-.63.748-1.727 3.366-1.92 5.6-.198 2.303.528 4.224 1.135 4.988 1.047 1.318 2.493 3.092 3.898 3.923 1.24.73 2.524.52 2.41 1.598-.066.637-.372 2.258-1.305 1.583-.676-.488-1.597-2.27-2.458-3.096-.67-.642-1.304-.49-1.76-.08-.815.736 1.78 2.26 1.416 4.564-.365 2.304-3.694 5.388-4.456 5.994-.6.478-1.338.53-1.76.96-.9.912-.75 2.175-.385 2.592.5.577 1.954.96 2.13 1.82.278 1.38-.63 3.292-1.682 4.93-1.393 2.167-3.834 3.564-5.744 5.385-2.252 2.144-3.636 4.13-5.36 3.69m91.182 22.68c-.392-.3-1.69-5.02-3.294-8.958-.96-2.363-2.93-4.085-2.366-5.407.48-1.127 1.966-.978 3.005-.195.624.47.593 1.394 1.47 1.778 1.843.81 5.168-.327 7.825-1.62 1.208-.59 2.5-.825 3.06-1.61.484-.672.625-1.237-.056-1.505-2.3-.903-10.322-.37-15.07-.35-1.894.01-2.872-3.694-2.888-4.523-.023-1.135 2.375-.42 5.785.04 7.512 1.014 17.815 1.408 24.967.21 1.392-.232 6.568-3.453 12.777-6.744 1.164-.616 13.848-6.972 21.24-10.64 2.672-1.327 4.586-2.135 4.787-2.85.29-1.036.06-3.572.662-5.97 1.416-5.656 3.442-8.386 9.077-6.39 1.496.53 1.724.53 2.798 2.142.602.9.928 2.39.472 3.59-.484 1.28-1.76 2.276-1.35 3.474.66 1.915 2.78 3.264 3.86 4.827 1.014 1.467 2.575 1.602 2.818 2.67.697 3.05-1.805 5.757-4.53 6.475-3.503.923-8.19-.662-8.227-2.396-.068-3.385-15.734 3.627-16.42 4.02-1.19.684-10.324 4.75-10.324 5.668-.473 0-1.163.304-1.47.644-.155.17-1.05 1.188.185 1.49 1.397.34 3.63.245 6.076.21 2.772-.036 5.818-.095 8.23-1.17 1.64-.73 2.683-2.135 3.576-3.427.66-.953 1.516-1.536 1.482-2.9-.05-1.952 2.6-2.79 4.986-2.796 2.54-.004 3.184 1.494 4.825 3.827.686.978.538 3.41-.206 4.898-.51 1.017-1.524 1.147-1.853 1.84-1.063 2.24.642 3.863 1.942 5.568.78 1.024 1.46 2.392 1.185 3.06-.35.85-.73 1.86-1.573 2.322-1.31.72-3.797 1.18-5.574.524-3.136-1.157-5.055-4.788-5.813-6.504-.194-.44-1.915-.13-4.402-.158-6.93-.077-21.397.097-27.97-.394-1.537-.114-3.142.643-4.804 1.412-2.003.926-4.09 1.997-6.24 3.245-3.255 1.89-6.783 3.388-9.197 4.197-.724.242-.387 1.893-.63 3.517-.355 2.373-1.784 5.663-2.83 4.86m-120.1 12.514c0-6.165 6.097-75.576 6.686-75.576 0-7.815 3.95 12.406 4.152 12.406 0 5.32 9.27 28.493 13.45 28.493 0 9.552-14.994 10.873-14.994 16.566-6.663 0 4.63 13.98 4.63 8.245 2.59 0 14.993-7.68 14.993-5.67-.845 0-1.214 1.547-2.057 1.547 0 1.192-11.392 3.656-11.392 5.706-3.612 0-9.295 8.283-15.468 8.283m257.81 18.627c0-.427-3.42-2.077-4.702-3.354-.63-.628-2.107-1.73-2.497-2.19-1.9-2.24-4.628-6.48-6.35-8.837-3.944-5.4-10.26-7.21-12.92-14.636-.472-1.322-1.19-1.944-1.945-3.068-1.28-1.9-3.754-5.907-5.465-9.94-1.607-3.792-2.475-7.64-2.964-8.843-.692-1.706-3.462-13.65-3.156-13.874.077-.055 1.255-.577 1.24-.177-.107 2.864 2.5 10.297 2.086 10.545-.05.03 8.14 19.782 11.382 24.403.627.895 1.043 1.384 1.668 2.373.827 1.31 1.937 3.63 3.66 5.442 3.29 3.457 7.62 6.488 8.094 7.136.816 1.113 4.71 7.124 7.052 9.157.36.312 1.333 1.14 1.71 1.41.274.196 3.164 1.34 3.36 2.53.067.397.797 1.922-.253 1.922m-35.643-2.06c-.335-.498-.858-1.625.085-1.63 3.702-.025 15.904 3.993 16.48 5.05.015.03-2.56 1.032-4.91 2.33-2.283 1.26-3.236 2.61-4.387 2.79-1.94.308-4.562-1.66-5.92-4.05-.9-1.582-.697-3.522-1.348-4.49m-79.592 8.798c-.425-.092-4.213-2.603-6.248-6.65-1.61-3.207-3.615-5.948-4.983-8.54-2.373-4.497-3.713-8.37-5.145-11.28-1.263-2.566-2.71-4.335-3.4-5.81-2.66-5.7-.305-3.906 2.422.378 1.93 3.033 3.01 7.99 5.16 11.852 1.573 2.825 3.204 6.344 4.64 7.837.147.154 2.687 3.475 4.264 4.29.336.172.515-1.47 2.345-1.21 2.14.306 2.354.803 2.572 1.417.414 1.17-.89 2.763-.896 4.244-.01 1.71.536 3.746-.732 3.47m3.637 1.03c-.183-2.263-.546-4.203-.4-6.04.102-1.256.594-2.468.915-3.787.345-1.42.942 2.776.96 3.007.207 2.602.065 4.414.026 7.196-.01.82-.694 1.6-.38 2.648.07.237.38 5.162-.988 1.74-.56-1.405-.08-4.11-.133-4.763m-83.514 7.99c5.25-1.37 10.897-7.5 16.3-6.552 1.126.2 3.293.438 3.634 1.49.16.494.923 1.767.023 2.37-.343.23-2.8.114-4.21.286-3.47.425-6.995.958-8.16 1.234-2.25.532-4.06 1.49-5.387 1.928-.85.28-1.563.215-1.877.118-.677-.21-.767-.758-.322-.875m-23.154-17.996c-.188-3.315-.315-10.5 1.217-15.62 3.762-12.573 2.826-4.252 2.602.962-.1 2.313-.503 4.49-.68 7.325-.406 6.418.378 13.514 1.804 19.225.922 3.702 2.555 7.87 2.094 8.178-.933.622-1.483-.588-2.858-3.373-1.417-2.875-3.654-7.476-4.18-16.698m196.036 13.098c1.693-.57 4.822-3.125 5.528-1.237 2.023 5.412-5.38 11.073-6.263 10.087-1.792-2.004-3.87-3.603-2.578-5.785.942-1.592 2.744-2.873 3.312-3.064m-84.737 4.675c-.67-1.872-.396-3.69-.343-5.554.066-2.4.045-4.838.13-7.137.085-2.294.225-4.65.728-7.005.18-.85 1.076-.796 1.354.533.242 1.152-.068 3.432.244 5.55.428 2.916.318 6.41.574 9.282.158 1.77-.117 3.545-.246 5.04-.262 3.014-.785 4.826-1.935 2.726-.318-.582-.088-2.267-.505-3.435m71.84-4.16c-.183.624-6.207-9.167-6.21-9.313-.037-1.29-.92-1.8-1.437-2.756-1.062-1.974-1.858-3.182-1.715-4.034.064-.387-.114-.994.732-1.052 2.46-.172 4.494 3.493 6.72 7.38.09.155 1.32 1.852 2.224 4.08.798 1.963 1.206 4.342 2.28 6.44 1.097 2.15 5.107 6.58 4.633 8.696-.534 2.392-2.38 1.388-3.822-1.14-1.852-3.247-3.314-8.614-3.406-8.3m-83.193 13.473c-.577-.148-8.25-2.588-16.92-5.288-3.592-1.12-7.787-2.19-11.383-3.272-3.967-1.194-8.7-1.182-12.065-2.423-8.928-3.292-6.903-5.482-2.086-5.766 4.97-.294 12.915 1.38 15.105 1.908 4.967 1.196 9.273 3.348 11.844 3.942 1.252.29 2.83 1.52 5.496 2.575 3.653 1.445 8.617 2.953 10.88 4.847 2.43 2.032 1.746 4.145-.87 3.475m83.708 1.546c-.05 0-2.396.003-3.882-2.38-1.12-1.798-1.408-4.375-2.44-6.438-2.98-5.958-10.926-14.334-12.51-21.816-.64-3.032-1.433-3.373-.567-3.348.726.02 2.498-.084 3.813.84.758.535 2.572 2.885 4.543 6.178 2.234 3.732 4.722 8.657 7.06 13.204 3.762 7.32 6.824 13.788 3.982 13.76m-132.18-1.502c.067 1.505-.38 1.79-1.302 1.902-.907.11-1.862.35-2.018-.003-.544-1.224-1.344-3.468-.522-4.248.45-.427 1.083-.033 1.72.015 2.487.18 2.053.705 2.123 2.336m7.094.324c-.103-.51-.04-1.488.23-1.738.43-.393 1.257.292 2.252.702.775.32 1.723.234 2.197.896.74 1.037.56 2.676-.572 3.393-.67.426-1.202-.296-1.946-.473-.655-.157-1.543.292-1.878-.265-.424-.7-.15-1.86-.282-2.515m114.353 2.678c-.432-.817-.766-2.29-1.432-3.694-2.193-4.633-5.025-11.87-7.942-18.302-2.078-4.583-4.92-8.155-6.09-10.773-.76-1.697-.826-2.58-.472-2.89.593-.518 2.358.55 4.05 2.08 1.74 1.568 2.532 3.744 3.51 5.168.29.423 4.325 10.864 8.162 18.88 2.626 5.487 5.374 9.133 5.25 9.576-.97 3.49-3.842 2.214-5.035-.045m-146.358.044c-.737-.92-.534-2.222-.216-3.395.26-.948 1.53.81 3.164 2.224 2.17 1.877 3.29 3.28 4.804 1.17.704-.983 1.858-1.204 2.086-1.805.014-.035.02-3.64 1.207-3.622.33.005 1.018-.472 1.504.426.392.726.256 1.915.315 3.124.046.93.677 1.543.003 2.25-.665.697-2.555.48-5.613 1.17-.744.17-.396.433-1.16.523-1.975.23-4.915-.59-6.096-2.068m43.947-1.546c1.532.254 1.315-.106 3.04.91.887.522.727 1.703.436 2.7-.238.813.873 1.086-2.375 1.086-1.687 0-2.24-4.885-1.1-4.696m94.083 1.67c-.874-1.518-1.213-3.39-2.034-5.214-2.18-4.847-4.68-10.244-6.45-14.42-2.206-5.208-4.376-9.04-5.015-9.978-4.932-7.216-3.672-8.942-1.61-7.218 1.045.873 2.48 3.264 3.89 5.405 3.156 4.794 4.685 8.63 7.37 13.858 2.43 4.736 4.372 9.273 6.468 13.84 1.023 2.23 2.683 4.435 3.297 6.717 1.244 4.63-2.57 3.123-4.764.045-.73-1.026-.842-2.502-1.15-3.036m-80.67 5.065c-.183 1.716-2.005 2.498-2.765 1.013-.61-1.193-.326-2.324-.23-2.888.097-.58.75-.467 1.526-.493.605-.02 1.328-.337 1.65.24.246.443-.092 1.284-.18 2.127m31.832-38.694c1.322-2.197 7.53-1.664 9.637-1.915 3.21-.384 2.36 4.858 2.515 6.43.407 4.066 1.382 10.043 1.88 12.807.953 5.315 1.45 9.436 2.175 12.308 1.234 4.883 3.448 7.604 1.87 12.673-.23.732-4.49-2.785-8.575-5.744-4.997-3.62-7.468-5.205-8.29-7.944-.576-1.91-.01-9.11-.372-16.018-.294-5.63-1.692-11.18-.84-12.596m-25.056 41.608c-.284-2.07-.092-2.684.202-2.794 1.175-.445 2.127-.076 2.43.752.147.404-.105 1.054-.087 1.507.014.41.333 1.14.256 1.353-.158.44-.825.102-1.12.112-1.572.054-1.59-.25-1.683-.93m71.75 2.755c-.69.202-2.824-4.25-4.77-8.923-3.25-7.79-6.773-17.37-7.1-17.988-1.25-2.358-10.866-17.927-8.783-20.69.493-.652 3.14 3.99 5.43 8.647 3.14 6.38 7.14 14.14 7.952 15.757 2.682 5.338 4.806 10.61 6.154 13.866 2.18 5.265 5.233 8.117 1.116 9.33m-27.59-11.386c-.73-4.548-.966-10.328-1.9-15.695-.824-4.735-2.23-9.23-2.68-12.71-.4-3.07-.302-5.2-.28-5.852.038-1.248 1.16-1.92 1.8.01.564 1.696-.885 1.193-.24 3.932 1.23 5.227 3.978 14.266 4.04 14.553.228 1.04.937 4 1.268 7.497.25 2.634.067 5.527.517 8.4.637 4.04 2.356 8.42 2.662 10.84.306 2.423-.8 2.885-2.02 1.33-1.137-1.455-2.197-6.28-3.166-12.307m-33.887 11.9c-.538-.46-.592-1.3-.19-1.96.695-1.14 2.597-1.197 3.105-.36.29.48.097 1.64-.33 3.317-.173.684-2.148-.62-2.586-.996m94.143-3.9c-.527-5.956 1.5-1.768 3.18 1.067.508.86 2.115 3 1.825 3.696-.08.195.384.833-.212.62-.26-.092-.73.23-.954.132-.975-.42-1.414-1.323-2.156-2.226-.584-.713-1.53-1.53-1.683-3.287m-169.584 6.513c-.31-.24-.785-.775-1.45-1.382-2-1.822-5.597-4.344-5.057-4.65.75-.42 1.98.805 3.558 1.342.575.195 1.916.328 3.124-.153.77-.308 1.12-1.852 1.847-2.188 1.342-.62 2.51.362 2.96.87.41.464 1.07 1.377.953 2.14-.08.526-.727.41-1.027.907-.535.885-.848 2.31-1.143 2.796-.176.29-.514-.27-1.005-.226-.94.08-2.36.855-2.76.544m87.31 1.94c-3.837-.393-2.316.57-3.548-2.825-1.028-2.834 2.19-1.57 3.242-1.34.96.205.99 1.625.966 2.264-.073 1.925.436 2.014-.66 1.902m-143.106-23.593l-.534-.364c.335-.128.94-.14 1.677-.282 1.29-.248 2.877-.715 4.38-.806 2.65-.16 10.464 3.103 12.742 4.508 3.27 2.015 6.082 4.894 8.866 7.31 2.604 2.258 5.837 5.535 9.085 8.12 2.42 1.928 5.953 3.508 7.607 4.524 1.246.767.98 1.197.874 1.318-.364.414-5.83-2.263-14.507-7.427-5.928-3.527-11.622-7.263-12.556-7.826-3.557-2.144-7.533-3-9.97-4.556-1.618-1.034-2.633-2.008-2.796-2.288-.61-1.046-.464-2.16-1.155-2.15-1.777.035-3.073-.14-3.713-.078m281.796 22.794c-.9-6.52.227-5.633 1.63-3.798.676.88 2.013 2.13 2.388 3.214.703 2.028-1.03 2.705-2.297 2.447-.867-.176-1.648-1.322-1.722-1.863m-62.962-5.844c.715-.74 3.05-.335 3.237.68.443 2.407 1.81 3.544 2.222 4.302.63 1.157.274 1.813-.444 2.237-.49.29-1.252.35-1.586.868-.642.992-4.85-6.614-3.428-8.087m-120.668 9.34c-.184-.034-2.008-.43-2.92-1.848-.48-.743-.81-2.36-.167-3.307.438-.644.236-.38 1.03-.516 2.497-.423 3.13.29 3.84 1.477.63 1.046 1.513 2.438 1.05 4.047-.285.99-1.783.33-2.832.147m151.395 2.614c-1.274-.728-.415-2.884-.384-4.547.098-5.204.804-11.226 1.423-15.705.237-1.717 2.2-12.67 3.617-13.982 2.117-1.964 5.4-2.495 8.625-2.98 4.148-.62 8.167-.766 9.088.44.83 1.083.35 2.907.712 4.763 1.178 6.057 1.272 14.812.712 19.136-.058.456-.7 1.484-1.8 1.976-1.717.765-4.372 1.01-6.318 1.793-3.975 1.605-6.674 3.172-8.642 4.377-3.336 2.045-6.466 5.054-7.035 4.73m-36.16-8.8c.104.01 3.3 3.432 4.144 5.805.328.928.833 1.59-.028 2.478-2.68 2.765-6.08-2.016-6.682-4.485-.046-.19.218-1.897.907-2.93.472-.708 1.345-.898 1.66-.868m-59.934-3.644c-1.622-.716-.238-1.17 1.346-.728 1.487.413 3.128 1.7 3.285 1.758.658.243 3.146 1.495 5.03 3.544 1.31 1.42 2.058 3.143 2.684 4.754.428 1.104.978 2.177.898 2.99-.086.854-.06 2.463-1.237 2.713-1.832.39-4.936-1.887-7.185-5.38-2.683-4.165-4.134-9.35-4.82-9.652m50.435 11.01c.76-.373.215-2 .717-2.727.347-.502-.052-.3.514-.515 1.483-.567 1.99.21 2.88 1.25.424.495.54 1.637 1.035 2.447.34.555 1.136.734 1.216 1.318.568 4.154-1.186 4.916-2.643 4.294-.78-.334-1.108-1.372-1.762-2.26-1.247-1.695-2.49-3.544-1.955-3.806m-108.824 7.1c-.77-1.59-.488-2.718-.213-3.5.65-1.85 3.42-1.844 6.033-.68 5.65 2.52 5.553 4.174 3.306 4.737-.553.137-3.934-.086-6.426-.262-1.398-.098-2.517.084-2.7-.294m97.636 1.545c0-.53-6.688-3.144-6.688-4.123-.433 0-7.104-5.186-7.24-5.19-.31-.01-1.807-3.054-2.968-8.353-1.162-5.3-1.99-12.855-3.582-19.85-2.556-11.226-5.81-22.272-5.355-26.134.12-1.02 4.347 8.936 8.808 19.24 3.2 7.39 7.373 15.373 10.11 21.596 2.493 5.665 3.695 9.897 3.83 10.407.256.975.09 3.722 1.478 5.956 2.27 3.658 3.72 6.45 1.608 6.45m-23.15-7.216c.668-1.725 2.8-2.13 3.47 1.705.307 1.748.494 4.823-.187 5.53-.41.425-1.492-.654-2.033-1.557-.32-.532-1.494-5.053-1.25-5.678m31.93 2.06c.06.213.577 2.3.98 3.825 1.142 4.307-5.047-.352-5.46-1.373-.506-1.252-.232-3.14.563-4.185 1.924-2.528 3.476.185 3.918 1.734m32.153 4.59c.27-.71 1.86-1.52 3.34-2.027.378-.13 1.003-.48 1.73-.244.495.16 1.293.7 1.09 1.348-.17.554-1.216.512-1.86 1.043-.262.216-1.335 1.087-2.47 1.413-.715.205-.72-.1-1.064-.478-.236-.26-1.016-.394-.765-1.055m-76.064 2.15c-.068-.008-4.57-1.66-9.315-3.74-3.535-1.552-6.593-3.5-8.838-4.828-1.587-.94-3.08-1.486-2.684-1.73.264-.167 2.956.285 6.107 1.44 3.613 1.323 7.727 3.677 11.138 5.42 3.52 1.798 6.264 2.974 5.178 3.463-.257.117-.916.04-1.584-.026m70.81-1.032c.54-.336 1.133-.007 1.46-.062 1.295-.22 1.076.823 1.882 1.042.156.042.5.442.394.583-.177.236-.986.29-1.446.69-.574.502-.975 1.28-1.992.73-.975-.524-1.49-2.24-.298-2.982m-41.05 1.98c-.61.916-2.555 1.447-4.2 1.658-1.2.155-2.228.37-2.548-.694-2.1-6.945.298-5.873 2.516-4.536.388.234 4.763 2.774 4.23 3.57m-187.84-39.023l.528.37c.02 0-3.42.44-5.774 1.71-2.283 1.228-3.807 2.97-3.765 3.24.15.998 1.45 1.574 2.35 2.347 1.606 1.376 3.324 2.722 4.677 3.568 3.49 2.18 7.673 4.733 11.457 7.314 9.174 6.257 17.067 12.91 17.907 13.498 6.68 4.693 14.178 8.374 14.014 10.562-.067.9-19.77 1.012-21.84.986-5.93-.078-10.703-1.574-20.475-6.343-4.628-2.258-10.692-6.422-13.907-12.176-3.298-5.908-2.247-12.402 1.178-17.75.983-1.537 1.567-2.848 2.848-3.924.822-.69 1.925-1.55 3.378-1.963 1.25-.355 3.837-.41 4.828-.695l2.596-.745zm220.88 44.263c-.967-1.233.29-3.275.667-3.882.175-.28 2.626-.346 3.006-.245.826.223.81.85.84 1.272.068.887-1.142 2.405-2.41 3.002-.865.407-1.85.172-2.102-.148M297.99 430.45c1.518.135 5.79.17 8.263 2.045 4.15 3.15 8.088 6.48 1.537 5.995-2.72-.203-5.736-1.254-8.65-1.886-2.267-.49-4.608-.442-5.836-1.39-1.436-1.108-1.003-2.19.206-3.242.876-.764 1.795-1.762 4.48-1.523m116.628 6.858c-.05-.866.903-1.097 2.563-1.104.98-.003 1.1 1.698 1.07 2.708-.015.54-.258.377-.775.754-.173.126-.336.235-.488.328-1.8 1.083-2.226-.148-2.37-2.686m57.166 1.914c.73-1.724 3.418-3.97 5.304-5.342 1.04-.754 2.187-2.145 3.524-2.745 1.614-.723 3.048-2.98 4.43-3.788 1.614-.945 3.064-.38 3.22-.18.146.183-1.6 2.628-3.696 5.425-.985 1.316-2.59 2.206-3.857 3.357-1.286 1.165-7.303 4.65-7.683 5.448-.182.38-1.256-.135-1.49-.633-.22-.47.145-1.294.25-1.543m-101.577 4.24c-.052-.005-5.412-1.462-10.378-3.48-4.814-1.955-9.175-4.518-9.796-4.805-2.742-1.265-8.963-3.565-11.277-7.368-.677-1.115-1.445-2.944-.592-3.493.58-.373 8.34 3.123 9.276 3.513 4.55 1.894 10.534 5.735 11.376 6.316 2.437 1.68 7.672 4.276 12.086 5.746 2.394.798 7.283 1.16 5.848 1.3-.02.002.22 1.8-1.422 2.164-1.738.388-4.273.157-5.12.105m17.05.515c-.24-.034-2.51-.805-3.947-1.562-1.435-.756-1.796-1.708.31-2.046.333-.052 3.008-.6 6.194-1.395 2.168-.542 3.31-1.528 4.8-1.733 1.235-.17 2.96.38 3.484.513 2.047.525 1.092 1.086-.06 1.917-1.386 1.003-3.56 1.69-4.092 2.243-.44.456-1.516.504-2.043.783-1.584.837-2.92 1.52-4.645 1.28m21.68.515c-.03-.002-.68.08-1.12-.452-.564-.682-.84-2.162.043-3.6.602-.978 1.53-.476 1.944-.374.028.007.646.16.84.75.193.59-.036 1.618-.01 2.27.03.686.31 1.407-.718 1.407-.322 0-.652.03-.977 0m-78.013.515c-.422-.1-2.06.144-4.288-2.873-2.162-2.924-4.4-9.423-4.95-12.067-.34-1.634-2.643-8.424-4.628-12.36-1.448-2.87-2.747-3.1-2.896-4.236-.238-1.825 1.592-.698 2.482-.406 5.27 1.726 10.375 16.854 11.934 21.794 1.546 4.893 3.377 10.393 2.345 10.147m71.8-1.544c.622.726 1.03.59 1.122.92.233.84-1.346 2.036-2.1 2.603-2.56 1.926-2.01 1.927-5.396 1.414-2.32-.352-3.92-1.22-3.795-1.904.174-.938 2.8-.84 4.914-1.582 2.804-.982 4.53-2.3 5.254-1.45m-70.594-11.02c-1.495-3.626-4.205-10.917-3.116-14.09.313-.913 5.777 5.473 8.12 15.796.134.597.897 3.55 2.052 6.425 1.58 3.942 3.536 8.03 2.307 8.375-1.653.464-1.847-1.404-2.813-3.016-2.487-4.152-4.736-9.09-6.55-13.49m-86.223 12.018c.46-.327.325-1.16.775-1.335.937-.36 2.373-.104 3.537-.178 1.785-.116 1.493 1.927-.102 3.51-.997.99-3.53 1.936-5.054 2.487-2.697.976-2.6-1.243-1.4-2.93.545-.767 1.668-1.144 2.245-1.554m118.602 5.223c-.265-.083-2.872-.795-6.05-2.134-1.552-.654-6.37-2.925-10.03-5.07-.987-.576-5.015-2.434-5.122-3.14-.197-1.296-.73-2.573-.077-2.99.59-.377 2.722.722 4.694 1.438 1.634.593 3.16.778 3.614.927 2.713.888 5.523 2.555 8.424 3.785 3.5 1.486 6.983 2.598 8.613 4.385.595.653-.753 1.464-1.493 2.8-.41.74-1.73.266-2.572 0m-10.475 13.034c-.98-.322 17.08-11.372 17.714-12.002 1.497-1.486 3.946-3.575 5.66-4.675 1.992-1.28 5.09 3.474 4.635 4.24-.17.287-2.598-1.65-4.59-1.8-.936-.068-2.49 1.117-4.577 2.53-2.693 1.824-6.716 4.048-9.884 6.33-3.548 2.555-6.44 5.602-8.166 5.995-.32.072-.55-.538-.79-.618m51.814-8.91c-1.22-.617-2.854-2.176-2.477-2.727.92-1.34 6.522-.58 11.59-3.555 1.488-.874 3.14-3.42 5.11-4.414 2.58-1.3 5.815-1.34 8.572-3.095 4.127-2.625 8.31-5.324 12.24-7.302 1.3-.653 4.882-2.964 9.34-4.034 1.053-.253 1.93.245 3.09.375 1.238.14 2.763-.094 3.914-.614 3.69-1.67 6.676-4.035 9.482-5.85 2.93-1.897 5.642-4.727 6.534-3.805 1.005 1.042 2.03 2.665 1.077 3.87-1.014 1.285-4.09 2.16-5.708 3.463-3.99 3.215-6.327 4.816-10.715 7.895-1.59 1.115-3.187.454-3.685.24-.184-.08-.394-.59.174-.975 1.085-.734 3.54-1.627 4.112-2.504.596-.916-1.412-1.238-2.248-.895-3.053 1.252-10.19 6.105-15.787 6.848-.02.003-5.4 1.406-10.637 4.053-6.63 3.35-13.447 8.137-13.656 8.26-3.34 1.953-6.58 3.202-8.298 4.177-.824.47-1.045 1.087-2.024.59m-59.933-8.282c2.963-.027 7.167 2.094 10.404 3.884 2.438 1.35 4.507 2.315 4.085 3.13-1.225 2.373-3.95 3.422-6.512 2.907-1.604-.32-2.944-1.66-4.43-2.427-1.453-.748-2.98-.98-3.742-1.926-.607-.755.065-1.425-.006-2.206-.11-1.22-.763-3.35.2-3.36m157.94 11.964c-1.555-2.115-3.028-4.902-3.456-5.6-.855-1.39-1.255-3.026-2.12-3.273-.872-.248-1.182 1.176-1.76 2.374-.58 1.2-1.427 2.174-1.655 2.062-4.698-2.317-3.08-12.405-1.71-13.194.42-.24.214-1.893.135-3.357-.07-1.293.06-2.44-.65-2.35-.195.026-2.414 1.228-4.612 2.976-3.664 2.913-8 7.095-8.87 7.428-1.947.74-2.194-.784-2.524-1.11-.846-.835 1.706-2.62 3.155-3.657 1.077-.77 2.068-2.365 3.555-3.573 1.384-1.124 2.808-2.546 5.976-4.786 4.106-2.902 10.7-3.437 15.704-1.397 1.493.608 6.012 2.67 5.31 5.317-.135.515-.988 1.998-2.188 2.556-2.14.994-4.943 1.167-3.607 2.753.612.725 2.654.558 4.617.937 4.02.776 9.185 1.886 11.374 3.934 4.068 3.806 3.027 9.543-.147 11.927-2.174 1.63-5.86.978-8.868 1.176-1.695.11-3.667 1.605-5.06 1.554-1.083-.04-1.634-1.38-2.6-2.693m-260.245 3.057c0-2.886.047-4.257 2.154-6.822 1.808-2.202 4.774-4.076 6.63-3.522.98.294.707.975.678 1.67-.044 1.046-.532 2.57-2.024 3.91-.896.807-2.634 1.432-3.51 2.17-1.14.958-1.418 1.94-2.357 2.4-.595.293-1.228.195-1.57.195m86.423-5.076c-3.35-1.577-7.185-2.98-11.11-4.33-1.654-.57-9.796-3.877-18.292-5.76-7.674-1.7-15.822-1.928-18.46-2.257-.606-.076-.692-.662-.672-.698.702-1.26 2.8-1.638 5.082-2.115 2.843-.594 6.134-1.1 9.24-.853 3.955.315 7.064 1.414 7.208 1.43 2.926.348 14.526 6.218 14.52 2.79-.004-2.093-1.105-4.16-1.98-6.2-.137-.32-3.138-5.686-5.91-11.69-3.345-7.25-6.49-15.34-5.602-15.454 2.108-.27 3.187 2.96 5.224 7.34 1.35 2.9 3.635 6.22 5.058 9.653 1.093 2.636 1.782 5.297 3.082 7.61 1.44 2.56.964 5.513 1.702 7.414.822 2.115 2.675 4.104 3.08 4.116.064.002 4.385.187 10.1 2.49 7.652 3.085 16.762 7.28 18.185 9.054.623.776-.563 2.003-2.113 2.75-2.827 1.357-3.028 1.772-3.55 2.04-.606.31-3.776-2.148-14.792-7.33m4.487 12.844c-.705.2-2.27-.845-3.35-1.256-4.45-1.69-10.915-5.4-14.215-6.51-2.017-.68-10.898-4.093-20.062-6.052-11.782-2.518-25.082-2.793-24.945-3.536.843-4.578 1.68-5.57 6.557-5.41 5.704.188 15.83 2.058 21.238 3.224 10.742 2.318 22.153 5.957 30.04 10.116 1.423.75 8.098 2.528 9.902 4.99 1.235 1.683-3.288 3.902-5.165 4.434m-84.736-8.282c.29-.347 2.22-1.51 3.424-1.498.918.01 2.45 3.142 2.262 4.03-.232 1.112-1.7 3.674-5.896 6.126-1.298.76-2.45 1.57-3.224 1.204-2.234-1.06-1.363-4.18.053-6.25.79-1.157 2.394-2.438 3.38-3.612m73.898 13.99c-.88-.164-4.988-2.09-10.38-4.175-9.94-3.84-18.67-6.238-29.366-7.59-2.916-.37-6.5.506-8.318.32-3.24-.327-3.9-1.406-4.117-2.03-2.097-6.022.93-5.42 10.575-4.425 4.384.454 9.935.647 14.622 2.22 4.107 1.376 8.987 1.955 13.912 3.484 9.227 2.865 18.257 6.523 20.145 7.09 3.15.943-.562 1.875-1.98 3.066-1.825 1.53-2.924 2.44-5.092 2.04m61.094-3.4c-1.378-.742-2.663-1.985-4.337-2.273-2.29-.394-4.658.664-6.228 1.512-.856.46-1.468.56-2.415 1.38-.764.658-2.588 2.064-2.45.887.02-.167.622-.706.697-.986.058-.222 1.242-.766 2.523-1.735 2.478-1.872 4.752-3.112 6.722-2.663 1.2.272 5.197 1.174 7.734 2.486.396.205 2.454 1.738 4.31 2.954 3.247 2.124 2.054 2.683.582 2.15-.62-.223-1.532-1.022-2.636-1.604-1.613-.85-3.514-1.573-4.504-2.107m22.1 4.43c-.677-.117-.67-1.347-.416-1.758.44-.71 1.405-.637 2.342-.875 2.206-.56 4.712-2.327 6.557-3.787.965-.763 1.535-1.94 2.6-1.98 2.817-.108 4.866 1.06 4.594 2.077-.108.4-.01.955-1.2 1.132-2.333.346-3.488 1.697-5.236 2.734-1.67.987-3.846 1.855-6.306 2.193-.962.13-1.835.453-2.937.263m-96.954 1.774c-4.8-1.796-10.654-3.842-16.53-5.098-1.008-.215-4.89-1.335-8.946-1.762-5.214-.548-10.715-.41-10.76-.57-1.163-4.09-.43-3.803 5.57-3.658.085.002 7.774.47 14.396 1.468 4.68.703 8.826 1.997 9.38 2.14 4.032 1.035 9.826 3.103 13.754 5.134 1.15.594 2.734.82 3.33 1.47 1.194 1.303.348 3.333-1.582 3.614-1.704.247-4.12-1.056-8.612-2.738m-61.526-1.996c.298-3.44 2.666-4.66 3.88-5.416 1.154-.715 2.61-1.108 3.728-.427.472.287.384.943.598 1.4.47 1.006.87 2.064 1.09 3.284.248 1.382-.615 1.765-1.318 2.714-.482.65-.325 2.06-1.92 2.275-.75.1-1.956 1.575-3.05 1.266-.657-.184-1.245-1.89-1.75-2.46-.548-.616-1.388-1.143-1.258-2.636m75.8 7.474c0-.98-1.017-1.547 0-1.547 0-1.59 3.64-1.864 3.64-3.127.878 0 3.6-1.258 3.6-2.063.88 0 3.602-1.257 3.602-2.06h1.065c0-.924 4.63-3.045 4.63-5.192.98 0 2.058.14 2.058 1.03-2.23 0-2.14 3.13-3.6 3.13 0 2.193-3.088 2.455-3.088 3.608-2.11 0-3.18 2.06-5.696 2.06 0 .922-2.57.78-2.57 2.063-1.894 0-1.736 2.098-3.64 2.098m74.424-4.915c.69-.702 2.226-.64 2.757.07.437.578-2.63 2.97-3.115 3.255-.572.334-1.645.47-2.604.873-1.518.64-2.992 1.51-3.558 1.564-3.093.3.192-1.014 1.94-2.397 1.62-1.28 2.758-1.51 4.582-3.364m-114.12-3.185c3.222.144 6.227.03 9.345.644 2.718.536 5.437 1.096 7.105 2.187 1.44.942 1.348 3.367 2.183 4.233 2.04 2.116 2.03 2.692.452 2.268-.668-.178-1.245-.7-2.665-1.092-2.093-.58-5.01-2.34-8.325-3.01-3.717-.746-8.523-.96-11.63-1.654-3.328-.742-3.697-1.22-3.89-2.553-.565-3.84 1.752-1.274 7.424-1.022m-24.496 10.313c-.003.882-.043 2.373-1.17 2.65-1.238.304-2.82-.6-3.462-.988-3.472-2.102.44-7.517 3.006-7.47 1.343.023 1.635 1.985 1.626 5.81m-46.377 2.94c0-1.1.52-3.608 1.545-3.608 0-1.828 2.61-2.426 2.61-3.645 1.505 0 1.834-1.547 3.6-1.547 0-.64 2.06-.98 2.06-2.062 1.397 0 1.73-1.03 3.122-1.03 0-1.08 2.572-.335 2.572-1.545.438 0 1.028-.606 1.028-1.032h6.21c0 1.68 1.543 2.464 1.543 4.123 1.28 0 1.132 2.578 2.06 2.578 0 1.504-2.06-.302-2.06-1.547-.967 0-.945-1.546-2.57-1.546 0-1.053-2.06-.49-2.06-1.544-1.472 0-6.21-.05-6.21 1.545-1.51 0-1.718 1.033-3.636 1.033 0 1.093-2.573 1.302-2.573 2.576-1.07 0-1.797 2.614-3.6 2.614 0 1.753-2.095 2.022-2.095 3.09-1.183 0-.615 1.547-1.544 1.547m320.356.517c-.426-.044-3.062-.922-4.945-1.707-3.034-1.265-6.266-3.713-9.786-5.762-4.98-2.9-10.293-5.586-14.33-8.034-4.065-2.464-8.8-4.763-13.035-7.42-8.188-5.14-15.463-9.664-18.93-11.19-2.957-1.303-5.893-2.87-7.672-4.125-2.773-1.958-3.818-3.433-6.52-3.17-2.76.267-5.73 3.222-10.62 6.707-4.255 3.033-9.273 4.822-13.462 6.63-1.73.748-3.13 3.21-5.09 3.074-.94-.064-1.77-.326-2.436-.82-.51-.378 5.508-3.146 12.206-6.63 4.295-2.236 8.754-4.967 12.33-6.894 3.31-1.785 5.358-3.68 5.815-3.973 2.33-1.5 10.562 3.96 21.045 11.08 6.536 4.438 15.852 8.905 22.52 13.228 7.593 4.922 18.028 10.497 26.262 14.946 4.32 2.333 8.97 4.3 6.65 4.06m-234.112-2.492c2.512.614 4.644.834 4.4 1.747-1.056 3.977-5.97 1.637-9.018.873-3.896-.976-8.307-1.39-10.68-2.198-6.06-2.062-4.735-4.81-1.232-4.693 5.12.17 15.23 3.954 16.53 4.272m196.82 1.818c-3.003-1.533-6.21-3.482-7.09-4.082-1.078-.73-3.5-2.264-5.456-3.51-.952-.608-1.62-1.25-2.298-1.51-.767-.3-1.52-.203-2.292-.68-.773-.476-.88-1.362.762-1.482.8-.058 2.783 1.046 5.266 2.234 4.278 2.05 10.04 5.027 13.783 7.643.984.687 2.123 1.473 3.13 1.913.733.32 1.305.547 1.197.914-.09.306-.75 1.033-1.78 1.03-1.097-.004-2.408-1.03-5.222-2.47m-86.78-184.684c.556-1.83 1.614-.63 3.987-3.87 4.69-6.405 11.9-17.855 12.066-17.904.41-.122 9.293-11.855 18.213-24.854 2.654-3.866 4.9-8.585 7.44-12.216 3.778-5.398 7.71-9.61 10.045-12.83 1.597-2.205 2.428-4.056 2.555-4.436 2.734-8.106 1.422-7.044-.933-9.702-1.07-1.208-3.115-4.766-3.696-7.54-1.444-6.906-2.034-13.007 2.418-15.445.728-.4 1.22-1.317 2.212-1.474 1.114-.177 4.307-.652 4.63-7.252.016-.325 1.25-13.88 2.933-27.95 1.752-14.65 4.938-29.498 5.85-30.78 1.032-1.45 1.4-.873 1.66 2.36.156 1.953.082 4.724-.05 7.715-.078 1.792-.54 2.31-.805 3.5-.766 3.44-.06 7.314-.013 10.568.054 3.69-.506 6.586-.793 7.16-.956 1.92-1.03 7.56-1.764 13.562-.963 7.865-2.414 16.568-.862 19.895.947 2.032 3.25 1.663 4.252 2.815 1.054 1.21.75 6.19.74 9.964-.003 1.165.036 3.48.758 3.617.816.157 1.338-1.252 2.68-2.523 1.52-1.44 3.684-3.21 6.228-4.95 2.78-1.9 9.21-7.633 16.422-16.58 2.43-3.014 5.636-5.698 8.676-8.71 3.466-3.428 8.73-6.072 12.22-9.59 1.2-1.212 3.056-2.696 3.976-4.277.98-1.684 1.023-3.465 2.202-4.734 1.265-1.36 2.98-1.172 3.986-2.624 8.217-11.854 17.402-19.88 17.985-21.744.17-.54 2.205-1.83 3.872-2.69 1.298-.67 3.798-.71 2.34.593-.913.813-3.318 4.263-6.59 9.36-1.762 2.748-5.312 4.62-7.48 8.17-1.99 3.258-3.45 7.54-5.572 11.272-3.294 5.792-7.52 11.864-10.78 17.946-11.963 22.317-26.786 62.256-29.567 89.74-.393 3.885-1.82 12.627-1.384 22.054.685 14.78 4.307 30.11 6.81 37.956 1.435 4.5 3.21 11 5.29 14.87 5.246 9.76 14.968 20.967 17.227 22.615.862.63 8.906 10.31 17.987 18.377 8.27 7.346 17.816 12.352 20.148 13.765 1.41.854 11.27 8.35 8.98 8.994-3.876 1.09-24.292-15.91-40.903-17.87-.362-.043-1.228-.114-2.487-.206-5.607-.406-19.02-2.798-30.447-3.47-4.954-.292-9.655-.96-13.063-.732-2.95.196-6.703.63-7.36 2.617-1.038 3.125 1.055 9.74 1.175 11.14.35 4.03-.768 8.363.024 10.242.363.863 3.713 2.068 5.35 3.906 1.854 2.082 2.017 4.77 2.38 4.993 1.818 1.118 2.978.162 4.46.793 4.813 2.054 3.438 5.976 5.24 7.132 4.305 2.764 7.652 2.17 10.19 3.97 1.877 1.336 2.693 3.278 3.71 5.225.66 1.264.89 2.735 1.627 3.745.562.77.888 1.605 1.806 2.112 2.345 1.297 5.925 1.764 7.75 3.236 2.474 1.994 4.386 7.662 4.357 12.13-.034 5.477-3.588 9.086-5.857 11.936-1.032 1.295-1.42 2.528-1.756 3.543-.452 1.372-.6 4.133 1.31 6.024 3.73 3.693 12.117 5.654 20.628 9.832 9.347 4.586 19.33 10.275 27.15 13.6 6.42 2.73 13.896 4.687 20.89 4.748 2.64.023 6.34-.575 8.063-3.27 8.46-13.232-15.195-19.132-15.02-10.725.098 4.712 4.323 4.04 6.783 2.33.386-.268.938-1.228.97-1.82.084-1.475.64-3.32 1.068-1.805.443 1.57 1.684 5.752-.22 7.925-1.23 1.405-3.41 2.93-5.785 3.433-2.69.568-5.598-.075-7.046-1.848-1.686-2.06-2.35-4.94-2.494-5.638-.24-1.146-1.093-3.802-.827-5.548.668-4.406 5.778-7.842 12.032-8.044 6.856-.222 13.67 3.155 17.747 7.924 1.358 1.59 2.403 2.888 3.3 4.704.693 1.405 2.443 6.232 1.818 10.077-1.143 7.047-2.636 11.573-7.478 14.232-1.616.888-3.64.472-5.806 1.342l-436.92-.224c-2.893-.22-4.223-.632-4.43-.646-1.07-.068-3.133-2.083-3.84-4.785-.51-1.953-.044-4.387.417-6.817.462-2.43.92-4.855 2.8-6.148 1.412-.973 3.36-.43 5.768-.4.08.002 1.777.838 2.35 2.09.278.612.747 1.14-.255 2.07-.586.547-2.03.67-2.263 1.096-1.643 2.97 8.35 3.293 11.762.416 4.278-3.606 6.31-4.548 7.642-7.203.813-1.62.947-3.356 1.516-4.575.89-1.9 2.145-2.828 3.377-2.298.79.34.955 1.74 2.685 3.496 5.505 5.585 16.02 13.96 23.09 7.004 1.854-1.824 3.77-3.877 3.564-5.885-.22-2.15-2.917-3.195-6.076-1.822-1.112.484-1.61 1.887-3.212 3.11-1.924 1.47-4.167 2.385-4.15 1.807.026-.943 1.56-3.16 3.094-6.265 2-4.046 4.475-9.333 8.432-12.56 4.293-3.5 8.335-6.135 12.797-7.384 2.86-.802 5.994-.375 9.142-1.413.14-.046.275-.092.403-.14.37-.137-.89-8.91-.893-9.712-.016-4.885.083-9.994 1.792-14.393 1.66-4.272 5.11-6.922 1.044-7.007-2.954-.06-11.025 1.287-18.778 1.018-10.29-.356-17.937-4.377-20.35-5.1-9.83-2.938-21.523-11.254-27.742-19.39-2.55-3.337-3.924-6.822-5.506-9.924-1.616-3.166-4.453-9.002-3.106-21.935.092-.892-2.034.068-2.415-.51-1.237-1.882.51-3.378 2.848-5.514 5.574-5.09 16.94-10.993 16.8-14.056-.2-4.346-1.13-3.222-6.497-7.815-11.497-9.846-34.117-28.54-36.41-32.14-1.12-1.763-1.703-3.68-.925-3.844 4.75-1.012 34.626 26.943 38.15 27.662.717.146 12.842 13.533 12.897 6.185 0-.057 1.863-20.6 3.942-40.803 1.735-16.845 3.027-33.52 3.812-37.35.134-.652 4.26-44.693 5.975-60.267 1.52-13.78 3.35-27.306 4.39-41.33.412-5.567 1.037-10.458.767-14.207-.325-4.526-1.693-7.467-2.863-8.92-2.652-3.29-11.868 15.387-11.868 20.69-1.81 0-6.187 22.787-6.21 22.787 0 3.853-1.56 11.803-3.433 18.754-1.99 7.38-6.845 16.105-7.95 15.15-.077-.066-1.783-3.018.208-4.4 1.012-.704 1.74-6.015 2.59-11.468 1.05-6.758.48-15.72 1.75-23.26 2.268-13.44 3.912-25.96 4.117-26.59.98-3.018 14.072-29.713 14.072-29.774.018-11.2-.835-14.288-.125-14.492 1.586-.457 5.928 13.572 10.647 28.59 5.427 17.265 11.112 36 11.195 38.177.003.083 1.483 5.444 1.81 5.752.347.327 1.3 1.46 1.79 1.5.655.053 1.42.97 2.122.792 2.14-.544 4.005-2.98 6.293-4.57 3.814-2.653 7.778-4.87 8.635-6.088 1.944-2.76 10.362-5.375 10.362-9.83.152 0 5.516-9.313 7.522-9.405.462-.022 1.42.66.746 1.638-.466.676-1.158 1.545-1.836 2.24-2.947 3.02-5.804 10.43-6.036 17.866-.24 7.688 4.227 22.538 7.754 29.79 7.474 15.362 33.17 44.014 33.668 33.447.016-.356.676-1.094.52-1.805-.84-3.837-5.66-10.554-6.408-11.136-2.522-1.962-7.32-12.014-8.76-23.132-1.46-11.275.858-22.945-.917-22.136-1.492.68-2.512 2.215-3.56 3.03-1.347 1.05-2.553 1.296-2.868 1.038-.717-.588.332-3.56 2.475-6.323 1.308-1.686 4.754-5.196 8.73-8.967 2.635-2.5 5.692-4.55 7.837-8.285 5.668-9.863 11.92-20.805 17.59-30.2 4.27-7.08 8.402-12.992 10.618-18.525.732-1.826 1.39-1.645 1.6-3.468.902-7.904-2.67-17.797-4.49-25.8-2.43-10.68-2.688-22.507-4.766-31.667-.207-.91-3.272 3.23-7.248 7.372-2.99 3.115-9.325 8.135-11.17 12.913-2.255 5.834-1.853 11.62-2.083 16.027-.217 4.14-1.128 7.067-1.218 7.68-.592 4.015-4.882 9.657-9.944 14.23-5.22 4.714-14.005 11.822-20.02 21.188-6.013 9.366-9.26 20.99-12.26 20.828-1.28-.07-2.15-3.44-1.946-7.988.115-2.55 1-5.473 1.288-8.39.078-.8 6.394-15.134 4.523-15.723-2.784-.878-5.965 2.053-9.556 3.705-4.07 1.874-8.378 2.487-8.944 1.79-.635-.78 5.237-8.15 13.854-14.768 4.424-3.4 9.535-6.207 13.666-9.665 4.985-4.173 8.64-8.955 9.202-12.46.31-1.94 1.207-19.144 2.572-19.144 0-3.55 3.602-6.285 3.602-7.768.338 0 1.914-1.524 2.093-1.545 1.485-.18 4.513-2.088 7.557-5.84 2.86-3.533 2.43-6.522 5.277-11.13 1.93-3.12 5.956-3.26 7.178-6.882 1-2.96 1.587-6.015 3.163-8.808 1.39-2.464 3.786-4.68 4.592-7.11 1.426-4.3.754-9.017-.39-10.442-2.463-3.064-2.96-5.342-3.243-6.698-.362-1.743.183-1.27 7.965-.94.148.005-2.04 2.56-2.093 5.772-.062 3.877 2.45 8.712 2.513 11.18.184 7.03 1.934 14.486 3.43 22.082 3.464 17.574 8.33 35.897 8.99 51.432.033.775.16 5.187 1.4 8.394.485 1.255.694 2.414 1.805 2.966.564.28 1.938.522 2.49.016.305-.277 9.952-6.435 17.935-11.718 5.286-3.498 10.316-6.3 10.47-6.91.327-1.283 9.357-6.223 17.66-12.502 4.656-3.522 9.012-7.972 11.65-11.2 3.6-4.412 16.682-20.322 18.73-16.553 1.18 2.17-3.13 5.31-7.297 9.486-3.85 3.858-8.86 9.45-11.882 14.31-1.18 1.9-1.166 3.422-2 5.086-1.13 2.264-3.45 11.518-2.448 20.44 2.01 17.878 15.03 24.653 30.652 25.607 5.89.36 14.165 1.648 14.68.52 1.127-2.462 37.564-34.398 37.28-30.258-.008.13-.794 2.317-2.1 4.39-.63 1-1.725 3.443-3.495 5.023-3.156 2.818-7.003 5.15-7.395 5.31-2.178.878-6 9.26-10.95 19.707-8.83 18.63-18.79 38.635-25.356 58.925-4.546 14.05-6.92 28.132-8.564 42.467-.526 4.598.366 8.65.06 13.053-1.53 22.04-.4 37.958 4.604 58.85.85 3.55 1.348 2.376 1.637 2.766.74.996-1.143-4.958-.744-6.275" fill-rule="evenodd"/><g style="line-height:125%" font-size="40" letter-spacing="0" word-spacing="0" font-family="Cloister Black"><path style="-inkscape-font-specification:Cloister Black" d="M64.688 533.615c-.06.06-.09.242-.09.545v.454c-.062.182-.092.334-.092.455-.424 2.423-1.757 4.786-4 7.09-2.06 2.06-4.363 3.24-6.908 3.544h-.545c-.06.06-.242.09-.545.09h-.546c-.06.06-.242.092-.545.092-.485.12-.85.18-1.09.18h-1.364c-.06 0-.152-.03-.273-.09h-.727c-.06 0-.12-.03-.182-.09h-.18v39.267l.363.182c2.06.242 4.242-.515 6.544-2.273 2.303-1.818 4.12-3.605 5.454-5.363l1.91-2.455c.727-.97 1.272-1.727 1.636-2.272l.818-.182v1.274c0 5.15-2.818 9.968-8.453 14.452-.363.303-.94.758-1.726 1.364-1.758 1.393-3.727 2.393-5.91 3-.302.06-1.817.423-4.543 1.09-2.726.303-4.484.454-5.27.454-6.85 0-13.06-2.03-18.635-6.09-5.818-4.18-9.21-9.665-10.18-16.452v-.273c-.06-.06-.09-.182-.09-.364v-.364c-.062-.06-.092-.182-.092-.363v-.274h-.09v-.364c-.062-.06-.092-.15-.092-.272v-1.637c0-.18.03-.363.092-.545.06-.242.12-.394.182-.454v-.546c0-.06.03-.12.09-.182.06-.12.09-.242.09-.363 0-.182.062-.515.183-1 0-.242.06-.606.182-1.09 2.302-9.333 7.483-16.483 15.542-21.452-.12 0-.272-.03-.454-.09h-.546c-.12 0-.272-.03-.454-.09h-.545c-.364 0-.576-.03-.637-.092h-.727c-.243 0-.455-.03-.637-.09h-.546c-6.544 0-11.543 2.635-14.998 7.907l-.728-.364c.182.062.243.092.182.092l-.09-.09v-.182l-.092-.09v-.092c0-4.363 1.727-7.97 5.18-10.817 3.698-3.03 7.576-4.937 11.636-5.725.243-.06 1.09-.182 2.545-.364.182 0 .424-.03.727-.09h.637c.242-.06.666-.09 1.272-.09h1.09c.06.06.212.09.455.09h.727c.18.06.333.09.454.09h.818l23.815 3.91c.12.12.18.212.18.272h.91c0 .06.06.09.182.09h1.454c.182 0 .364-.03.545-.09.244-.06.426-.09.547-.09l.818-.273.818-.274c.182-.12.424-.273.727-.454.364-.243.606-.425.727-.546l.364-.363c.122-.182.273-.424.455-.728.182-.302.303-.515.364-.636.12-.183.24-.364.363-.546l.18-.273h.183l.09-.09v-.09h.183l.09-.092h.18c.062 0 .123-.03.183-.09h.182c.06 0 .12-.03.182-.09h.09v1.817m-24.814 11.362v21.45c0 3.152-1.03 6.03-3.09 8.636-2.06 2.606-4.273 4.727-6.636 6.363-.12.12-.242.182-.364.182-.18.182-.393.333-.636.454l-.182.09-.18.183c1.938 1.576 4.028 2.727 6.27 3.454 2.243.726 4.545 1.09 6.91 1.09h.817c.18 0 .515-.06 1-.182.06 0 .212-.03.454-.09h.455c.06 0 .213-.03.455-.092h.364v-40.812l-5.637-.727m-11.998-2.273c-1.212.727-2.09 1.515-2.636 2.364-1.213 1.757-2.243 3.605-3.092 5.544-.06.122-.333.758-.818 1.91-.364.908-.757 2-1.182 3.27-.12.79-.363 1.94-.727 3.455l-.27 2.182c-.062.484-.092 1.21-.092 2.18 0 1.818.242 3.697.727 5.636.848 2.424 1.606 4.242 2.272 5.454.06.182.09.303.09.363.062.06.153.152.274.273l.274.273c0 .06.06.18.18.362.122.122.577.758 1.365 1.91.423.363.968.938 1.635 1.726.12.06.242.212.364.455.12.18.18.303.18.363.06.06.152.09.273.09.06 0 .152-.06.273-.18l.363-.364.18-.182c.122-.06.183-.12.183-.182l.273-.272.363-.364c.06-.12.15-.242.272-.364 0 .485.272-.363.818-2.545l.273-1.09c.18-.485.272-1.273.272-2.364v-28.815h-.09v-.09c-.06 0-.092-.03-.092-.092v-.09h-.09v-.183c-.122 0-.182-.06-.182-.18v-.274l-1.635-.182"/><path style="-inkscape-font-specification:Cloister Black" d="M85.09 532.07h2.09c-1.757 1.575-2.94 3.06-3.545 4.453-.606 1.394-1.06 3.212-1.363 5.454v15.998l12.362-10.362c1.818 1.454 3.212 2.878 4.18 4.272 1.03 1.575 1.79 3.333 2.274 5.272v27.996c-1.152 5.454-4 9.635-8.545 12.544-4.545 2.97-9.423 5-14.634 6.09h-.274c-.06-.06-.15-.12-.272-.182-.06 0-.243-.06-.546-.182h-.09c-.06-.06-.122-.09-.183-.09h-.09c-.06-.06-.122-.092-.182-.092l.545-1.362c8.423-2.788 13.635-7.242 15.634-13.362v-30.178l-3.454-3.18-6.908 5.635V583.7l2.818 3.362-7.18 6.18-7.09-6.18 2.817-3.363v-29.36l-4.727-.183v-4.817h5.09v-7.363c-.727-3.515-2.18-6.15-4.362-7.908l.636-.183c.182.182.424.273.727.273h.363c.06.06.18.09.363.09.546.183 1.303.546 2.273 1.092 1.03.545 1.756 1.12 2.18 1.727.06 0 .12.06.182.18.06.122.09.213.09.273l.364.364c2.485-3.15 5.303-5.03 8.454-5.636v-.18"/><path style="-inkscape-font-specification:Cloister Black" d="M123.41 547.613l11.818 12.18-15.634 13.725v9l7.544 3.635 5.636-4.18 1.272 1.726-12.18 9.543h-.364c-.303 0-.727-.09-1.272-.273-.546-.12-.91-.182-1.09-.182-.122-.06-.82-.545-2.092-1.454-.12-.06-.303-.212-.545-.455l-.273-.273c-.12-.12-.272-.212-.454-.273-.182-.12-.515-.303-1-.545-.424-.304-.97-.516-1.636-.638l-.818-.272c-.182 0-.424-.03-.727-.09-.243-.062-.515-.122-.818-.183-.303-.06-.606-.152-.91-.273-.242-.12-.817-.242-1.726-.363 2-2 3-4.362 3-7.09v-25.36c2.12-.787 4.272-1.908 6.454-3.363 1.818-1.21 3.757-2.666 5.817-4.363v-.18m-3.816 8.088v14.27c.363-.06.787-.302 1.272-.726l1.364-1.09c.12-.06.212-.122.272-.183.12-.12.212-.18.273-.18.06-.062.15-.122.273-.183l.18-.182c.062-.06.213-.182.456-.364.242-.18.424-.333.545-.454.545-.303 1.12-.697 1.726-1.182.606-.545 1.12-1.03 1.546-1.454l-7.908-8.272"/><path style="-inkscape-font-specification:Cloister Black" d="M176.827 529.615c1.333 2.788 3.394 4.454 6.18 5l30.633-1.273c2.242.182 5.484.485 9.726.91 2.97.423 5.696 1.756 8.18 3.998 2.303 2.06 4.09 4.575 5.364 7.545 1.15 2.666 2.09 5.484 2.817 8.453.122.303.243.788.364 1.454 0 .243.092.697.274 1.364.18.666.363 1.636.545 2.91.12.483.24 1.998.363 4.543.18 3.09.272 4.665.272 4.726v3.09c0 .728.03 1.243.09 1.546v6.09c0 .485-.03 1.242-.09 2.272-.06.97-.09 1.697-.09 2.182-4.788 1.818-9.787 5-14.998 9.544-.788-.243-3.273-.88-7.454-1.91-.848-.18-2.12-.453-3.818-.817-2.545-.545-4.484-.818-5.817-.818-1.94-.242-3.878-.364-5.817-.364h-2.272c-.12.062-.363.092-.727.092-1.03.06-2.544.212-4.544.455-1.03.12-2.484.424-4.363.91-4.423 1.15-8.665 2.907-12.725 5.27h-.273c-.06 0-.12.03-.182.092h-.545l-.09.09h-.637c0-.122.06-.364.182-.728.06-.182.122-.272.182-.272s.12-.06.182-.182c.06-.06.09-.12.09-.182 0-.06.03-.12.092-.182h.09v-.09l18.725-12.18c1.94-1.273 3.667-3.09 5.182-5.455 1.333-2.06 2.12-4.455 2.363-7.18v-.73c-.06-.12-.12-.392-.182-.817v-1.545c-.182-2-.273-3.03-.273-3.09v-.818c-.06-.364-.09-.637-.09-.82v-1.544c0-.97.03-1.94.09-2.908.12-1.334.303-3.333.546-6 .12-.606.332-1.575.635-2.908.485-2.182 1-4.06 1.545-5.636l-.545-.182c-.06.122-.152.182-.273.182h-.09l-.092.09h-.272c-.06.062-.152.122-.273.183-.12.06-.242.09-.364.09-2.847 1.94-4.604 4.303-5.27 7.09v.91c-.06.18-.09.484-.09.91-.062.605-.092 1.24-.092 1.907-.06.06-.09.243-.09.546v.545c0-.06-.03.455-.092 1.545l-.09 1.636c-.062 1.152-.092 2.182-.092 3.09v1.364c0 .606.03 1.03.09 1.273v2.727c.062.848.153 1.697.274 2.545-.485 4.12-2.12 7.696-4.91 10.726-2.726 2.97-5.846 5.636-9.36 8l-3.364 2.272c-1.455.97-2.515 1.606-3.182 1.91h-1.18s.483-.486 1.453-1.455c.364-.364.88-.91 1.545-1.637 2.242-2.545 3.606-4.21 4.09-5 1.334-2 2-3.998 2-5.998v-.364c-.06-.06-.12-.242-.18-.545-.062-.303-.092-.576-.092-.818v-.364c-.12-.12-.182-.24-.182-.362v-.364c-.12-.12-.212-.333-.273-.636-.06 0-.09-.06-.09-.182-.546-1.272-1.304-2.333-2.273-3.18-.91-.85-1.97-1.274-3.18-1.274l-1.092-.182c-.485.303-1.182.728-2.09 1.273-.364.303-.97.727-1.82 1.272l-.27.273-.183.182c0-2.727 1.09-4.908 3.272-6.545 2-1.393 4.424-2.09 7.272-2.09h.544l2.454-.182c.182-9.09 4.757-16.028 13.726-20.815l-16.725-.182c-2.062 0-4.092-1.12-6.09-3.363-1.577-2.12-2.486-4.272-2.728-6.454v-1.637c0-.182.06-.515.182-1l.09-.09v-.546c.06-.243.09-.394.09-.455.062-.06.122-.15.183-.272v-.455m44.72 42.812c-.12.06-.575.182-1.362.364-1.03.183-2.485.668-4.363 1.455-.667.243-1.515.818-2.545 1.727v5.272c5.272.788 9.756 1.637 13.452 2.545.97.242 2.423.636 4.362 1.18 0-.06.03-.21.09-.453v-.364c0-.12.03-.273.092-.454v-2.91c-.06-.182-.09-.424-.09-.727v-1.455c-.122-.606-.183-1.09-.183-1.454l-.27-1.363c-.668-.484-1.76-1.12-3.274-1.908-1.09-.667-2.272-1.03-3.545-1.09-.12 0-.27-.03-.453-.092h-.454c-.122 0-.273-.03-.455-.09h-.454l-.546-.183m-10.362-28.905l-2.454.182c-.12.303-.334.758-.637 1.364 0 .12-.06.333-.18.636-.123.303-.213.545-.274.727-.12.546-.363 1.455-.726 2.728v.363c-.06.183-.12.365-.182.547v1.636c-.06.242-.09.545-.09.91-.183 1.272-.274 2.15-.274 2.635v.91c0 .423-.06 1.06-.18 1.908-.062.788-.092 1.363-.092 1.727-.06 1.575-.09 2.696-.09 3.363v1.363c0 1.393.03 2.302.09 2.726.06.424.12.94.182 1.546.06.545.12 1.03.18 1.454 0 .182.032.394.092.636v.727c-.485 2.847-1.697 5.877-3.636 9.09l2.09-.183c.243.182.698.273 1.364.273h1.546c.848.12 1.393.182 1.636.182h.818c.182.06.454.09.818.09v-37.54m19.18 17.998c-.122.12-.304.273-.546.454-.243.182-.394.303-.455.364-.363.06-.757.212-1.18.454-.365.182-.668.394-.91.637-.122 0-.303.06-.546.18-.243.06-.425.122-.546.182-1.454.485-2.88.727-4.272.727-2.727 0-5.545-.88-8.454-2.637v11.09c1.88-.788 3.333-1.303 4.363-1.545.547-.182 1.274-.334 2.183-.455.182 0 .515-.03 1-.09h1.09c.485 0 1.212.06 2.182.18.485 0 1.242.122 2.272.365.485.06 1.212.303 2.182.727.24.12.605.272 1.09.454.12.06.303.15.545.272.242.06.424.15.546.273l-.545-11.635m-17.088-17.634v14.09c.303 1.453.97 2.453 2 2.998.848.546 2.06 1 3.635 1.364.788.182 1.242.273 1.364.273h1.636c.12 0 .242-.03.363-.09h.546c.06 0 .152-.03.273-.09h.182c1.455-.304 2.545-.637 3.272-1 .728-.425 1.758-1.092 3.09-2 0-.122.062-.364.183-.728 0-.06.03-.212.09-.454v-.455c0-.06.03-.12.092-.182v-1.09c-.06-.06-.09-.18-.09-.363v-.455c-.062-.06-.092-.18-.092-.363-.424-2.06-1.455-4.03-3.09-5.91-1.637-1.94-3.303-3.332-5-4.18-.12-.06-.273-.122-.455-.182-.12-.06-.363-.152-.727-.273-.12-.12-.485-.243-1.09-.364-.122 0-.303-.03-.546-.09h-.636c-.243 0-.606-.06-1.09-.18h-1.273c-.06 0-.243-.032-.546-.092h-.545l-1.545-.182"/><path style="-inkscape-font-specification:Cloister Black" d="M259.157 548.158l6.635 6-2.636 3.453v25.543c0 .97.12 1.758.364 2.363.303.546.848 1 1.636 1.364l2.09-1.727 1.364 1.363-8.09 6.908c-1.454 0-2.666-.484-3.636-1.454-1.394-1.394-2.15-2.91-2.272-4.545-.06-.242-.09-.606-.09-1.09V557.43l-2.092-3.636 6.727-5.636m3-14.634h5.453l-7.272 9.816 1.818-9.816"/><path style="-inkscape-font-specification:Cloister Black" d="M302.626 541.795h.91c.908.364 1.484.788 1.726 1.273.485.97.758 1.697.82 2.18 0 .062.03.153.09.274v1.454c-.06.182-.09.394-.09.637l-.274 1.09v.273c-.06.06-.09.12-.09.182v.182c-.062.06-.092.12-.092.18l-9.817 14.09 8.453 5.272v17.453c-2.606 1.09-4.485 2-5.636 2.726-2.06 1.213-3.757 2.365-5.09 3.456-.06 0-.152.06-.273.18-.12.062-.242.122-.363.183-.06 0-.12.03-.18.09-.062.06-.153.12-.274.182-.06.06-.12.09-.182.09-.666-.363-1.696-.848-3.09-1.454-.97-.363-2.06-.697-3.272-1-.122 0-.364-.06-.728-.18-.12 0-.272-.032-.454-.092h-.364c-.363 0-.636-.03-.818-.09h-1.636c-.182.06-.454.09-.818.09-.788.12-2.182.485-4.18 1.09-.486.182-1.244.607-2.274 1.273l-1.272-.91 10.816-15.816-8.27-5.09V555.52c2.908-.97 6.06-3.15 9.452-6.544l.546-.545.18-.18.092-.183.273-.273 9.362 3.364c.242.242.423.363.545.363h.272c.06.062.152.092.273.092.545.182.848.303.91.364h.635c.546 0 .91-.03 1.09-.09l2.183-.728c.363-.303.696-.515 1-.637.302-.18.575-.756.817-1.726v-1.727c-.06-.12-.242-.242-.545-.363 0-.12-.182-.334-.545-.637-.06-.303-.212-.484-.455-.545-.182-.12-.273-.212-.272-.273l-.273-.273v-.09c-.06 0-.09-.03-.09-.092v-.182c-.062 0-.122-.03-.183-.09-.06-.122-.09-.213-.09-.274v-.637c.06-.12.242-.394.545-.818.18-.242.454-.485.818-.727l.09-.09h.09v-.183m-11.997 29.087L281.81 583.7c.122.12.304.18.547.18.06 0 .15-.03.272-.09h.272c.848-.122 1.394-.182 1.636-.182.303 0 .576-.03.818-.09h1.364c.06.06.272.09.636.09h.727c.182.06.454.12.818.18.365 0 1 .092 1.91.274.424.12 1.06.333 1.91.636 1.27.485 2.514 1.09 3.726 1.818V574.7l-5.818-3.818m-6.635-4.454l5.09 3 8.09-11.635c-.243.242-.515.364-.818.364h-.455c-.182.06-.333.09-.454.09h-.546c-.06.06-.212.09-.454.09h-.818c.18 0-1.424-.21-4.818-.635-1.09-.303-2.696-.848-4.817-1.636v10.362"/><path style="-inkscape-font-specification:Cloister Black" d="M325.495 535.978v13.543h9.363v4.455h-9.544v28.542l4.272 3.636 3.272-2.454 1.273 1.453-9.725 8.453c-2-1.878-3.606-3.242-4.818-4.09-2-1.394-3.848-2.454-5.544-3.18.787-1.092 1.363-2.183 1.727-3.274.606-1.878.91-3.06.91-3.545V554.34l-3.365-.365.546-1.636 11.635-16.362"/><path style="-inkscape-font-specification:Cloister Black" d="M346.29 547.613h.183c.18.18.363.272.545.272h.182c.06.06.12.122.182.182.06.06.15.09.272.09.364.365.637.607.818.728.182.06.303.152.364.273l.273.273.27.273c.123.06.183.122.183.182.06.06.12.152.182.273.12.12.182.212.182.272 0-.18.09 0 .272.546.18.12.363.363.545.727.12.06.212.242.273.545l.18.546c.062 0 .122.06.183.182.062.12.092.242.092.363 0 .12.03.272.09.454.122.18.183.303.183.363.06 0 .12.152.18.455.123.303.183.484.183.545.06.06.12.152.182.273v.272l8.817-7.908 5.817 6.818.182.727-6 5.453-5.27-5.636-3.546 3.18v23.635c1.212 1.575 2.697 2.757 4.454 3.544l3.272-2.817 1.636 1.544-10.544 9c-3.09-3.334-6.514-5.788-10.27-7.364 1.09-.848 1.787-1.848 2.09-3 .727-1.03 1.09-2.272 1.09-3.726v-19.998c-.06-.06-.09-.18-.09-.363v-.364c-.06-.06-.122-.182-.182-.364 0-.243-.273-.85-.818-1.818-.364-.546-.818-.97-1.364-1.273l-2.09 1.09-.728-1.272 7.545-7.18"/><path style="-inkscape-font-specification:Cloister Black" d="M379.346 548.158l6.635 6-2.635 3.453v25.543c0 .97.122 1.758.364 2.363.302.546.847 1 1.635 1.364l2.09-1.727 1.364 1.363-8.09 6.908c-1.455 0-2.667-.484-3.636-1.454-1.394-1.394-2.152-2.91-2.273-4.545-.06-.242-.09-.606-.09-1.09V557.43l-2.09-3.636 6.726-5.636m3-14.634h5.453l-7.272 9.816 1.818-9.816"/><path style="-inkscape-font-specification:Cloister Black" d="M408.91 532.433h1.726c-2.606 2.424-4.12 4.666-4.545 6.726v18.633l12.363-10.18c1.636 1.515 2.97 3 4 4.454 1.21 1.636 2.03 3.393 2.453 5.272v28.63c-1.454.607-3.605 1.607-6.453 3-2.303 1.273-4.272 2.485-5.908 3.636-.06.06-.152.122-.273.182-.06.06-.182.09-.364.09-.182.183-.363.304-.545.365l-4-3.363c-3.878-2-8.06-3.576-12.543-4.727l2.272-4.454v-26.725h-4.908v-4.635h5.09v-8.09c0-.91-.424-2.15-1.273-3.727-.665-1.272-1.483-2.303-2.453-3.09l.546-.182c.06.122.18.183.363.183h.273c0 .06.06.09.18.09 1.152.304 1.91.576 2.273.82.667.362 1.363.786 2.09 1.27.122.122.213.183.273.183.06 0 .182.06.364.182.182.12.363.272.545.454 1.273-1.333 2.606-2.424 4-3.272 1.393-.91 2.878-1.424 4.454-1.545v-.182m3.725 23.088l-6.726 5.818v18.997c1.15.91 2.756 1.91 4.817 3 2.12 1.09 3.878 1.878 5.272 2.363V558.52l-3.365-3"/><path style="-inkscape-font-specification:Cloister Black" d="M440.413 547.613h.727l6.635 5.817c-.424 1.273-1.03 2.303-1.817 3.09l-.82.82-.18 23.723c0 .91.18 1.727.545 2.454.424.727 1 1.394 1.727 2h.09c0 .06.03.12.092.18.12.062.182.092.182.092.06 0 .12.03.18.09v.09h.183c0 .122.06.183.182.183h.18l.364-.455h.182l6.363-5.817v-22.723l-2.637-3.182 7.18-6.362 6.545 5.817.364.91-2.545 3.09v25.723s.15.455.454 1.364c.183.18.425.484.728.91 0 .12.06.18.182.18 0 .303.152.455.455.455 0 .06.06.15.182.273l1.908-1.364 1.273 1.183-7.817 7.453h-.454c-.06-.06-.15-.09-.272-.09-.06 0-.273-.06-.637-.182-.06-.06-.242-.152-.545-.273-3.03-2.06-4.545-5.12-4.545-9.18v-.18c0-.062.03-.123.09-.183v-.364c0-.06.03-.12.092-.182v-.09l-12.363 10.363-.182-.09c-.06-.062-.12-.122-.182-.183l-.09-.09h-.182c-1.454-1.152-2.726-2.395-3.817-3.728-1.03-1.393-1.727-2.908-2.09-4.544v-27.45l-1.728-1.82-1.454.91-1-1.09 8.273-7.545"/><path style="-inkscape-font-specification:Cloister Black" d="M487.05 535.978v13.543h9.362v4.455h-9.544v28.542l4.272 3.636 3.272-2.454 1.273 1.453-9.726 8.453c-2-1.878-3.606-3.242-4.818-4.09-2-1.394-3.848-2.454-5.545-3.18.788-1.092 1.363-2.183 1.727-3.274.606-1.878.91-3.06.91-3.545V554.34l-3.364-.365.545-1.636 11.635-16.362"/><path style="-inkscape-font-specification:Cloister Black" d="M515.935 547.613l11.817 12.18-15.635 13.725v9l7.545 3.635 5.635-4.18 1.273 1.726-12.18 9.543h-.364c-.303 0-.727-.09-1.272-.273-.546-.12-.91-.182-1.09-.182-.122-.06-.82-.545-2.092-1.454-.12-.06-.303-.212-.545-.455l-.273-.273c-.12-.12-.272-.212-.454-.273-.182-.12-.515-.303-1-.545-.424-.304-.97-.516-1.636-.638l-.818-.272c-.182 0-.424-.03-.727-.09-.244-.062-.517-.122-.82-.183-.303-.06-.606-.152-.91-.273-.24-.12-.817-.242-1.726-.363 2-2 3-4.362 3-7.09v-25.36c2.12-.787 4.272-1.908 6.454-3.363 1.818-1.21 3.757-2.666 5.817-4.363v-.18m-3.818 8.088v14.27c.364-.06.788-.302 1.273-.726l1.363-1.09c.122-.06.213-.122.273-.183.12-.12.212-.18.273-.18.06-.062.15-.122.27-.183.123-.12.183-.182.183-.182.06-.06.212-.182.455-.364.242-.18.424-.333.545-.454.546-.303 1.12-.697 1.727-1.182.606-.545 1.12-1.03 1.545-1.454l-7.908-8.272"/><path style="-inkscape-font-specification:Cloister Black" d="M532.45 534.25l27.452 18.816c.12-.06.364-.333.727-.818.18-.18.514-.484 1-.91.544-.483 1.21-.908 2-1.27l-.91 2.998v33.087c-1.455.606-3.606 1.606-6.454 3-1.333.848-3.302 2.09-5.908 3.726-.12 0-.212.03-.273.09 0 .06-.09.152-.272.273-.182.18-.334.303-.455.363l-6.908-4.272-9.817-3.18c1.757-1.516 2.636-3.455 2.636-5.82V555.34l8.09-3.364-11.09-9.09.18-8.635m14.272 19.907l-2.818 1.727v25.542l10 4.09v-25.36l-7.182-6"/><path style="-inkscape-font-specification:Cloister Black" d="M617 529.433l9.543 2.455c.06.18.152.272.273.272h.455c0 .06.06.09.182.09H629.36c.365-.06.637-.09.82-.09.242-.06.545-.15.908-.272.182 0 .727-.09 1.636-.273.243 0 .546-.06.91-.182l.817-.273c.426-.12.97-.242 1.638-.363.302 0 .848-.09 1.636-.273 1.03-.242 2.12-.363 3.272-.364-.06 0-.182.09-.364.273-.12.122-.242.212-.363.273-.062.06-.183.15-.365.273-.12.12-.273.24-.454.362-.12.06-.333.243-.636.546-.242.06-.484.212-.727.454-.182.182-.363.303-.545.364-.12 0-.273.06-.455.18-.12.062-.333.244-.636.547-2.18 1.575-3.665 2.696-4.453 3.363-1.575 1.454-2.696 2.94-3.363 4.454-.12.12-.212.273-.273.454 0 .182-.06.425-.18.728-.364 1.272-.546 1.848-.546 1.727 0 .06-.03.15-.09.27-.06.123-.152.244-.273.365-.06.12-.12.273-.18.454 0 .12-.062.333-.183.636v2.09c0 .485.06 1.152.182 2v2.18c0 .486.03.82.09 1v3.637c0 .06-.03.97-.09 2.727-.122 2.06-.335 5.15-.638 9.272-.18 2.726-.272 4.06-.272 4v.635c-.06.182-.09.424-.09.727v.637c-.062.182-.092.395-.092.637-.545 1.818-1.242 3.333-2.09 4.545-.122.242-1.09 1.606-2.91 4.09-.12.12-.18.212-.18.273l-.274.273c-.182.18-.303.363-.363.545 2.606-1.636 4.88-3.545 6.818-5.727 1.94-2.242 3.12-4.908 3.545-7.998v-22.906c0-6.424 5.24-11.938 15.725-16.544.363-.12.848-.333 1.454-.636.182-.06.424-.15.727-.273l.727-.364c.18-.06.424-.12.727-.182.363-.12.606-.212.727-.273.183-.06.425-.15.728-.27.364-.122.606-.183.727-.183h.455c.06 0 .15-.03.272-.09h.546c.06 0 .15-.03.273-.092h1c.06.06.152.09.273.09 3.09.546 5.848 2.455 8.272 5.727.06.243.09.394.09.455.06.06.122.152.182.273v.272c0 .243.06.606.182 1.09v1.183c0 .06.03.242.09.545v.455c0 3.21-1.03 6.18-3.09 8.907-1.152 1.515-3.364 3.91-6.636 7.18l-.363.365-.18.09c-.062.06-.123.122-.183.183h.636c.06.06.273.09.637.09.605.122 1.06.182 1.363.182 6.06 1.152 9.423 4.06 10.09 8.726v18.27l-8.454 2c-1.82.788-4.515 2.06-8.09 3.818-2.485 1.333-5.03 2.818-7.636 4.454l-11.453-3.727c-.544.06-1.332.03-2.362-.09-1.273-.122-2.09-.183-2.454-.183-.364 0-.576-.03-.637-.09h-3.636c-.12.06-.332.09-.635.09-3.212.182-6.302 1.152-9.27 2.91-.062.12-.153.272-.274.454-.12.18-.24.303-.363.363-.06.12-.242.515-.545 1.182-.242.423-.364.877-.364 1.362 0-.182.182.637.546 2.454 0 .06.03.152.09.273l.182.363c.06.12.09.212.09.272.183.364.395.88.638 1.546-.243.85-.697 1.394-1.364 1.637-.12.12-.272.182-.454.182-.12 0-.212.03-.273.09h-.364c-.06-.06-.152-.09-.273-.09h-.182c-.06-.062-.12-.092-.182-.092-.666-.303-1.212-.697-1.636-1.182-.364-.485-.545-1.12-.545-1.91v-.362c-.06-.06-.09-.12-.09-.182v-.364c-.062-.06-.092-.12-.092-.182v-.18c0-1.88.545-3.516 1.636-4.91.12-.182.697-.848 1.727-2 .424-.484 1.06-1.18 1.91-2.09l2.27-2.272c.668-.667 1.274-1.364 1.82-2.09.06-.183.15-.334.272-.456.12-.18.212-.333.273-.454.12-.12.18-.212.18-.273.244-.362.426-.756.547-1.18.182-.425.363-.94.545-1.546.12-.303.182-.515.182-.636 0-.12.03-.303.09-.545v-.637c-.06-.06-.09-.15-.09-.272v-.273c-.06-.06-.09-.15-.09-.272 0-.12-.03-.242-.092-.363-.06-.12-.15-.243-.273-.364-.06-.12-.18-.302-.363-.544-.12-.243-.515-.515-1.182-.818h-.363c-.062 0-.183-.03-.365-.09h-.727c-.06 0-.12-.03-.182-.092h-.182c-.727 0-1.666.212-2.818.636-.605.303-1.484.85-2.636 1.636l-.363-.363c-.06 0-.09-.06-.09-.182v-.636c-.062 0-.092-.06-.092-.182v-.727c0-.06.03-.12.09-.182v-.545c0-.06.03-.12.092-.18v-.183c.788-1.576 1.91-2.757 3.363-3.545 1.454-1.03 3.06-1.576 4.818-1.636.06 0 .15-.03.272-.09h.91l.545-.183c0 .06.03.06.09 0v-.182c0-.06.03-.12.09-.18.062-.122.092-.212.092-.273v-.364c0-.06.03-.12.09-.18v-.183c0-1.03-.514-2.09-1.544-3.182-1.03-1.15-2.09-1.94-3.18-2.363-.123-.06-.365-.15-.73-.273-.06 0-.27-.06-.635-.18-.606-.123-1-.183-1.182-.183-1.636.18-3.302.696-5 1.544-.06.06-.24.152-.544.273-.06 0-.12.03-.182.09-.06.06-.15.09-.273.09-.06.002-.18.062-.363.183l-.364.182c-.06 0-.15.06-.273.182-.12.06-.242.09-.363.09l-.182-.545c0-3.818 2.818-6.636 8.453-8.454.182-.06.516-.15 1-.273.122 0 .424-.06.91-.18.242-.062.545-.123.908-.183.424-.06.727-.09.91-.09v-.547c0-.06.03-.15.09-.272v-.272c.06-.666.212-1.666.455-3 .424-2.666 1.696-5.393 3.817-8.18l7.545-6c-.243.243-.818.516-1.727.82-.425.06-1 .24-1.727.544-.425.06-1.03.152-1.818.273-.425.06-1 .09-1.727.09h-.817c-.122 0-.273-.03-.455-.09h-.364c-.12 0-.272-.03-.454-.09h-.454c-.182 0-.425-.03-.728-.092-.303-.12-.484-.182-.545-.182 0-.06-.152-.12-.455-.18-.303-.122-.484-.182-.545-.182-.06-.06-.15-.122-.273-.182h-.272c-1.09-.364-1.91-.576-2.454-.636-.728-.182-1.485-.273-2.273-.273-.847 0-1.847.212-2.998.636-1.03.606-1.91 1.333-2.636 2.182-.182.18-.334.363-.455.545-.12.182-.272.576-.453 1.182-.06.06-.152.242-.273.545-.12 0-.182-.06-.182-.182v-.09c-.06 0-.09-.03-.09-.092-.304-.908-.455-1.424-.455-1.545 0-.606.09-1.06.272-1.363v-.273c.06-.12.09-.212.09-.273 0-.06.03-.152.09-.273 0 .06.092-.182.274-.727.182-.303.454-.788.818-1.455.12-.242.454-.697 1-1.363l.363-.364c.122-.182.212-.303.273-.363.06-.122.152-.243.273-.364.183-.18.273-.302.273-.363.243-.303.576-.666 1-1.09 1.09-.606 2.273-1.152 3.545-1.637 1.333-.484 2.636-.727 3.91-.727h.18c.06.06.152.09.273.09h1c.062.062.153.092.274.092H617v-.182m33.45 47.903c-.546.06-1.395.212-2.546.454-.848.182-1.636.394-2.363.637v6.362l4.91 1.726 5.09-2.272v-5.817c-.122 0-.546-.09-1.273-.273-.243 0-.667-.09-1.273-.273-.788-.24-1.636-.362-2.545-.362v-.182m-3.637-42.63c-1.575.363-2.787.97-3.636 1.817-1.15 1.152-2 2.303-2.545 3.454-.06.122-.212.455-.454 1-.182.485-.273.88-.273 1.182v25.723c0 3.878-1.363 7-4.09 9.362-2.667 2.303-5.636 4.242-8.908 5.817.364 0 .636-.03.818-.09h.818c.485 0 1.03-.06 1.636-.182h1.544c.364 0 .637-.03.82-.09h2.453c.424 0 .97.03 1.636.09.242 0 .818.06 1.727.18.727.062 1.303.092 1.727.092h.273c.06.06.18.09.363.09h.727c.364.122.667.183.91.183h1.09V549.52h2.09v9.546c2.243-1.09 4.303-2.94 6.182-5.545 1.757-2.423 2.636-5.03 2.636-7.816 0-.424-.06-.94-.182-1.545v-.456c-.06-.182-.09-.333-.09-.454-.122-.364-.213-.667-.274-.91-.06-.302-.12-.484-.18-.545-.002-.12-.062-.394-.183-.818-.062-.424-.244-.848-.547-1.272-.18-.182-.454-.455-.818-.818l-.818-1.09c-.727-.728-1.818-1.607-3.272-2.637-.364-.12-.758-.212-1.182-.273v-.182m-1.272 40.904c.546 0 1.364-.062 2.455-.183 1.09-.12 1.91-.182 2.454-.182h.817c.182.06.485.09.91.09.848.122 1.453.213 1.817.274.364.06.636.09.818.09h.364c.06.06.182.09.363.09v-6.544c-.304.242-.607.364-.91.364h-.454c-.182.06-.333.09-.455.09h-.453c-.182.06-.333.09-.455.09h-.908c-.85 0-1.485-.03-1.91-.09l-1.908-.272c-.364 0-.758-.03-1.182-.09-.424-.062-.88-.152-1.363-.274v6.545m5.09-16.908l-5.09 3.727v3.998c.06.182.122.303.183.364.06 0 .15.03.272.09.182 0 .364.03.546.092.91.303 1.425.454 1.546.454 1.212.303 2.06.455 2.545.455.425 0 .758-.03 1-.09-.12 0 .667-.213 2.364-.638.364-.303.727-.484 1.09-.545v-1.91c0-1.15-.423-2.392-1.272-3.726-.727-1.15-1.787-1.848-3.18-2.09v-.182"/><path style="-inkscape-font-specification:Cloister Black" d="M689.566 547.794l12.18 4.727v.092l.182-.182c.12-.182.424-.485.91-.91.544-.423 1-.665 1.362-.726.06 0 .152-.03.273-.09h.273c.06 0 .15-.03.272-.092h.273l.365-.182c-.243.425-.576 1-1 1.727-.243.364-.546.94-.91 1.727-.302.728-.787 1.88-1.454 3.455l-.18 25.63c.06.244.09.395.09.456.06.06.122.15.182.273v.27c0 .062.03.153.09.274v.182c.122.182.334.485.638.91.06.06.363.302.908.726 0 .12.06.182.182.182h.09c0 .06.03.09.092.09l1.636-1.18 1.364 1.18-7.908 6.91h-.546c-1.03 0-1.91-.425-2.636-1.274-.91-1.212-1.484-2.272-1.727-3.18-.182-.425-.394-1.122-.636-2.092-.183-.97-.274-1.545-.274-1.727v-.635c-.06 0-.09-.06-.09-.182v-.454c-.06-.062-.092-.153-.092-.274v-.546l-11.998 10.363c-2.18-1.212-3.97-2.88-5.363-5-1.333-2.18-2-4.454-2-6.817v-.454c0-.06.03-.152.09-.273v-.91c0-.06.032-.152.092-.273v-.18c0-.062.243-1 .727-2.82 1.334-4.908 3.91-8.907 7.727-11.998l-4.455-12.726c.06.182.15.273.272.273h.546c0 .06.06.09.182.09h1.727l.363-.18h.182c1.273-.183 2.697-.638 4.272-1.365 1.393-.666 2.635-1.545 3.726-2.636v-.182m-4.908 18.452c-1.09 1.455-1.85 2.788-2.273 4-.363 1.212-.545 2.545-.545 4v1.272c0 .485.06.91.182 1.272.484 3.212 1.908 6.454 4.272 9.726l1-.545 6.362-5.635v-8.907l-8.998-5.182m-3.545-12.452l3.545 9.998 8.816 5.09v-10.544l-11.27-4.544h-1.09"/><path style="-inkscape-font-specification:Cloister Black" d="M720.217 547.794c.12.122.393.243.818.364.424.06.757.212 1 .454.242.182.666.637 1.272 1.364.182.12.364.333.545.636.243.243.485.546.728.91 0 .12.03.21.09.272.06 0 .152.09.273.273.182.18.303.333.364.454l.272.82c.06.242.15.545.272.908l.273.818c.06.182.12.485.182.91.06.363.15.787.272 1.272l.272 1.09 11.635-10.544h.727c1.818 3.03 3.212 5.94 4.18 8.726.183.667.456 1.697.82 3.09.12.243.242.97.363 2.182 0 .485.03.82.09 1v1.455c-.06.18-.09.363-.09.545v.91c-.06.363-.182.878-.364 1.544-.12.667-.212 1.182-.272 1.546-1.757 4.666-4.453 8.574-8.09 11.725-5.27 4.545-11.664 8.847-19.178 12.907-.85.728-1.485 1.334-1.91 1.818-.423.546-.848 1.455-1.272 2.727v.545c0 .303.03.545.09.727 0-.06.213.545.637 1.818.303.303.485.575.546.818 2 1.15 3.636 1.787 4.908 1.91.183 0 .365.03.547.09h.454c.304 0 .486.03.546.09h1.364c.06-.06.15-.09.273-.09.787-.122 1.363-.243 1.727-.364.363-.12.787-.424 1.272-.91v-.18h.09c0-.06.03-.092.092-.092.303-.606.818-1.212 1.545-1.818.726-.606 1.423-.91 2.09-.91.363.244.788.73 1.272 1.456 0 .06.03.12.09.182v.09c0 .06.03.122.092.182v.273c-.06 0-.09.03-.09.09v.455c-.06 0-.092.03-.092.09v.183c-.727 1.03-1.727 1.757-3 2.182-1.878.666-3.21 1-4 1h-1.09c-.06 0-.242.03-.545.09h-1.91c-.18-.06-.332-.09-.453-.09-.91-.06-2.182-.243-3.818-.546-3.272-.787-4.908-2.665-4.908-5.635 0-.787.15-1.666.454-2.636.606-1.88 1.788-3.697 3.545-5.454.546-.667 1.06-1.546 1.545-2.636.485-1.09.758-2 .82-2.727v-27.996c-.123-.364-.274-.818-.456-1.364-.12-.06-.182-.15-.182-.273v-.18c-.06 0-.12-.032-.182-.092 0-.12-.15-.212-.454-.273-.06-.12-.242-.212-.545-.273-.425.182-1.03.546-1.818 1.09-.12.123-.364.335-.728.637-.363.302-.636.545-.818.727l-1.546-1.546 9.363-8.816m12.27 8.636l-5.817 5.272v23.087c2.242-1.576 4.272-3.818 6.09-6.727 1.818-2.91 2.94-5.696 3.363-8.363 0-.424.06-.94.182-1.545 0-.303.03-.575.09-.818v-1.363c-.06-.06-.09-.243-.09-.546v-.636c-.06-.06-.09-.273-.09-.636-.425-2.97-1.667-5.484-3.727-7.545v-.18"/></g></g></svg>